<svg width="72" height="72" viewBox="0 0 72 72" fill="none" xmlns="http://www.w3.org/2000/svg">
<circle cx="36" cy="36" r="36" fill="#FFF4DE"/>
<path d="M36.1801 37.17C36.0751 37.155 35.9401 37.155 35.8201 37.17C33.1801 37.08 31.0801 34.92 31.0801 32.265C31.0801 29.55 33.2701 27.345 36.0001 27.345C38.7151 27.345 40.9201 29.55 40.9201 32.265C40.9051 34.92 38.8201 37.08 36.1801 37.17Z" stroke="#BB8E33" stroke-width="1.5" stroke-linecap="round" stroke-linejoin="round"/>
<path d="M46.1096 47.0701C43.4396 49.5151 39.8996 51.0001 35.9996 51.0001C32.0996 51.0001 28.5596 49.5151 25.8896 47.0701C26.0396 45.6601 26.9396 44.2801 28.5446 43.2001C32.6546 40.4701 39.3746 40.4701 43.4546 43.2001C45.0596 44.2801 45.9596 45.6601 46.1096 47.0701Z" stroke="#BB8E33" stroke-width="1.5" stroke-linecap="round" stroke-linejoin="round"/>
<path d="M36 51C44.2843 51 51 44.2843 51 36C51 27.7157 44.2843 21 36 21C27.7157 21 21 27.7157 21 36C21 44.2843 27.7157 51 36 51Z" stroke="#BB8E33" stroke-width="1.5" stroke-linecap="round" stroke-linejoin="round"/>
</svg>
