<svg width="25" height="18" viewBox="0 0 25 18" fill="none" xmlns="http://www.w3.org/2000/svg">
<path d="M0 16.25C0 16.9402 0.559766 17.5 1.25 17.5H23.75C24.4402 17.5 25 16.9402 25 16.25V3.75H0V16.25ZM17.5 8.125C17.5 7.77969 17.7797 7.5 18.125 7.5H21.875C22.2203 7.5 22.5 7.77969 22.5 8.125V9.375C22.5 9.72031 22.2203 10 21.875 10H18.125C17.7797 10 17.5 9.72031 17.5 9.375V8.125ZM17.5 12.8125C17.5 12.6398 17.6398 12.5 17.8125 12.5H22.1875C22.3602 12.5 22.5 12.6398 22.5 12.8125V13.4375C22.5 13.6102 22.3602 13.75 22.1875 13.75H17.8125C17.6398 13.75 17.5 13.6102 17.5 13.4375V12.8125ZM2.5 9.0625C2.5 8.88984 2.63984 8.75 2.8125 8.75H14.6875C14.8602 8.75 15 8.88984 15 9.0625V9.6875C15 9.86016 14.8602 10 14.6875 10H2.8125C2.63984 10 2.5 9.86016 2.5 9.6875V9.0625ZM2.5 12.8125C2.5 12.6398 2.63984 12.5 2.8125 12.5H9.6875C9.86016 12.5 10 12.6398 10 12.8125V13.4375C10 13.6102 9.86016 13.75 9.6875 13.75H2.8125C2.63984 13.75 2.5 13.6102 2.5 13.4375V12.8125ZM24.375 0H0.625C0.279687 0 0 0.279687 0 0.625V2.5H25V0.625C25 0.279687 24.7203 0 24.375 0Z" fill="white"/>
</svg>
