<svg width="130" height="150" viewBox="0 0 130 150" fill="none" xmlns="http://www.w3.org/2000/svg">
<path d="M0 10.8942C0 4.8775 4.87751 0 10.8942 0H129.369V149.796H10.8942C4.87751 149.796 0 144.918 0 138.901V10.8942Z" fill="#D1D6EC" fill-opacity="0.25"/>
<path d="M51.6728 83.3445C51.7137 83.2224 51.756 83.0964 51.7996 82.9665L57.8954 64.8143C58.6067 62.6963 58.9626 61.6366 59.6464 60.966C60.2479 60.3762 61.0202 59.9922 61.8535 59.8686C62.8009 59.7281 63.8606 60.084 65.9786 60.7952L87.9125 68.161C90.0305 68.8722 91.0889 69.2277 91.7595 69.9115C92.3493 70.513 92.7343 71.2856 92.8579 72.119C92.9983 73.0654 92.6428 74.1239 91.9329 76.2377L85.8332 94.4016C85.5253 95.3187 85.2841 96.0369 85.0539 96.6108M51.6728 83.3445C51.0467 85.2138 50.7419 86.2001 50.8738 87.0894C50.9974 87.9227 51.3807 88.6969 51.9705 89.2984C52.6404 89.9816 53.6989 90.337 55.8127 91.0469L77.7593 98.4169C79.8731 99.1267 80.9301 99.4817 81.8765 99.3413C82.7098 99.2177 83.4837 98.8321 84.0853 98.2423C84.472 97.863 84.7536 97.3597 85.0539 96.6108M51.6728 83.3445L64.2204 75.854L64.224 75.852C65.3369 75.1876 65.8943 74.8549 66.4258 74.846C66.8928 74.8382 67.3472 74.9946 67.7107 75.2878C68.125 75.6218 68.3604 76.2267 68.831 77.4372L71.8464 85.1943C72.282 86.3149 72.5011 86.8785 72.8873 87.2048C73.2279 87.4926 73.6554 87.6557 74.101 87.6722C74.6083 87.691 75.1511 87.4212 76.2364 86.8816L77.4919 86.2573C78.597 85.7079 79.1494 85.4335 79.6629 85.4556C80.114 85.475 80.545 85.6481 80.8857 85.9443C81.2737 86.2815 81.486 86.8594 81.9101 88.0184L85.0539 96.6108M85.0539 96.6108L85.0734 96.6641M78.8079 77.7281C77.7636 77.3774 77.2013 76.2465 77.552 75.2022C77.9027 74.1579 79.0336 73.5957 80.0779 73.9464C81.1222 74.2971 81.6844 75.4279 81.3337 76.4722C80.983 77.5165 79.8522 78.0788 78.8079 77.7281Z" stroke="#B7C4FF" stroke-width="2.39355" stroke-linecap="round" stroke-linejoin="round"/>
<path d="M41.3904 83.8964V64.7479C41.3904 62.5138 41.3904 61.3958 41.8252 60.5425C42.2076 59.7918 42.8175 59.182 43.5681 58.7995C44.4215 58.3647 45.5394 58.3647 47.7736 58.3647H70.9113C73.1454 58.3647 74.262 58.3647 75.1153 58.7995C75.8659 59.182 76.4768 59.7918 76.8593 60.5425C77.2937 61.395 77.2937 62.5116 77.2937 64.7414V83.9021C77.2937 84.8696 77.2937 85.6271 77.2582 86.2445C77.2119 87.05 77.1052 87.6168 76.8593 88.0994C76.4768 88.8501 75.8659 89.4619 75.1153 89.8444C74.2628 90.2788 73.1478 90.2788 70.918 90.2788H47.767C45.5372 90.2788 44.4206 90.2788 43.5681 89.8444C42.8175 89.4619 42.2076 88.8501 41.8252 88.0994C41.4171 87.2984 41.392 86.2664 41.3905 84.2951C41.3904 84.1662 41.3904 84.0334 41.3904 83.8964Z" fill="#F3F4FA"/>
<path d="M41.3905 84.2951C41.3904 84.1662 41.3904 84.0334 41.3904 83.8964V64.7479C41.3904 62.5138 41.3904 61.3958 41.8252 60.5425C42.2076 59.7918 42.8175 59.182 43.5681 58.7995C44.4215 58.3647 45.5394 58.3647 47.7736 58.3647H70.9113C73.1454 58.3647 74.262 58.3647 75.1153 58.7995C75.8659 59.182 76.4768 59.7918 76.8593 60.5425C77.2937 61.395 77.2937 62.5116 77.2937 64.7414V83.9021C77.2937 84.8696 77.2937 85.6271 77.2582 86.2445M41.3905 84.2951C41.392 86.2664 41.4171 87.2984 41.8252 88.0994C42.2076 88.8501 42.8175 89.4619 43.5681 89.8444C44.4206 90.2788 45.5372 90.2788 47.767 90.2788H70.918C73.1478 90.2788 74.2628 90.2788 75.1153 89.8444C75.8659 89.4619 76.4768 88.8501 76.8593 88.0994C77.1052 87.6168 77.2119 87.05 77.2582 86.2445M41.3905 84.2951L50.9007 73.1998L50.9035 73.1967C51.747 72.2126 52.1695 71.7198 52.6705 71.5421C53.1107 71.3861 53.5912 71.3897 54.0292 71.5519C54.5283 71.7367 54.944 72.2351 55.7755 73.2329L61.1034 79.6265C61.8731 80.5501 62.2602 81.0146 62.7301 81.201C63.1447 81.3654 63.6019 81.384 64.0296 81.2577C64.5165 81.1141 64.9451 80.6855 65.8022 79.8284L66.7936 78.8369C67.6663 77.9643 68.1026 77.5283 68.5965 77.3858C69.0302 77.2606 69.4939 77.2875 69.9112 77.4598C70.3863 77.656 70.7716 78.1362 71.5426 79.0999L77.2582 86.2445M77.2582 86.2445L77.2936 86.2887M65.3259 70.3325C64.2243 70.3325 63.3313 69.4395 63.3313 68.3379C63.3313 67.2363 64.2243 66.3433 65.3259 66.3433C66.4275 66.3433 67.3205 67.2363 67.3205 68.3379C67.3205 69.4395 66.4275 70.3325 65.3259 70.3325Z" stroke="#B7C4FF" stroke-width="2.39355" stroke-linecap="round" stroke-linejoin="round"/>
</svg>
