<svg width="591" height="388" viewBox="0 0 591 388" fill="none" xmlns="http://www.w3.org/2000/svg">
<g clip-path="url(#clip0_157_4179)">
<path d="M62.5809 355.127H134.196V360.939H62.5809V355.127Z" fill="#E7EBF2"/>
<path d="M67.0075 342.108C67.61 340.258 69.3349 339.006 71.2809 339.006H125.683C127.629 339.006 129.354 340.258 129.957 342.108L134.196 355.128H62.7686L67.0075 342.108Z" fill="#E7EBF2"/>
<path d="M40.459 108.039V129.973H245.554L225.683 109.914L40.459 108.039Z" stroke="#E7EBF2" stroke-width="2.99614" stroke-miterlimit="10" stroke-linejoin="round"/>
<path d="M156.879 129.973V109.913L179.752 129.973V109.913L202.81 129.973V109.913L225.683 129.973V110.663V109.913" stroke="#E7EBF2" stroke-width="2.99614" stroke-miterlimit="10" stroke-linejoin="round"/>
<path d="M65.0181 129.973V108.414" stroke="#E7EBF2" stroke-width="2.99614" stroke-miterlimit="10" stroke-linejoin="round"/>
<path d="M133.821 109.913V129.973L110.949 109.913" stroke="#E7EBF2" stroke-width="2.99614" stroke-miterlimit="10" stroke-linejoin="round"/>
<path d="M110.949 109.913V129.973" stroke="#E7EBF2" stroke-width="2.99614" stroke-miterlimit="10" stroke-linejoin="round"/>
<path d="M86.2024 329.63H110.761V87.603L98.3881 76.167L86.2024 87.603V329.63Z" stroke="#E7EBF2" stroke-width="2.99614" stroke-miterlimit="10" stroke-linejoin="round"/>
<path d="M110.761 88.916H86.2024" stroke="#E7EBF2" stroke-width="2.99614" stroke-miterlimit="10"/>
<path d="M110.761 150.783H86.2024" stroke="#E7EBF2" stroke-width="2.99614" stroke-miterlimit="10" stroke-linejoin="round"/>
<path d="M110.761 170.654H86.2024" stroke="#E7EBF2" stroke-width="2.99614" stroke-miterlimit="10"/>
<path d="M110.761 190.338H86.2024" stroke="#E7EBF2" stroke-width="2.99614" stroke-miterlimit="10"/>
<path d="M110.761 210.213H86.2024" stroke="#E7EBF2" stroke-width="2.99614" stroke-miterlimit="10"/>
<path d="M110.761 230.084H86.2024" stroke="#E7EBF2" stroke-width="2.99614" stroke-miterlimit="10"/>
<path d="M110.761 249.955H86.2024" stroke="#E7EBF2" stroke-width="2.99614" stroke-miterlimit="10"/>
<path d="M110.761 269.641H86.2024" stroke="#E7EBF2" stroke-width="2.99614" stroke-miterlimit="10"/>
<path d="M110.761 289.512H86.2024" stroke="#E7EBF2" stroke-width="2.99614" stroke-miterlimit="10"/>
<path d="M110.761 309.385H86.2024" stroke="#E7EBF2" stroke-width="2.99614" stroke-miterlimit="10"/>
<path d="M207.498 109.725L98.3882 76.167L46.4583 108.225" stroke="#E7EBF2" stroke-width="2.99614" stroke-miterlimit="10" stroke-linejoin="round"/>
<path d="M110.949 129.972L86.2024 108.788" stroke="#E7EBF2" stroke-width="2.99614" stroke-miterlimit="10" stroke-linejoin="round"/>
<path d="M86.9524 130.723L110.199 150.033" stroke="#E7EBF2" stroke-width="2.99614" stroke-miterlimit="10" stroke-linejoin="round"/>
<path d="M86.9524 89.292L110.386 108.039" stroke="#E7EBF2" stroke-width="2.99614" stroke-miterlimit="10" stroke-linejoin="round"/>
<path d="M65.7681 108.788L85.2653 129.598" stroke="#E7EBF2" stroke-width="2.99614" stroke-miterlimit="10" stroke-linejoin="round"/>
<path d="M64.4556 129.598L40.6466 108.788" stroke="#E7EBF2" stroke-width="2.99614" stroke-miterlimit="10" stroke-linejoin="round"/>
<path d="M134.571 109.727L156.13 129.036" stroke="#E7EBF2" stroke-width="2.99614" stroke-miterlimit="10" stroke-linejoin="round"/>
<path d="M87.1399 151.346L110.199 169.905" stroke="#E7EBF2" stroke-width="2.99614" stroke-miterlimit="10" stroke-linejoin="round"/>
<path d="M87.1399 171.404L110.199 189.589" stroke="#E7EBF2" stroke-width="2.99614" stroke-miterlimit="10" stroke-linejoin="round"/>
<path d="M86.9524 191.089L110.199 209.461" stroke="#E7EBF2" stroke-width="2.99614" stroke-miterlimit="10" stroke-linejoin="round"/>
<path d="M86.9524 211.15L110.199 229.334" stroke="#E7EBF2" stroke-width="2.99614" stroke-miterlimit="10" stroke-linejoin="round"/>
<path d="M86.9524 230.833L110.199 249.018" stroke="#E7EBF2" stroke-width="2.99614" stroke-miterlimit="10" stroke-linejoin="round"/>
<path d="M86.9524 250.517L110.199 268.889" stroke="#E7EBF2" stroke-width="2.99614" stroke-miterlimit="10" stroke-linejoin="round"/>
<path d="M86.9524 270.392L110.199 288.764" stroke="#E7EBF2" stroke-width="2.99614" stroke-miterlimit="10" stroke-linejoin="round"/>
<path d="M86.9524 290.263L110.199 308.635" stroke="#E7EBF2" stroke-width="2.99614" stroke-miterlimit="10" stroke-linejoin="round"/>
<path d="M86.9524 310.322L110.199 328.507" stroke="#E7EBF2" stroke-width="2.99614" stroke-miterlimit="10" stroke-linejoin="round"/>
<path d="M74.9509 329.443H121.826C123.481 329.443 124.822 330.786 124.822 332.439V339.006H71.9547V332.439C71.9547 330.786 73.2961 329.443 74.9509 329.443Z" fill="#E7EBF2"/>
<path d="M137.57 148.158L123.509 162.218C122.572 163.156 121.26 163.718 120.135 163.718H84.8901V130.723H139.257V144.596C138.882 146.095 138.507 147.22 137.57 148.158Z" fill="#E7EBF2"/>
<path d="M105.539 145.701H92.0379C91.2105 145.701 90.5398 145.03 90.5398 144.203V137.638C90.5398 136.81 91.2105 136.14 92.0379 136.14H105.539C106.367 136.14 107.037 136.81 107.037 137.638V144.203C107.037 145.03 106.367 145.701 105.539 145.701Z" fill="white"/>
<path d="M126.866 145.7H113.365C112.537 145.7 111.867 145.029 111.867 144.202V137.637C111.867 136.809 112.537 136.139 113.365 136.139H126.866C127.694 136.139 128.364 136.809 128.364 137.637V144.202C128.364 145.029 127.694 145.7 126.866 145.7Z" fill="white"/>
<path d="M44.1344 302.326H36.7837V362.318H44.1344V302.326Z" fill="#F1F3F9" stroke="#D6DCE8" stroke-width="2.99614" stroke-miterlimit="10" stroke-linejoin="round"/>
<path d="M96.3007 302.326H88.95V362.318H96.3007V302.326Z" fill="#F1F3F9" stroke="#D6DCE8" stroke-width="2.99614" stroke-miterlimit="10" stroke-linejoin="round"/>
<path d="M318.244 362.06C298.326 362.534 274.614 362.06 257.779 361.823C240.943 362.296 217.232 362.534 197.314 362.06C216.994 350.915 223.633 330.285 224.82 316.533H290.501C291.924 330.285 298.564 350.915 318.244 362.06Z" fill="#F1F3F9" stroke="#D6DCE8" stroke-width="2.99614" stroke-miterlimit="10"/>
<path d="M381.317 142.035V312.524C381.317 316.792 377.997 319.875 373.968 319.875H141.59C137.559 319.875 134.24 316.555 134.24 312.524V142.035C134.24 138.004 137.559 134.685 141.59 134.685H373.968C377.997 134.685 381.317 137.767 381.317 142.035Z" fill="white" stroke="#D6DCE8" stroke-width="2.99614" stroke-miterlimit="10" stroke-linejoin="round"/>
<path d="M381.317 142.035V289.049H134.477V142.035C134.477 138.004 137.796 134.685 141.828 134.685H374.204C377.997 134.685 381.317 137.767 381.317 142.035Z" fill="#F1F3F9" stroke="#D6DCE8" stroke-width="2.99614" stroke-miterlimit="10"/>
<path d="M372.544 143.693H143.25V280.511H372.308V143.693H372.544Z" fill="white"/>
<path d="M257.779 310.388C261.184 310.388 263.943 307.628 263.943 304.223C263.943 300.818 261.184 298.059 257.779 298.059C254.374 298.059 251.614 300.818 251.614 304.223C251.614 307.628 254.374 310.388 257.779 310.388Z" fill="#D6DCE8"/>
<path d="M516.877 308.967H510.475V361.607H516.877V308.967Z" fill="#F1F3F9" stroke="#D6DCE8" stroke-width="2.99614" stroke-miterlimit="10" stroke-linejoin="round"/>
<path d="M562.64 308.967H556.239V361.607H562.64V308.967Z" fill="#F1F3F9" stroke="#D6DCE8" stroke-width="2.99614" stroke-miterlimit="10" stroke-linejoin="round"/>
<path d="M570.703 311.338H503.362V332.916H570.703V311.338Z" fill="white" stroke="#D6DCE8" stroke-width="2.99614" stroke-miterlimit="10"/>
<path d="M519.722 311.338L512.609 332.916H504.547L511.423 311.338H519.722Z" fill="#D6DCE8"/>
<path d="M536.084 311.338L528.97 332.916H520.909L527.785 311.338H536.084Z" fill="#D6DCE8"/>
<path d="M552.444 311.338L545.332 332.916H537.269L544.145 311.338H552.444Z" fill="#D6DCE8"/>
<path d="M568.807 311.338L561.692 332.916H553.631L560.507 311.338H568.807Z" fill="#D6DCE8"/>
<path d="M105.548 305.172H28.7216V329.833H105.548V305.172Z" fill="white" stroke="#D6DCE8" stroke-width="2.99614" stroke-miterlimit="10"/>
<path d="M47.2168 305.172L39.1548 329.596H29.9072L37.9692 305.172H47.2168Z" fill="#D6DCE8"/>
<path d="M65.9494 305.172L57.8874 329.596H48.6398L56.4646 305.172H65.9494Z" fill="#D6DCE8"/>
<path d="M84.6818 305.172L76.6198 329.596H67.3722L75.1971 305.172H84.6818Z" fill="#D6DCE8"/>
<path d="M103.414 305.172L95.3522 329.596H86.1046L93.9295 305.172H103.414Z" fill="#D6DCE8"/>
<path d="M287.893 68.5283V97.4569" stroke="#D6DCE8" stroke-width="2.99614" stroke-miterlimit="10" stroke-linejoin="round"/>
<path d="M288.011 110.025C292.66 110.025 296.429 106.256 296.429 101.607C296.429 96.9581 292.66 93.1895 288.011 93.1895C283.363 93.1895 279.594 96.9581 279.594 101.607C279.594 106.256 283.363 110.025 288.011 110.025Z" fill="#D6DCE8"/>
<path d="M279.83 124.015C279.83 129.231 284.573 133.499 290.264 132.077C293.347 131.365 295.717 128.994 296.429 125.912C297.377 121.406 294.769 117.138 290.738 115.953C289.316 115.478 288.368 114.293 288.368 112.633V105.282" stroke="#D6DCE8" stroke-width="2.99614" stroke-miterlimit="10" stroke-linejoin="round"/>
<path d="M492.765 354.492H402.184V361.843H492.765V354.492Z" fill="#F1F3F9" stroke="#D6DCE8" stroke-width="2.99614" stroke-miterlimit="10" stroke-linejoin="round"/>
<path d="M485.887 334.102H408.823L402.184 354.493H492.526L485.887 334.102Z" fill="#F1F3F9" stroke="#D6DCE8" stroke-width="2.99614" stroke-miterlimit="10" stroke-linejoin="round"/>
<path d="M520.744 41.9697V69.7126H261.335L286.47 44.3409L520.744 41.9697Z" stroke="#D6DCE8" stroke-width="2.99614" stroke-miterlimit="10" stroke-linejoin="round"/>
<path d="M373.493 69.7126V44.3408L344.565 69.7126V44.3408L315.399 69.7126V44.3408L286.47 69.7126V45.2894V44.3408" stroke="#D6DCE8" stroke-width="2.99614" stroke-miterlimit="10" stroke-linejoin="round"/>
<path d="M489.681 69.7121V42.4434" stroke="#D6DCE8" stroke-width="2.99614" stroke-miterlimit="10" stroke-linejoin="round"/>
<path d="M402.659 44.3408V69.7126L431.586 44.3408" stroke="#D6DCE8" stroke-width="2.99614" stroke-miterlimit="10" stroke-linejoin="round"/>
<path d="M431.586 44.3408V69.7126" stroke="#D6DCE8" stroke-width="2.99614" stroke-miterlimit="10" stroke-linejoin="round"/>
<path d="M462.887 322.244H431.825V16.1234L447.473 1.65918L462.887 16.1234V322.244Z" stroke="#D6DCE8" stroke-width="2.99614" stroke-miterlimit="10" stroke-linejoin="round"/>
<path d="M431.825 17.7842H462.887" stroke="#D6DCE8" stroke-width="2.99614" stroke-miterlimit="10"/>
<path d="M431.825 96.0332H462.887" stroke="#D6DCE8" stroke-width="2.99614" stroke-miterlimit="10" stroke-linejoin="round"/>
<path d="M431.825 121.167H462.887" stroke="#D6DCE8" stroke-width="2.99614" stroke-miterlimit="10"/>
<path d="M431.825 146.064H462.887" stroke="#D6DCE8" stroke-width="2.99614" stroke-miterlimit="10"/>
<path d="M431.825 171.2H462.887" stroke="#D6DCE8" stroke-width="2.99614" stroke-miterlimit="10"/>
<path d="M431.825 196.333H462.887" stroke="#D6DCE8" stroke-width="2.99614" stroke-miterlimit="10"/>
<path d="M431.825 221.469H462.887" stroke="#D6DCE8" stroke-width="2.99614" stroke-miterlimit="10"/>
<path d="M431.825 246.366H462.887" stroke="#D6DCE8" stroke-width="2.99614" stroke-miterlimit="10"/>
<path d="M431.825 271.502H462.887" stroke="#D6DCE8" stroke-width="2.99614" stroke-miterlimit="10"/>
<path d="M431.825 296.636H462.887" stroke="#D6DCE8" stroke-width="2.99614" stroke-miterlimit="10"/>
<path d="M309.471 44.1034L447.473 1.65918L513.156 42.2066" stroke="#D6DCE8" stroke-width="2.99614" stroke-miterlimit="10" stroke-linejoin="round"/>
<path d="M431.586 69.7115L462.887 42.917" stroke="#D6DCE8" stroke-width="2.99614" stroke-miterlimit="10" stroke-linejoin="round"/>
<path d="M461.939 70.6611L432.536 95.0845" stroke="#D6DCE8" stroke-width="2.99614" stroke-miterlimit="10" stroke-linejoin="round"/>
<path d="M461.939 18.2578L432.298 41.9697" stroke="#D6DCE8" stroke-width="2.99614" stroke-miterlimit="10" stroke-linejoin="round"/>
<path d="M488.733 42.917L464.072 69.2372" stroke="#D6DCE8" stroke-width="2.99614" stroke-miterlimit="10" stroke-linejoin="round"/>
<path d="M490.393 69.2372L520.507 42.917" stroke="#D6DCE8" stroke-width="2.99614" stroke-miterlimit="10" stroke-linejoin="round"/>
<path d="M401.71 44.1035L374.441 68.5267" stroke="#D6DCE8" stroke-width="2.99614" stroke-miterlimit="10" stroke-linejoin="round"/>
<path d="M461.701 96.7441L432.536 120.219" stroke="#D6DCE8" stroke-width="2.99614" stroke-miterlimit="10" stroke-linejoin="round"/>
<path d="M461.701 122.116L432.536 145.117" stroke="#D6DCE8" stroke-width="2.99614" stroke-miterlimit="10" stroke-linejoin="round"/>
<path d="M461.939 147.014L432.536 170.251" stroke="#D6DCE8" stroke-width="2.99614" stroke-miterlimit="10" stroke-linejoin="round"/>
<path d="M461.939 172.387L432.536 195.387" stroke="#D6DCE8" stroke-width="2.99614" stroke-miterlimit="10" stroke-linejoin="round"/>
<path d="M461.939 197.283L432.536 220.285" stroke="#D6DCE8" stroke-width="2.99614" stroke-miterlimit="10" stroke-linejoin="round"/>
<path d="M461.939 222.18L432.536 245.418" stroke="#D6DCE8" stroke-width="2.99614" stroke-miterlimit="10" stroke-linejoin="round"/>
<path d="M461.939 247.314L432.536 270.552" stroke="#D6DCE8" stroke-width="2.99614" stroke-miterlimit="10" stroke-linejoin="round"/>
<path d="M461.939 272.449L432.536 295.687" stroke="#D6DCE8" stroke-width="2.99614" stroke-miterlimit="10" stroke-linejoin="round"/>
<path d="M461.939 297.82L432.536 320.822" stroke="#D6DCE8" stroke-width="2.99614" stroke-miterlimit="10" stroke-linejoin="round"/>
<path d="M480.907 322.008H414.041V334.102H480.907V322.008Z" fill="#F1F3F9" stroke="#D6DCE8" stroke-width="2.99614" stroke-miterlimit="10" stroke-linejoin="round"/>
<path d="M184.508 272.212H155.106C152.736 272.212 150.838 270.316 150.838 267.944V154.602C150.838 152.231 152.736 150.334 155.106 150.334H184.508C186.88 150.334 188.778 152.231 188.778 154.602V267.944C188.778 270.316 186.88 272.212 184.508 272.212Z" fill="#F1F3F9"/>
<path d="M169.808 173.097C173.736 173.097 176.921 169.912 176.921 165.983C176.921 162.055 173.736 158.87 169.808 158.87C165.878 158.87 162.693 162.055 162.693 165.983C162.693 169.912 165.878 173.097 169.808 173.097Z" fill="#D6DCE8"/>
<path d="M182.375 183.53H157.241C156.766 183.53 156.529 183.293 156.529 182.818V180.922C156.529 180.447 156.766 180.21 157.241 180.21H182.138C182.612 180.21 182.849 180.447 182.849 180.922V182.818C183.087 183.293 182.612 183.53 182.375 183.53Z" fill="#D6DCE8"/>
<path d="M182.375 193.49H157.241C156.766 193.49 156.529 193.253 156.529 192.778V190.882C156.529 190.407 156.766 190.17 157.241 190.17H182.138C182.612 190.17 182.849 190.407 182.849 190.882V192.778C183.087 193.253 182.612 193.49 182.375 193.49Z" fill="#D6DCE8"/>
<path d="M182.375 203.448H157.241C156.766 203.448 156.529 203.211 156.529 202.736V200.839C156.529 200.365 156.766 200.128 157.241 200.128H182.138C182.612 200.128 182.849 200.365 182.849 200.839V202.736C183.087 203.211 182.612 203.448 182.375 203.448Z" fill="#D6DCE8"/>
<path d="M182.375 213.645H157.241C156.766 213.645 156.529 213.408 156.529 212.933V211.037C156.529 210.562 156.766 210.325 157.241 210.325H182.138C182.612 210.325 182.849 210.562 182.849 211.037V212.933C183.087 213.17 182.612 213.645 182.375 213.645Z" fill="#D6DCE8"/>
<path d="M182.375 223.603H157.241C156.766 223.603 156.529 223.366 156.529 222.891V220.995C156.529 220.52 156.766 220.283 157.241 220.283H182.138C182.612 220.283 182.849 220.52 182.849 220.995V222.891C183.087 223.13 182.612 223.603 182.375 223.603Z" fill="#D6DCE8"/>
<path d="M182.375 233.563H157.241C156.766 233.563 156.529 233.325 156.529 232.851V230.953C156.529 230.48 156.766 230.243 157.241 230.243H182.138C182.612 230.243 182.849 230.48 182.849 230.953V232.851C183.087 233.325 182.612 233.563 182.375 233.563Z" fill="#D6DCE8"/>
<path d="M177.87 243.522H161.983C161.508 243.522 161.272 243.284 161.272 242.81V240.914C161.272 240.439 161.508 240.202 161.983 240.202H177.87C178.344 240.202 178.58 240.439 178.58 240.914V242.81C178.58 243.284 178.107 243.522 177.87 243.522Z" fill="#D6DCE8"/>
<path d="M272.954 255.139H209.644V258.697H272.954V255.139Z" fill="#D6DCE8"/>
<path d="M244.026 264.624H209.644V268.18H244.026V264.624Z" fill="#D6DCE8"/>
<path d="M349.07 255.139H285.758V258.697H349.07V255.139Z" fill="#D6DCE8"/>
<path d="M320.14 264.624H285.758V268.18H320.14V264.624Z" fill="#D6DCE8"/>
<path d="M232.508 139.542L282.702 129.555C286.381 128.767 290.061 129.555 292.952 131.395L331.584 153.733" stroke="#AAB2C5" stroke-width="2.99614" stroke-miterlimit="10" stroke-linejoin="round"/>
<path opacity="0.1" d="M335.526 276.506L208.383 257.32C204.44 256.796 201.812 253.117 202.338 249.174L215.216 157.456C215.741 153.515 219.421 150.887 223.362 151.411L350.505 170.597C354.448 171.121 357.075 174.801 356.549 178.744L343.672 270.461C343.146 274.141 339.467 277.03 335.526 276.506Z" fill="#3B589D"/>
<path d="M331.031 259.643L203.889 240.458C199.947 239.933 197.318 236.253 197.844 232.312L210.721 140.594C211.247 136.652 214.927 134.024 218.868 134.549L346.011 153.734C349.954 154.259 352.581 157.939 352.055 161.88L339.178 253.598C338.652 257.277 334.973 260.168 331.031 259.643Z" fill="white" stroke="#D6DCE8" stroke-width="2.99614" stroke-miterlimit="10" stroke-linejoin="round"/>
<path d="M326.868 249.206L213.213 231.455C209.999 231.027 207.859 228.028 208.287 224.815L218.783 150.059C219.211 146.847 222.209 144.705 225.422 145.134L339.077 162.884C342.291 163.313 344.433 166.312 344.005 169.525L333.508 244.279C333.079 247.278 330.082 249.635 326.868 249.206Z" fill="#F1F3F9"/>
<path d="M397.916 92.7141L415.701 110.498C416.886 111.684 418.546 112.395 419.969 112.395H464.547V70.6621H395.783V88.2089C396.256 90.1059 396.731 91.5286 397.916 92.7141Z" fill="#F1F3F9" stroke="#D6DCE8" stroke-width="2.99614" stroke-miterlimit="10" stroke-linejoin="round"/>
<path d="M436.534 89.6049H457.401V77.5117H436.534V89.6049Z" fill="white" stroke="#D6DCE8" stroke-width="2.99614" stroke-miterlimit="10" stroke-linejoin="round"/>
<path d="M409.56 89.6049H430.427V77.5117H409.56V89.6049Z" fill="white" stroke="#D6DCE8" stroke-width="2.99614" stroke-miterlimit="10" stroke-linejoin="round"/>
<path d="M3.58704 362.317H587.797" stroke="#CDD6E1" stroke-width="4.49421" stroke-miterlimit="10" stroke-linecap="round" stroke-linejoin="round"/>
<path d="M205.601 360.422H173.589L175.012 356.865L178.332 347.854L181.177 340.028L184.496 331.019L186.868 324.853C187.343 323.668 188.528 322.72 189.714 322.72C190.899 322.72 192.086 323.431 192.559 324.853L194.93 331.019L198.25 340.028L201.095 347.854L204.415 356.865L205.601 360.422Z" fill="white" stroke="#D6DCE8" stroke-width="2.99614" stroke-miterlimit="10"/>
<path d="M198.259 340.03H181.196L184.403 331.256H195.007L198.259 340.03Z" fill="#D6DCE8"/>
<path d="M204.404 356.865H175.001L178.321 347.854H201.084L204.404 356.865Z" fill="#D6DCE8"/>
<path d="M205.601 360.421H173.352C172.404 360.421 171.456 359.709 171.456 358.524C171.456 357.576 172.167 356.628 173.352 356.628H205.601C206.549 356.628 207.498 357.338 207.498 358.524C207.498 359.709 206.786 360.421 205.601 360.421Z" fill="white" stroke="#D6DCE8" stroke-width="2.99614" stroke-miterlimit="10"/>
<path d="M381.021 360.422H349.01L350.433 356.865L353.753 347.854L356.597 340.028L359.917 331.019L362.289 324.853C362.762 323.668 363.948 322.72 365.133 322.72C366.32 322.72 367.505 323.431 367.98 324.853L370.35 331.019L373.669 340.028L376.516 347.854L379.836 356.865L381.021 360.422Z" fill="white" stroke="#D6DCE8" stroke-width="2.99614" stroke-miterlimit="10"/>
<path d="M373.678 340.03H356.617L359.823 331.256H370.426L373.678 340.03Z" fill="#D6DCE8"/>
<path d="M379.825 356.865H350.422L353.742 347.854H376.505L379.825 356.865Z" fill="#D6DCE8"/>
<path d="M381.02 360.421H348.773C347.825 360.421 346.875 359.709 346.875 358.524C346.875 357.576 347.587 356.628 348.773 356.628H381.02C381.969 356.628 382.917 357.338 382.917 358.524C382.917 359.709 382.207 360.421 381.02 360.421Z" fill="white" stroke="#D6DCE8" stroke-width="2.99614" stroke-miterlimit="10"/>
<path d="M250.795 199.924C254.152 200.435 257.425 198.026 257.935 194.669C258.446 191.312 256.037 188.039 252.68 187.529C249.322 187.019 246.049 189.427 245.54 192.785C245.029 196.142 247.438 199.415 250.795 199.924Z" fill="#AAB2C5"/>
<path d="M298.314 207.144C301.671 207.655 304.942 205.246 305.453 201.889C305.963 198.532 303.554 195.258 300.197 194.749C296.839 194.238 293.568 196.647 293.057 200.004C292.507 203.621 294.956 206.635 298.314 207.144Z" fill="#AAB2C5"/>
<path d="M254.61 173.182L239.857 178.471L241.18 182.16L255.933 176.87L254.61 173.182Z" fill="#AAB2C5"/>
<path d="M301.543 180.216L299.185 183.344L311.702 192.777L314.06 189.648L301.543 180.216Z" fill="#AAB2C5"/>
<path d="M272.357 217.996C276.35 218.603 279.956 216.668 280.412 213.671C280.867 210.677 277.998 207.757 274.004 207.15C270.011 206.544 266.405 208.479 265.949 211.474C265.494 214.47 268.363 217.39 272.357 217.996Z" fill="#AAB2C5"/>
<path d="M185.84 385.024H500.848" stroke="#CDD6E1" stroke-width="4.49421" stroke-miterlimit="10" stroke-linecap="round" stroke-linejoin="round"/>
<path d="M83.3815 385.024H123.19" stroke="#CDD6E1" stroke-width="4.49421" stroke-miterlimit="10" stroke-linecap="round" stroke-linejoin="round"/>
</g>
<defs>
<clipPath id="clip0_157_4179">
<rect width="590.239" height="388" fill="white"/>
</clipPath>
</defs>
</svg>
