<svg width="177" height="196" viewBox="0 0 177 196" fill="none" xmlns="http://www.w3.org/2000/svg">
<path d="M109.594 127.965L115.544 90.7791L75.3833 74.4175L69.4336 130.939L109.594 127.965Z" fill="#A0616A"/>
<path d="M149.957 182.92C146.509 184.601 142.995 186.118 139.429 187.464C132.296 190.163 124.934 192.2 117.381 193.559C109.999 194.892 102.42 195.569 94.8409 195.569C84.6018 195.569 74.4218 194.341 64.5769 191.91C60.7217 190.965 56.8335 189.809 53.0113 188.462C52.6106 188.318 52.2034 188.174 51.8027 188.029C47.0609 186.309 42.3978 184.292 37.9121 182.013C37.3078 181.711 36.7036 181.402 36.0994 181.074C35.4295 180.732 34.7662 180.371 34.0963 179.997C33.2424 179.531 32.3952 179.044 31.5479 178.552C28.7108 176.91 25.9195 175.136 23.253 173.291L23.0757 173.173C22.918 173.062 22.7604 172.956 22.6094 172.845C22.7078 172.326 22.7999 171.853 22.8852 171.433C23.2136 169.784 23.4303 168.878 23.4303 168.878L41.4126 131.731L46.4238 121.38L48.867 120.375L67.3223 112.79H112.429L126.661 118.674C126.661 118.674 126.734 118.944 126.878 119.462C128.297 124.552 136.572 153.45 149.412 181.724C149.589 182.118 149.773 182.519 149.957 182.92Z" fill="#5470C6"/>
<path d="M99.4461 102.733C122.064 102.733 140.4 84.3972 140.4 61.7791C140.4 39.1609 122.064 20.8252 99.4461 20.8252C76.8279 20.8252 58.4922 39.1609 58.4922 61.7791C58.4922 84.3972 76.8279 102.733 99.4461 102.733Z" fill="#A0616A"/>
<path d="M48.9382 120.022L48.8677 120.375L36.3818 179.74L36.2738 180.257L36.0999 181.075C35.4279 180.732 34.7653 180.37 34.098 179.999C33.2427 179.529 32.3969 179.045 31.5463 178.552C28.7127 176.912 25.9213 175.135 23.2521 173.293L23.0736 173.171C22.9185 173.063 22.7587 172.955 22.6084 172.847C20.5689 171.423 18.5811 169.938 16.6403 168.406C16.6262 168.397 16.6168 168.387 16.6027 168.373C13.1394 165.582 9.8029 162.579 6.61209 159.388C4.55385 157.33 2.57545 155.21 0.681641 153.035L0.96832 151.832L0.996514 151.709L1.35363 150.178C4.53033 136.761 15.2775 126.465 28.816 123.871L46.8048 120.427L48.9382 120.022Z" fill="#5470C6"/>
<path d="M176.484 165.561C171.184 170.073 165.503 174.158 159.507 177.744C158.922 178.099 158.325 178.447 157.727 178.795C155.179 180.266 152.584 181.639 149.957 182.92C146.509 184.601 142.996 186.118 139.429 187.464L139.154 186.164L125.053 119.114L126.879 119.463L145.176 122.97C158.712 125.564 169.464 135.862 172.636 149.279L176.136 164.103L176.484 165.561Z" fill="#5470C6"/>
<path d="M146.607 72.7267C145.543 76.6936 140.19 94.42 126.483 98.1502C123.791 98.8859 117.367 99.7331 119.068 98.1502C119.456 97.7891 119.83 97.4344 120.205 97.0862C135.08 83.0971 141.149 74.5463 138.377 55.5654C136.617 43.4806 116.573 32.506 105.296 31.4156C100.541 30.9564 94.4723 32.565 90.4661 36.7096C83.8524 43.5396 84.9425 64.5042 81.2779 76.8187C80.2927 80.1153 78.9726 82.795 77.0744 84.4171C75.8922 85.4285 75.137 84.1413 74.5787 82.0331C73.3901 77.5537 73.0814 69.3511 71.3935 71.6691C66.5137 78.3881 71.1635 87.2936 72.5691 90.7288C72.858 91.4318 73.1535 92.1078 73.4491 92.7517V92.7581C73.6198 93.1257 73.7972 93.4938 73.9679 93.8421V93.8485C78.6572 103.411 84.2923 106.832 89.2575 112.79C91.2081 115.121 93.0537 117.833 94.7022 121.459C95.8318 123.942 96.6462 126.437 97.2045 128.887C100.048 141.169 96.6725 152.327 95.7595 155.362C93.8484 161.68 90.5645 172.536 80.9298 178.663C68.8319 186.361 57.7918 179.577 52.5113 186.887C52.4456 186.972 52.3864 187.057 52.3274 187.142C52.1303 187.438 51.953 187.734 51.802 188.029C47.0601 186.309 42.397 184.292 37.9114 182.013C37.307 181.711 36.7029 181.402 36.0987 181.074C35.4288 180.732 34.7654 180.371 34.0955 179.997C34.0692 179.484 34.0429 178.973 34.0232 178.454C33.6358 169.567 34.2203 159.801 36.4336 150.061C37.8522 143.842 39.2578 137.674 41.4118 131.731C42.8174 127.856 44.5381 124.073 46.8039 120.428C48.6167 117.499 50.7708 114.655 53.3847 111.922C59.125 105.926 64.2281 103.424 65.036 97.0925C66.1917 88.0555 56.7803 85.3367 53.3847 71.669C51.0665 62.3235 48.6429 48.8533 50.9942 39.7766C53.2141 31.1994 55.145 23.7582 61.5879 16.4677C63.1378 14.7206 75.8595 2.57034 90.5974 0.573733C97.3883 -0.338946 103.444 8.35684 111.653 10.2284C121.091 12.3763 126.496 13.6046 131.777 17.6433C140.702 24.4605 143.218 34.6539 145.549 44.1245C147.375 51.533 149.74 61.1152 146.607 72.7267Z" fill="#2F2E41"/>
</svg>
