<svg width="42" height="41" viewBox="0 0 42 41" fill="none" xmlns="http://www.w3.org/2000/svg">
<rect x="0.55603" y="0.103615" width="41.0488" height="40.5659" rx="2.41463" fill="#FF9E9E" fill-opacity="0.23"/>
<g clip-path="url(#clip0_36_540)">
<path d="M28.9798 28.1134H11.2493C10.9446 28.1134 10.6976 27.8727 10.6976 27.5757C10.6976 27.2788 10.9446 27.0381 11.2493 27.0381H28.9798C29.2845 27.0381 29.5316 27.2788 29.5316 27.5757C29.5316 27.8727 29.2845 28.1134 28.9798 28.1134Z" fill="#138974"/>
<path d="M14.5968 28.1134H12.3897C12.085 28.1134 11.838 27.8727 11.838 27.5757V23.6331C11.838 23.1391 12.2505 22.7371 12.7576 22.7371H14.229C14.7361 22.7371 15.1486 23.1391 15.1486 23.6331V27.5757C15.1486 27.8727 14.9016 28.1134 14.5968 28.1134ZM12.9415 27.0381H14.0451V23.8123H12.9415V27.0381Z" fill="#138974"/>
<path d="M19.011 28.1134H16.8039C16.4992 28.1134 16.2521 27.8727 16.2521 27.5757V22.3428C16.2521 21.8487 16.6647 21.4468 17.1718 21.4468H18.6432C19.1503 21.4468 19.5628 21.8487 19.5628 22.3428V27.5757C19.5628 27.8727 19.3158 28.1134 19.011 28.1134ZM17.3557 27.0381H18.4592V22.522H17.3557V27.0381Z" fill="#138974"/>
<path d="M23.4252 28.1134H21.2181C20.9134 28.1134 20.6664 27.8727 20.6664 27.5757V20.3715C20.6664 19.8774 21.0789 19.4755 21.586 19.4755H23.0574C23.5645 19.4755 23.977 19.8774 23.977 20.3715V27.5757C23.977 27.8727 23.73 28.1134 23.4252 28.1134ZM21.7699 27.0381H22.8735V20.5507H21.7699V27.0381Z" fill="#138974"/>
<path d="M27.8394 28.1134H25.6323C25.3276 28.1134 25.0805 27.8727 25.0805 27.5757V16.7873C25.0805 16.2932 25.4931 15.8913 26.0002 15.8913H27.4716C27.9787 15.8913 28.3912 16.2932 28.3912 16.7873V27.5757C28.3912 27.8727 28.1442 28.1134 27.8394 28.1134ZM26.1841 27.0381H27.2876V16.9665H26.1841V27.0381Z" fill="#138974"/>
<path d="M11.2493 21.3143C10.9446 21.3143 10.6975 21.0736 10.6975 20.7767C10.6975 20.4798 10.9446 20.2391 11.2493 20.2391C14.494 20.2391 18.0268 19.0878 21.1968 16.9974C24.1132 15.0743 26.437 12.5532 27.5725 10.0805C27.697 9.80947 28.0234 9.68804 28.3015 9.80936C28.5797 9.93061 28.7043 10.2486 28.5798 10.5197C27.3627 13.1701 24.8972 15.8557 21.8153 17.8879C18.4646 20.0975 14.7122 21.3143 11.2493 21.3143Z" fill="#138974"/>
<path d="M28.9795 14.1233C28.7358 14.1233 28.5129 13.9649 28.4469 13.7247L27.6861 10.9584L24.847 11.6996C24.5526 11.7765 24.2501 11.6063 24.1713 11.3195C24.0924 11.0327 24.267 10.7379 24.5614 10.661L27.9335 9.78065C28.228 9.70377 28.5304 9.87401 28.6093 10.1608L29.5128 13.4464C29.5917 13.7332 29.417 14.028 29.1227 14.1049C29.0748 14.1173 29.0268 14.1233 28.9795 14.1233Z" fill="#138974"/>
</g>
<defs>
<clipPath id="clip0_36_540">
<rect width="18.8341" height="18.3512" fill="white" transform="translate(10.6975 9.76215)"/>
</clipPath>
</defs>
</svg>
