<svg width="181" height="195" viewBox="0 0 181 195" fill="none" xmlns="http://www.w3.org/2000/svg">
<path d="M89.1576 107.925C111.568 107.925 129.735 89.7579 129.735 67.3475C129.735 44.9372 111.568 26.77 89.1576 26.77C66.7473 26.77 48.5801 44.9372 48.5801 67.3475C48.5801 89.7579 66.7473 107.925 89.1576 107.925Z" fill="#A0616A"/>
<path d="M55.5723 117.011L64.0309 95.3949L107.734 88.8159L112.429 136.667L68.2565 137.607L55.5723 117.011Z" fill="#A0616A"/>
<path d="M130.128 74.8344C129.602 76.9442 128.537 81.9678 126.875 81.9925C125.517 82.0123 124.217 60.2187 125.573 56.6139C127.132 52.4726 123.036 47.2339 119.951 44.5447C114.404 39.7095 102.091 50.092 89.5698 45.3886C89.2379 45.2642 89.3041 45.2782 85.3502 43.7008C73.184 38.8466 72.5445 38.7065 71.8475 38.6372C65.9497 38.0537 58.7521 42.8799 55.813 48.7643C52.7576 54.8811 55.3104 60.1276 52.4373 74.9259C52.1025 76.6508 51.5767 79.1092 50.7494 79.1455C49.2371 79.2114 47.7605 71.134 47.3737 69.0184C45.7535 60.1548 44.1913 51.6092 47.3737 42.0129C47.7209 40.9663 49.8604 37.0813 54.1251 29.3541C60.2691 18.2224 63.3592 12.6355 64.2522 11.6317C70.6566 4.42955 82.3141 -2.14051 92.1016 0.660747C97.0485 2.07663 96.1615 4.35291 102.229 6.5682C113.041 10.5158 122.438 5.68801 124.171 9.09996C125.089 10.9073 122.52 12.3974 122.483 15.8513C122.419 21.7778 129.914 23.4903 134.298 29.3541C136.654 32.5064 140.688 32.5403 130.128 74.8344Z" fill="#2F2E41"/>
<path d="M180.4 152.724C178.764 154.561 177.068 156.361 175.31 158.119C151.701 181.728 120.31 194.73 86.922 194.73C58.0639 194.73 30.7002 185.017 8.56202 167.136C8.5479 167.127 8.5385 167.118 8.5245 167.103C5.58747 164.735 2.7444 162.216 0 159.557C0.0516259 159.143 0.108075 158.734 0.169109 158.33C0.55448 155.604 0.982182 153.006 1.4614 150.614C5.38532 131.009 57.016 110.426 58.3599 109.89C58.3788 109.885 58.3882 109.881 58.3882 109.881C58.3882 109.881 65.033 134.373 93.5056 134.059C112.899 133.847 109.14 109.881 109.14 109.881C109.14 109.881 109.375 109.928 109.817 110.022C115.418 111.211 154.309 119.754 169.652 131.413C174.328 134.965 177.683 142.531 180.094 151.554C180.197 151.939 180.296 152.334 180.4 152.724Z" fill="#5470C6"/>
</svg>
