<svg width="250" height="250" viewBox="0 0 250 250" fill="none" xmlns="http://www.w3.org/2000/svg">
<g clip-path="url(#clip0_441_1520)">
<path d="M127.236 163.195C149.646 163.195 167.813 145.027 167.813 122.617C167.813 100.207 149.646 82.0396 127.236 82.0396C104.825 82.0396 86.6582 100.207 86.6582 122.617C86.6582 145.027 104.825 163.195 127.236 163.195Z" fill="#A0616A"/>
<path d="M93.6504 172.281L102.109 150.664L145.812 144.085L150.508 191.936L106.335 192.876L93.6504 172.281Z" fill="#A0616A"/>
<path d="M168.207 130.104C167.68 132.214 166.615 137.237 164.953 137.262C163.595 137.282 162.295 115.488 163.651 111.883C165.21 107.742 161.114 102.503 158.029 99.8142C152.482 94.979 140.169 105.362 127.648 100.658C127.316 100.534 127.382 100.548 123.428 98.9703C111.262 94.1161 110.623 93.976 109.926 93.9068C104.028 93.3233 96.8302 98.1495 93.8911 104.034C90.8358 110.151 93.3886 115.397 90.5154 130.195C90.1806 131.92 89.6548 134.379 88.8275 134.415C87.3152 134.481 85.8386 126.404 85.4519 124.288C83.8316 115.424 82.2694 106.879 85.4519 97.2825C85.799 96.2358 87.9385 92.3508 92.2032 84.6236C98.3472 73.4919 101.437 67.9051 102.33 66.9013C108.735 59.6991 120.392 53.129 130.18 55.9303C135.127 57.3462 134.24 59.6224 140.307 61.8377C151.119 65.7854 160.516 60.9575 162.249 64.3695C163.167 66.1768 160.598 67.6669 160.561 71.1209C160.497 77.0473 167.992 78.7599 172.376 84.6236C174.732 87.776 178.766 87.8098 168.207 130.104Z" fill="#2F2E41"/>
<path d="M218.478 207.993C216.842 209.831 215.146 211.631 213.388 213.388C189.779 236.997 158.388 250 125 250C96.1421 250 68.7784 240.287 46.6401 222.406C46.626 222.397 46.6166 222.387 46.6026 222.373C43.6656 220.005 40.8225 217.486 38.0781 214.826C38.1298 214.413 38.1862 214.004 38.2472 213.599C38.6326 210.874 39.0603 208.275 39.5395 205.883C43.4634 186.278 95.0941 165.696 96.4381 165.16C96.4569 165.155 96.4663 165.15 96.4663 165.15C96.4663 165.15 103.111 189.643 131.584 189.328C150.978 189.117 147.218 165.15 147.218 165.15C147.218 165.15 147.453 165.197 147.895 165.291C153.496 166.48 192.387 175.023 207.73 186.682C212.406 190.235 215.761 197.801 218.172 206.823C218.275 207.209 218.374 207.603 218.478 207.993Z" fill="#6C63FF"/>
<path d="M213.388 36.6119C189.779 13.0032 158.388 0 125 0C91.6118 0 60.2209 13.0032 36.6118 36.6119C13.0029 60.221 0 91.6119 0 125C0 155.475 10.8318 184.286 30.6814 207.035C32.5752 209.211 34.5536 211.33 36.6118 213.389C37.0958 213.872 37.5846 214.356 38.078 214.826C40.8224 217.486 43.6655 220.005 46.6025 222.373C46.6165 222.387 46.6259 222.397 46.64 222.406C68.7783 240.287 96.142 250 125 250C158.388 250 189.779 236.997 213.388 213.389C215.146 211.631 216.842 209.831 218.478 207.994C238.858 185.099 250 155.907 250 125C250 91.6119 236.997 60.221 213.388 36.6119ZM218.172 206.823C214.474 211.029 210.498 214.986 206.269 218.656C198.247 225.635 189.319 231.593 179.69 236.34C176.311 238.008 172.848 239.525 169.305 240.884C155.54 246.166 140.601 249.06 125 249.06C109.944 249.06 95.5075 246.363 82.1476 241.429C76.6635 239.408 71.3628 237.007 66.2735 234.258C65.5263 233.854 64.7839 233.445 64.0461 233.027C60.1645 230.827 56.4098 228.426 52.8055 225.832C47.641 222.129 42.7726 218.036 38.2471 213.6C35.7096 211.114 33.2848 208.525 30.9681 205.832C12.2604 184.103 0.93985 155.851 0.93985 125C0.93985 56.5934 56.593 0.93985 125 0.93985C193.407 0.93985 249.06 56.5934 249.06 125C249.06 156.325 237.392 184.972 218.172 206.823Z" fill="#3F3D56"/>
</g>
<defs>
<clipPath id="clip0_441_1520">
<rect width="250" height="250" fill="white"/>
</clipPath>
</defs>
</svg>
