<svg width="275" height="219" viewBox="0 0 275 219" fill="none" xmlns="http://www.w3.org/2000/svg">
<path d="M191.493 213.16L186.403 213.159L183.981 193.716H191.494L191.493 213.16Z" fill="#FFB6B6"/>
<path d="M191.357 211.513L185.922 209.324L185.766 209.261L182.766 211.513C181.071 211.514 179.446 212.18 178.248 213.367C177.05 214.553 176.377 216.162 176.377 217.84V218.045H192.789V211.513H191.357Z" fill="#2F2E41"/>
<path d="M237.488 206.606L232.932 208.855L222.006 192.523L228.73 189.204L237.488 206.606Z" fill="#FFB6B6"/>
<path d="M237.908 204.558L236.743 205.131L236.623 205.191L230.782 205.637L230.606 205.649L228.934 208.988C228.183 209.359 227.513 209.872 226.963 210.499C226.412 211.126 225.992 211.854 225.726 212.642C225.46 213.43 225.353 214.262 225.412 215.091C225.471 215.92 225.694 216.729 226.069 217.472L226.161 217.654L240.849 210.407L237.908 204.558Z" fill="#2F2E41"/>
<path d="M188.041 108.653L216.11 109.626L216.305 109.344C216.305 109.344 218.699 114.877 218.699 119.619C218.699 121.195 217.592 131.507 218.155 133.458C218.225 133.701 217.743 134.295 217.901 135.425C218.004 136.158 218.569 135.594 218.699 136.611C218.793 137.34 217.797 137.743 217.901 138.586C218.015 139.508 219.384 142.494 219.508 143.519C220.82 154.436 222.567 170.251 222.567 170.251C222.567 170.251 229.585 188.865 231.069 189.167C233.561 189.675 235.244 194.161 233.863 195.094C233.205 195.539 224.707 198.528 224.707 198.528C224.24 198.612 222.779 197.886 223.71 196.17C223.881 195.854 222.859 196.658 222.69 196.28C222.509 195.878 222.864 194.278 222.657 193.831C220.8 189.823 217.948 184.269 215.246 181.416C211.253 177.202 208.725 171.835 208.03 166.098L201.831 132.064L199.707 141.608L197.95 143.328L198.432 147.339L198.349 151.232L193.959 167.433C193.959 167.433 193.301 197.69 194.358 198.651C194.931 199.171 197.361 205.581 192.762 206.159L184.407 205.521C184.407 205.521 183.281 203.171 183.844 202.335C184.407 201.499 184.373 201.727 183.686 200.359C183 198.991 183.281 196.672 183.281 196.672C182.187 185.776 181.755 174.824 181.988 163.877C182.407 145.896 184.945 125.239 184.945 124.818C184.966 124.388 184.886 123.959 184.711 123.564V122.429L185.789 118.408L188.041 108.653Z" fill="#2F2E41"/>
<path d="M227.54 112.052C233.662 112.052 238.625 107.137 238.625 101.074C238.625 95.0116 233.662 90.0968 227.54 90.0968C221.418 90.0968 216.455 95.0116 216.455 101.074C216.455 107.137 221.418 112.052 227.54 112.052Z" fill="#6C63FF"/>
<path d="M226.027 106.788C225.835 106.788 225.646 106.743 225.475 106.659C225.304 106.574 225.155 106.451 225.04 106.299L222.016 102.306C221.919 102.178 221.848 102.032 221.808 101.876C221.768 101.721 221.759 101.559 221.782 101.401C221.805 101.242 221.859 101.089 221.942 100.951C222.024 100.813 222.133 100.693 222.263 100.596C222.392 100.5 222.54 100.43 222.697 100.39C222.853 100.351 223.017 100.342 223.177 100.364C223.337 100.387 223.492 100.441 223.631 100.523C223.77 100.604 223.892 100.712 223.989 100.841L225.968 103.453L231.049 95.9046C231.139 95.771 231.254 95.6562 231.389 95.5668C231.524 95.4775 231.675 95.4152 231.833 95.3837C231.992 95.3521 232.156 95.3519 232.315 95.383C232.474 95.4141 232.625 95.4759 232.76 95.565C232.895 95.654 233.01 95.7684 233.101 95.9017C233.191 96.0351 233.253 96.1847 233.285 96.342C233.317 96.4994 233.317 96.6614 233.285 96.8188C233.254 96.9762 233.191 97.1258 233.101 97.2593L227.053 106.244C226.943 106.406 226.796 106.54 226.624 106.635C226.451 106.73 226.258 106.782 226.061 106.787C226.05 106.787 226.038 106.788 226.027 106.788Z" fill="white"/>
<path d="M233.022 112.68C233.13 112.231 233.138 111.764 233.044 111.312C232.95 110.86 232.757 110.434 232.479 110.063C232.201 109.693 231.844 109.388 231.434 109.169C231.023 108.95 230.57 108.823 230.104 108.796L224.424 89.6318L220.582 94.0477L226.695 111.992C226.702 112.769 226.997 113.516 227.523 114.092C228.049 114.669 228.77 115.034 229.55 115.119C230.33 115.203 231.114 115.002 231.754 114.552C232.394 114.103 232.845 113.437 233.022 112.68Z" fill="#FFB8B8"/>
<path d="M229.014 103.33L228.276 100.651L229.122 99.0505L229.058 98.8648L228.802 98.1456L227.478 97.0944L227.953 95.7548L226.277 91.0406L225.866 90.2226L216.245 71.0928L213.938 66.505L213.404 65.6751L211.74 63.0908L209.465 59.562C209.104 58.998 208.632 58.5108 208.079 58.1289C207.525 57.747 206.901 57.4779 206.241 57.3373C206.028 57.2908 205.812 57.2578 205.595 57.2385L205.439 57.2266C205.051 57.2054 204.661 57.2279 204.278 57.2938H204.27C203.594 57.4098 202.95 57.6627 202.378 58.0367C201.928 58.3254 201.527 58.6828 201.189 59.0957C200.412 60.05 200.009 61.2494 200.052 62.4744L200.124 64.4027L200.196 66.1572L203.571 72.2032L203.791 72.5984L203.795 72.6102L214.182 91.2223L217.314 96.8336L217.789 97.6872L219.896 99.0702L219.333 100.461L219.497 102.627L221.289 103.966L223.886 106.578L223.99 106.792L224.788 106.393L224.864 106.353L225.044 106.302L227.514 105.563L229.014 105.116L229.062 105.1L229.473 104.998L229.014 103.33Z" fill="#E6E6E6"/>
<path d="M271.715 190.329C270.963 189.381 269.941 188.679 268.782 188.312C267.622 187.945 266.379 187.93 265.211 188.27L264.956 188.345L262.665 197.201C262.322 195.881 261.588 192.901 261.125 189.985L261.085 189.744L260.857 189.843C258.463 190.891 256.212 192.235 254.158 193.842C250.518 196.733 247.558 200.374 245.484 204.512C243.409 208.65 242.269 213.186 242.143 217.804L242.139 217.974L242.135 218.081L242.438 217.974L248.946 215.671C251.828 215.922 254.73 215.533 257.44 214.532C260.15 213.531 262.601 211.944 264.612 209.885C267.242 207.139 269.046 203.606 270.789 200.188C271.3 199.192 271.823 198.165 272.358 197.177C272.954 196.103 273.212 194.876 273.097 193.655C272.983 192.435 272.501 191.276 271.715 190.329Z" fill="#B6ACAC"/>
<path d="M104.701 43.3255H103.903V12.881H161.627V13.6714H104.701V43.3255Z" fill="black"/>
<path d="M170.478 21.9552C176.6 21.9552 181.563 17.0403 181.563 10.9776C181.563 4.91483 176.6 0 170.478 0C164.356 0 159.393 4.91483 159.393 10.9776C159.393 17.0403 164.356 21.9552 170.478 21.9552Z" fill="#6C63FF"/>
<path d="M168.965 16.6909C168.774 16.6909 168.585 16.6467 168.414 16.5619C168.243 16.4771 168.094 16.354 167.979 16.2023L164.955 12.2091C164.857 12.0809 164.787 11.9349 164.747 11.7795C164.706 11.6242 164.697 11.4625 164.72 11.3038C164.743 11.1451 164.798 10.9923 164.88 10.8544C164.963 10.7164 165.072 10.5958 165.201 10.4996C165.331 10.4034 165.478 10.3334 165.635 10.2936C165.792 10.2538 165.955 10.245 166.115 10.2677C166.276 10.2904 166.43 10.3441 166.569 10.4258C166.709 10.5075 166.83 10.6156 166.928 10.7439L168.906 13.3562L173.988 5.80781C174.077 5.67422 174.193 5.55946 174.327 5.47009C174.462 5.38072 174.613 5.31848 174.772 5.28695C174.931 5.25541 175.094 5.25518 175.253 5.28628C175.412 5.31739 175.564 5.37921 175.698 5.46821C175.833 5.55721 175.949 5.67166 176.039 5.805C176.129 5.93834 176.192 6.08796 176.224 6.24531C176.255 6.40266 176.255 6.56466 176.224 6.72204C176.192 6.87942 176.13 7.0291 176.04 7.16253L169.991 16.1471C169.882 16.3096 169.735 16.4437 169.562 16.5383C169.39 16.6328 169.197 16.685 168.999 16.6905C168.988 16.6907 168.977 16.6909 168.965 16.6909Z" fill="white"/>
<path d="M65.5949 117.238H64.7969V147.683H122.52V146.892H65.5949V117.238Z" fill="black"/>
<path d="M131.372 158.681C137.494 158.681 142.458 153.766 142.458 147.703C142.458 141.641 137.494 136.726 131.372 136.726C125.25 136.726 120.287 141.641 120.287 147.703C120.287 153.766 125.25 158.681 131.372 158.681Z" fill="#6C63FF"/>
<path d="M129.86 153.417C129.668 153.417 129.479 153.373 129.308 153.288C129.137 153.203 128.988 153.08 128.873 152.928L125.849 148.935C125.752 148.807 125.681 148.661 125.641 148.505C125.601 148.35 125.592 148.188 125.615 148.03C125.638 147.871 125.692 147.718 125.775 147.58C125.857 147.442 125.966 147.322 126.096 147.226C126.225 147.129 126.373 147.059 126.53 147.02C126.686 146.98 126.85 146.971 127.01 146.994C127.17 147.016 127.325 147.07 127.464 147.152C127.603 147.233 127.725 147.342 127.822 147.47L129.801 150.082L134.882 142.534C134.972 142.4 135.087 142.285 135.222 142.196C135.357 142.107 135.508 142.044 135.666 142.013C135.825 141.981 135.989 141.981 136.148 142.012C136.307 142.043 136.458 142.105 136.593 142.194C136.728 142.283 136.843 142.398 136.934 142.531C137.024 142.664 137.086 142.814 137.118 142.971C137.15 143.129 137.15 143.291 137.118 143.448C137.087 143.605 137.024 143.755 136.934 143.888L130.886 152.873C130.776 153.035 130.629 153.17 130.457 153.264C130.284 153.359 130.091 153.411 129.894 153.416C129.883 153.417 129.871 153.417 129.86 153.417Z" fill="white"/>
<path d="M219.098 118.358C219.11 119.19 218.975 120.018 218.699 120.804L218.64 120.792C211.552 122.006 205.23 122.205 202.306 117.897C198.49 113.085 193.242 113.14 187.387 115.252L186.693 114.509L185.512 113.249L186.597 112.031L185.512 109.684L186.418 106.788L187.575 106.578L187.263 104.085L186.777 102.627L188.205 101.074L189.418 97.1971L188.544 89.0845C187.348 77.9643 189.666 66.7506 195.176 56.9894L198.492 54.0415L199.869 52.8165L201.717 49.4023L203.668 49.6276L208.951 50.2322L209.131 50.659L210.427 53.757L217.259 61.024L216.952 64.0905L216.816 65.4419L216.716 66.414L216.245 71.0928L214.326 90.2067L214.182 91.2223L212.638 102.212C215.148 104.614 217.367 109.242 218.432 113.47C218.552 113.94 218.213 114.418 218.3 114.877C218.424 115.525 218.963 116.141 219.023 116.746C219.078 117.281 219.104 117.82 219.098 118.358Z" fill="#E6E6E6"/>
<path d="M205.568 48.1786C210.636 48.1786 214.744 44.1102 214.744 39.0914C214.744 34.0727 210.636 30.0042 205.568 30.0042C200.5 30.0042 196.392 34.0727 196.392 39.0914C196.392 44.1102 200.5 48.1786 205.568 48.1786Z" fill="#FFB6B6"/>
<path d="M216.629 36.6123C216.086 34.9356 214.597 33.517 212.828 33.3316C212.962 32.218 212.785 31.0893 212.316 30.0684C211.847 29.0475 211.105 28.1737 210.169 27.5419C209.233 26.9101 208.14 26.5446 207.01 26.4853C205.879 26.426 204.753 26.6751 203.755 27.2054C203.543 26.9531 203.269 26.7593 202.959 26.6427C202.649 26.5262 202.314 26.4908 201.987 26.54C201.332 26.6469 200.714 26.9148 200.191 27.3193C198.891 28.2609 197.873 29.534 197.245 31.003C196.618 32.4721 196.405 34.0821 196.628 35.6617C196.624 34.8604 196.982 36.4107 198.01 36.5477C198.867 36.7183 199.682 37.0513 200.411 37.5285C201.14 38.0055 201.953 38.3429 202.808 38.5231C203.67 38.648 203.892 42.0717 203.276 44.2767C203.16 44.6946 203.1 45.2553 203.489 45.4544C203.968 45.6997 204.452 45.0831 204.988 45.0229C205.228 45.0192 205.461 45.108 205.637 45.2707C205.812 45.4334 205.917 45.6572 205.929 45.895C205.93 46.1335 205.873 46.3688 205.763 46.5811C205.653 46.7934 205.494 46.9767 205.298 47.1157C204.904 47.3896 204.468 47.5988 204.007 47.7351L204.161 47.9526C204.297 48.2012 204.515 48.3955 204.779 48.5021C205.043 48.6087 205.337 48.621 205.609 48.5369C206.223 49.2699 212.546 47.2347 212.854 45.8969C214.179 44.7152 215.279 43.3083 216.102 41.7426C216.925 40.1595 217.113 38.3271 216.629 36.6123Z" fill="#2F2E41"/>
<path d="M224.05 64.2881C223.923 65.3472 222.921 66.1375 221.868 66.3588C221.332 66.4608 220.783 66.4702 220.244 66.3864C219.717 66.309 219.197 66.1941 218.687 66.0427C218.057 65.8648 217.433 65.6646 216.816 65.442C215.053 64.8186 213.353 64.0314 211.74 63.0908C210.52 62.3855 209.352 61.5959 208.245 60.7277C207.67 60.2772 207.113 59.807 206.573 59.317L207.247 59.6331C206.645 58.831 206.042 58.0288 205.439 57.2266C204.857 56.4521 204.276 55.6776 203.696 54.9031C203.66 54.8556 203.632 54.824 203.62 54.8082V54.8043C203.353 54.4526 203.089 54.1009 202.826 53.7492C202.032 52.6941 201.25 51.1451 202.163 50.1927C202.358 50.0073 202.595 49.8701 202.853 49.7925C203.112 49.7149 203.386 49.699 203.652 49.7462C203.938 49.783 204.215 49.8714 204.47 50.007C205.168 50.4546 205.76 51.0464 206.206 51.7418C206.828 50.8447 208.037 50.5128 209.131 50.659C209.19 50.663 209.246 50.6709 209.302 50.6788C210.439 50.8724 210.93 50.2639 211.916 50.8605C212.375 51.1372 212.654 52.5597 213.113 52.8364C213.372 52.9944 214.334 53.2315 214.597 53.3935C215.116 53.7097 214.984 54.8912 215.507 55.2073C215.894 55.4405 216.932 54.8122 217.319 55.0453C217.726 55.2943 218.292 56.9381 218.699 57.1831C219.509 57.6771 220.16 56.7761 220.97 57.2661C222.011 57.9023 223.121 58.6097 223.56 59.7398C223.947 60.7356 223.448 62.0989 222.486 62.3835C222.946 62.4378 223.366 62.6669 223.658 63.0223C223.949 63.3778 224.09 63.8317 224.05 64.2881Z" fill="#E6E6E6"/>
<path opacity="0.2" d="M216.816 65.442L216.716 66.4141C215.585 66.3062 214.472 66.0579 213.404 65.6751C211.997 65.2076 210.777 64.3095 209.92 63.1105C209.377 62.3044 208.811 61.5022 208.244 60.7277C207.302 59.4316 206.369 58.2224 205.595 57.2384C204.649 56.049 203.939 55.1875 203.695 54.903C203.659 54.8556 203.631 54.824 203.619 54.8082L203.607 54.7963L203.619 54.8042C208.361 60.7469 212.839 64.1737 216.951 64.0905C216.951 64.0905 217.434 65.6633 216.816 65.442Z" fill="black"/>
<path d="M173.426 17.8534C173.309 18.3001 173.293 18.7668 173.378 19.2205C173.463 19.6743 173.647 20.104 173.918 20.4795C174.189 20.855 174.54 21.1671 174.946 21.3938C175.351 21.6206 175.803 21.7564 176.267 21.7918L181.572 41.0616L185.5 36.7202L179.738 18.6626C179.747 17.8857 179.467 17.1327 178.952 16.5464C178.437 15.9601 177.723 15.5812 176.945 15.4815C176.167 15.3817 175.379 15.5681 174.73 16.0053C174.082 16.4424 173.618 17.1 173.426 17.8534Z" fill="#FFB8B8"/>
<path d="M204.569 67.1293L204.533 65.3748L201.19 59.0957L201.066 58.8665L201.058 58.8547L198.492 54.0416L186.111 30.7958L184.781 30.3121L184.848 28.4239L184.781 26.3605L183.184 25.2999L182.503 24.0212L181.537 24.2938H181.533L181.505 24.3017L177.283 25.4754H177.279L176.402 25.9654L175.603 28.3363L175.429 29.4588L175.603 31.4976L177.599 31.8928L176.938 33.9834L178.943 39.9975C181.453 50.5088 184.881 59.5817 190.799 64.7623L191.286 65.5526L195.136 71.7922C195.662 72.6458 196.431 73.3261 197.346 73.7473C198.261 74.1686 199.282 74.3119 200.28 74.1592H200.284C200.961 74.0551 201.61 73.8158 202.191 73.4559C202.727 73.1284 203.196 72.7034 203.572 72.2032C204.259 71.2989 204.623 70.1935 204.605 69.0617L204.569 67.1293Z" fill="#E6E6E6"/>
<path d="M274.525 218.879L166.087 219C165.961 219 165.841 218.95 165.751 218.862C165.662 218.774 165.612 218.654 165.612 218.529C165.612 218.405 165.662 218.285 165.751 218.197C165.841 218.109 165.961 218.059 166.087 218.059L274.525 217.938C274.651 217.937 274.772 217.987 274.861 218.075C274.95 218.164 275 218.283 275 218.408C275 218.533 274.95 218.652 274.861 218.741C274.772 218.829 274.651 218.879 274.525 218.879Z" fill="#CACACA"/>
<path d="M33.3709 60.7396C33.3643 54.7995 35.656 49.0827 39.7748 44.7645L25.6396 25.4982C25.0578 24.7045 24.31 24.0442 23.4473 23.5625C22.5846 23.0807 21.6271 22.7886 20.6402 22.7062C19.6532 22.6239 18.6599 22.7531 17.728 23.0851C16.796 23.4171 15.9472 23.9441 15.2394 24.6302C10.3973 29.3045 6.55313 34.8948 3.93528 41.0691C1.31743 47.2434 -0.0207471 53.8757 0.000243158 60.5721C0.000282584 63.1008 0.190655 65.6261 0.569771 68.1268C0.718499 69.1155 1.08322 70.0602 1.6385 70.8949C2.19378 71.7297 2.92626 72.4345 3.78485 72.9601C4.63375 73.4804 5.58704 73.811 6.57825 73.9289C7.56945 74.0469 8.5747 73.9493 9.5239 73.6429L33.9311 65.7895C33.5597 64.1313 33.3718 62.438 33.3709 60.7396Z" fill="#F2F2F2"/>
<path d="M34.669 68.3737L9.29438 76.5383C8.35529 76.8389 7.49242 77.336 6.76426 77.9957C6.03609 78.6554 5.45963 79.4624 5.07395 80.3621C4.68826 81.2617 4.50236 82.2329 4.52885 83.2099C4.55533 84.1869 4.79358 85.1469 5.22745 86.0247C8.841 93.2846 14.1678 99.5755 20.7569 104.365C27.3459 109.154 35.0032 112.3 43.0805 113.537C44.0642 113.687 45.069 113.624 46.0259 113.353C46.9828 113.082 47.8692 112.609 48.6243 111.967C49.3784 111.327 49.9836 110.533 50.3984 109.639C50.8132 108.745 51.0277 107.773 51.0273 106.789V83.3194C47.2691 82.3537 43.8098 80.4844 40.9562 77.8772C38.1026 75.2701 35.943 72.0056 34.669 68.3737Z" fill="#E6E6E6"/>
<path d="M110.977 83.0376C110.548 82.0302 109.906 81.126 109.093 80.3865C108.28 79.6469 107.316 79.0894 106.266 78.7518L78.5917 69.8472C76.9762 73.6095 74.3908 76.8855 71.0945 79.3469C67.7982 81.8083 63.9066 83.3688 59.8096 83.8721V112.426C59.8101 113.522 60.05 114.605 60.5126 115.601C60.9752 116.597 61.6497 117.482 62.4899 118.195C63.3301 118.909 64.3161 119.434 65.3804 119.735C66.4446 120.036 67.562 120.105 68.656 119.938C77.6474 118.561 86.1714 115.059 93.5063 109.727C100.841 104.396 106.771 97.3936 110.794 89.312C111.277 88.3405 111.544 87.2772 111.575 86.1945C111.607 85.1119 111.403 84.0351 110.977 83.0376Z" fill="#3F3D56"/>
<path d="M104.101 17.5425C103.313 16.7787 102.368 16.1921 101.331 15.8224C100.294 15.4528 99.1878 15.309 98.0891 15.4007C96.9904 15.4924 95.9246 15.8175 94.9642 16.3538C94.0038 16.8902 93.1715 17.6252 92.5238 18.5088L73.6035 44.2975C75.7801 46.4583 77.5057 49.0224 78.6816 51.8435C79.8575 54.6647 80.4607 57.6875 80.4569 60.7396C80.4569 61.3074 80.4292 61.8683 80.3889 62.4259L110.464 72.1032C111.527 72.4431 112.653 72.5493 113.762 72.4145C114.871 72.2797 115.937 71.907 116.886 71.3225C117.835 70.738 118.643 69.9556 119.256 69.03C119.868 68.1043 120.269 67.0576 120.431 65.9627C120.853 63.1788 121.065 60.3676 121.065 57.5524C121.089 50.0981 119.599 42.7151 116.685 35.842C113.771 28.969 109.491 22.7459 104.101 17.5425Z" fill="#6C63FF"/>
<path d="M56.9139 37.4251C60.9645 37.4205 64.947 38.4561 68.4727 40.4308L80.0208 24.6906C80.6094 23.8889 81.0155 22.9704 81.2108 21.9983C81.4061 21.0261 81.3861 20.0236 81.1522 19.0599C80.9257 18.1146 80.4948 17.2291 79.8892 16.4648C79.2835 15.7004 78.5176 15.0752 77.6443 14.6325C70.5146 11.0417 62.631 9.16448 54.6322 9.15295C46.6334 9.14141 38.7443 10.9959 31.604 14.5661C30.7036 15.016 29.9127 15.6545 29.2861 16.4371C28.6595 17.2198 28.2123 18.128 27.9753 19.0989C27.7416 20.0559 27.7209 21.0517 27.9145 22.0175C28.108 22.9832 28.5114 23.8957 29.0964 24.6917L42.1968 42.5479C46.3679 39.2261 51.5614 37.4183 56.9139 37.4251Z" fill="#E6E6E6"/>
</svg>
