<svg width="111" height="139" viewBox="0 0 111 139" fill="none" xmlns="http://www.w3.org/2000/svg">
<g clip-path="url(#clip0_187_7679)">
<path d="M110.396 127.353C110.323 127.13 109.769 127.228 109.716 127.028C109.663 126.829 110.194 126.662 110.601 126.102C110.675 126 111.137 125.363 110.96 125.095C110.623 124.587 108.284 125.852 107.722 125.142C107.599 124.986 107.548 124.719 107.181 124.221C107.035 124.023 106.941 123.927 106.829 123.93C106.67 123.934 106.613 124.133 106.364 124.493C105.989 125.033 105.854 124.965 105.607 125.407C105.424 125.736 105.402 125.946 105.27 125.958C105.083 125.975 105.006 125.567 104.778 125.551C104.545 125.534 104.312 125.939 104.196 126.254C103.979 126.847 104.113 127.299 104.143 127.751C104.176 128.241 104.1 128.959 103.567 129.88L98.541 137.887C99.6203 136.255 102.684 131.804 103.919 130.171C104.275 129.7 104.658 129.227 105.247 129.138C105.815 129.052 106.505 129.333 107.469 129.316C107.581 129.314 107.895 129.305 107.971 129.139C108.034 129.002 107.877 128.882 107.934 128.753C108.011 128.58 108.354 128.655 108.822 128.54C109.152 128.459 109.376 128.325 109.569 128.209C109.627 128.175 110.493 127.65 110.396 127.353Z" fill="#A77437"/>
<path d="M97.2321 129.223C97.1014 129.194 96.9901 129.494 96.8767 129.462C96.7638 129.431 96.835 129.122 96.6772 128.76C96.6487 128.695 96.4694 128.284 96.2866 128.294C95.9402 128.312 95.8862 129.826 95.3756 129.897C95.2635 129.912 95.1175 129.86 94.7672 129.897C94.6278 129.911 94.5538 129.929 94.5229 129.985C94.479 130.064 94.5602 130.15 94.6649 130.376C94.8218 130.716 94.7495 130.762 94.8955 131.011C95.0039 131.196 95.1006 131.267 95.0686 131.335C95.0232 131.432 94.8003 131.352 94.7266 131.46C94.6514 131.569 94.7824 131.8 94.904 131.948C95.1322 132.226 95.3932 132.29 95.6232 132.406C95.8733 132.532 96.2037 132.776 96.5021 133.303L98.982 138.08C98.4923 137.08 97.1916 134.292 96.7464 133.215C96.6179 132.904 96.4961 132.579 96.6225 132.264C96.7441 131.961 97.0811 131.703 97.3512 131.225C97.3827 131.17 97.4685 131.013 97.409 130.928C97.3598 130.857 97.2561 130.9 97.2092 130.835C97.1463 130.747 97.2818 130.6 97.3604 130.337C97.4158 130.152 97.4148 130.003 97.4139 129.875C97.4136 129.837 97.406 129.261 97.2321 129.223Z" fill="#A77437"/>
<path d="M99.7061 130.388L99.784 129.668L99.8318 129.623C100.053 129.414 100.191 129.193 100.243 128.965C100.252 128.928 100.258 128.892 100.264 128.854C100.29 128.707 100.323 128.523 100.465 128.332C100.544 128.225 100.755 127.984 100.972 128.068C101.031 128.09 101.07 128.128 101.098 128.169C101.105 128.162 101.112 128.155 101.119 128.147C101.213 128.056 101.279 128.023 101.342 127.99C101.391 127.966 101.441 127.94 101.526 127.872C101.563 127.843 101.593 127.816 101.618 127.793C101.694 127.725 101.792 127.646 101.925 127.677C102.067 127.716 102.115 127.851 102.148 127.94C102.205 128.1 102.223 128.209 102.234 128.282C102.239 128.309 102.244 128.339 102.247 128.348C102.278 128.426 102.667 128.447 102.814 128.455C103.143 128.473 103.427 128.488 103.496 128.714C103.545 128.875 103.442 129.05 103.183 129.25C103.102 129.312 103.021 129.355 102.95 129.387C102.994 129.428 103.028 129.483 103.03 129.559C103.035 129.739 102.851 129.877 102.482 129.97C102.391 129.993 102.268 130.024 102.107 130.016C102.031 130.013 101.964 130.001 101.908 129.99C101.899 130.022 101.884 130.056 101.856 130.088C101.774 130.182 101.642 130.206 101.462 130.153C101.264 130.097 101.107 130.022 100.969 129.956C100.848 129.899 100.744 129.849 100.656 129.836C100.494 129.813 100.342 129.914 100.161 130.047L99.7061 130.388Z" fill="#A77437"/>
<path d="M101.004 126.289L100.288 126.396L100.232 126.361C99.9735 126.2 99.7242 126.123 99.4905 126.13C99.4533 126.131 99.4163 126.135 99.3785 126.138C99.2288 126.15 99.0427 126.166 98.8218 126.077C98.6986 126.027 98.4125 125.884 98.4387 125.653C98.4451 125.59 98.4718 125.542 98.5038 125.506C98.4953 125.501 98.4868 125.496 98.4775 125.49C98.3655 125.423 98.3166 125.367 98.2694 125.314C98.2331 125.274 98.1958 125.232 98.1086 125.167C98.0703 125.138 98.0368 125.116 98.0087 125.098C97.9235 125.041 97.8217 124.967 97.8184 124.83C97.8199 124.683 97.9382 124.602 98.0165 124.548C98.1561 124.452 98.2577 124.407 98.3251 124.377C98.3497 124.367 98.3774 124.354 98.3859 124.348C98.4536 124.298 98.3745 123.917 98.3455 123.773C98.2793 123.451 98.2221 123.171 98.4226 123.048C98.566 122.96 98.762 123.014 99.0207 123.215C99.1012 123.277 99.1632 123.345 99.212 123.405C99.2406 123.352 99.2858 123.305 99.3587 123.284C99.5313 123.233 99.7115 123.377 99.8948 123.709C99.9407 123.792 100.002 123.903 100.035 124.061C100.051 124.135 100.056 124.203 100.06 124.26C100.094 124.26 100.13 124.267 100.168 124.286C100.279 124.341 100.336 124.463 100.33 124.65C100.327 124.856 100.294 125.027 100.266 125.177C100.24 125.309 100.219 125.422 100.228 125.51C100.248 125.673 100.383 125.794 100.558 125.936L101.004 126.289Z" fill="#A77437"/>
<path d="M101.1 124.139L101.178 123.419L101.225 123.374C101.447 123.165 101.585 122.944 101.637 122.716C101.645 122.679 101.651 122.643 101.658 122.605C101.684 122.457 101.716 122.273 101.858 122.082C101.938 121.976 102.149 121.735 102.366 121.819C102.424 121.841 102.464 121.879 102.491 121.92C102.498 121.913 102.505 121.906 102.513 121.898C102.607 121.807 102.672 121.774 102.736 121.741C102.784 121.717 102.834 121.691 102.919 121.623C102.957 121.594 102.986 121.567 103.012 121.544C103.088 121.476 103.185 121.396 103.319 121.428C103.46 121.467 103.509 121.602 103.541 121.691C103.599 121.851 103.616 121.96 103.628 122.033C103.632 122.06 103.637 122.089 103.641 122.099C103.672 122.177 104.061 122.197 104.207 122.206C104.536 122.224 104.821 122.239 104.889 122.464C104.938 122.626 104.836 122.801 104.576 123.001C104.495 123.063 104.414 123.106 104.344 123.138C104.387 123.179 104.422 123.234 104.424 123.31C104.429 123.49 104.244 123.628 103.876 123.721C103.785 123.744 103.661 123.775 103.5 123.767C103.424 123.764 103.358 123.752 103.301 123.741C103.293 123.773 103.277 123.807 103.249 123.839C103.168 123.933 103.035 123.956 102.855 123.904C102.657 123.848 102.5 123.773 102.362 123.707C102.241 123.649 102.137 123.6 102.05 123.587C101.887 123.564 101.736 123.664 101.554 123.798L101.1 124.139Z" fill="#A77437"/>
<path d="M98.779 137.928L98.6525 137.803L98.4765 137.785C98.4774 137.768 98.4762 137.73 98.4749 137.669C98.4682 137.338 98.4471 136.33 98.5875 134.782C98.6854 133.702 98.8491 132.605 99.074 131.521C99.2993 130.436 99.5332 129.629 99.721 128.98C99.8627 128.49 100.006 128.026 100.145 127.574C100.518 126.366 100.87 125.225 101.088 123.923C101.137 123.632 101.238 123.028 101.031 122.314C100.91 121.9 100.704 121.51 100.418 121.156L100.695 120.932C101.011 121.323 101.239 121.755 101.372 122.215C101.602 123.006 101.492 123.665 101.439 123.982C101.217 125.307 100.862 126.459 100.485 127.679C100.346 128.129 100.204 128.591 100.063 129.079C99.8765 129.722 99.6448 130.522 99.4224 131.593C99.2001 132.664 99.0384 133.747 98.9416 134.814C98.8031 136.343 98.8239 137.336 98.8307 137.662C98.8342 137.836 98.835 137.872 98.779 137.928Z" fill="#A77437"/>
<path d="M99.6576 121.565C99.6434 121.562 99.629 121.558 99.6147 121.554C99.3226 121.472 99.0883 121.234 98.9181 120.847C98.8384 120.665 98.8196 120.473 98.7822 120.09C98.7763 120.032 98.7503 119.733 98.7822 119.338C98.803 119.079 98.8308 118.976 98.9011 118.894C98.9792 118.803 99.0844 118.751 99.1956 118.725C99.1986 118.691 99.2098 118.658 99.232 118.626C99.3234 118.494 99.4765 118.548 99.5595 118.577C99.6014 118.592 99.6535 118.611 99.7122 118.621C99.8044 118.636 99.8594 118.62 99.9427 118.596C100.022 118.573 100.122 118.544 100.259 118.547C100.529 118.55 100.729 118.672 100.795 118.712C101.143 118.921 101.263 119.254 101.402 119.64C101.429 119.717 101.521 119.997 101.542 120.357C101.557 120.616 101.523 120.723 101.484 120.799C101.405 120.955 101.283 121.027 100.98 121.18C100.663 121.339 100.505 121.419 100.374 121.46C100.072 121.555 99.8814 121.615 99.6576 121.565Z" fill="#A77437"/>
<path d="M18.501 127.353C18.428 127.13 17.8749 127.228 17.8218 127.028C17.7688 126.829 18.2996 126.662 18.7067 126.102C18.7801 126 19.2427 125.363 19.0653 125.095C18.729 124.587 16.3891 125.852 15.8275 125.142C15.7042 124.986 15.6535 124.719 15.2863 124.221C15.1402 124.023 15.0465 123.927 14.9345 123.93C14.7757 123.934 14.7188 124.133 14.4691 124.493C14.0946 125.033 13.9594 124.965 13.7127 125.407C13.5296 125.736 13.5079 125.946 13.3758 125.958C13.1889 125.975 13.1117 125.567 12.8833 125.551C12.6503 125.534 12.4171 125.939 12.3015 126.254C12.0846 126.847 12.2189 127.299 12.2487 127.751C12.281 128.241 12.205 128.959 11.6722 129.88L6.64648 137.887C7.72581 136.255 10.7896 131.804 12.024 130.171C12.3803 129.7 12.7633 129.227 13.3527 129.138C13.9201 129.052 14.6106 129.333 15.5743 129.316C15.6869 129.314 16.0001 129.305 16.0763 129.139C16.1393 129.002 15.9829 128.882 16.0398 128.753C16.1161 128.58 16.4595 128.655 16.9274 128.54C17.2573 128.459 17.4815 128.325 17.6743 128.209C17.7324 128.175 18.5981 127.65 18.501 127.353Z" fill="#A77437"/>
<path d="M5.33756 129.223C5.20689 129.194 5.09556 129.494 4.9822 129.462C4.86925 129.431 4.94048 129.122 4.78265 128.76C4.75419 128.695 4.57483 128.284 4.39205 128.294C4.04562 128.312 3.99167 129.826 3.48104 129.897C3.36898 129.912 3.22301 129.86 2.87266 129.897C2.73328 129.911 2.6593 129.929 2.62837 129.985C2.5845 130.064 2.66565 130.15 2.77032 130.376C2.92729 130.716 2.85502 130.762 3.00098 131.011C3.10934 131.196 3.20607 131.267 3.17403 131.335C3.12871 131.432 2.90572 131.352 2.83205 131.46C2.75687 131.569 2.88789 131.8 3.00948 131.948C3.23764 132.226 3.49863 132.29 3.7287 132.406C3.97872 132.532 4.30913 132.776 4.6076 133.303L7.08752 138.08C6.59777 137.08 5.29708 134.292 4.85188 133.215C4.72336 132.904 4.60157 132.579 4.72793 132.264C4.84959 131.961 5.1866 131.703 5.45665 131.225C5.48819 131.17 5.574 131.013 5.5145 130.928C5.46531 130.857 5.36161 130.9 5.3147 130.835C5.25179 130.747 5.38729 130.6 5.46589 130.337C5.52131 130.152 5.52027 130.003 5.51937 129.875C5.5191 129.837 5.51149 129.261 5.33756 129.223Z" fill="#A77437"/>
<path d="M7.81152 130.388L7.88947 129.668L7.93728 129.623C8.15848 129.414 8.29685 129.193 8.34876 128.965C8.35702 128.929 8.36341 128.892 8.36996 128.855C8.39585 128.707 8.42798 128.523 8.57025 128.332C8.64987 128.225 8.86048 127.985 9.0777 128.069C9.13633 128.091 9.1759 128.129 9.20339 128.169C9.21029 128.162 9.21736 128.155 9.22492 128.147C9.31875 128.056 9.38439 128.023 9.44762 127.991C9.4962 127.966 9.54637 127.94 9.63127 127.872C9.66852 127.843 9.69834 127.816 9.72347 127.793C9.79969 127.725 9.89719 127.646 10.0307 127.677C10.1723 127.716 10.2208 127.851 10.253 127.94C10.3105 128.1 10.3282 128.209 10.34 128.282C10.3442 128.309 10.3491 128.339 10.3528 128.348C10.3838 128.426 10.7727 128.447 10.9191 128.455C11.248 128.473 11.5327 128.488 11.6011 128.714C11.6503 128.875 11.5479 129.05 11.2881 129.25C11.2072 129.312 11.1263 129.355 11.0558 129.387C11.0991 129.428 11.1337 129.483 11.1358 129.559C11.1405 129.739 10.9562 129.877 10.5879 129.97C10.4964 129.993 10.3733 130.024 10.2122 130.016C10.1364 130.013 10.0699 130.001 10.0133 129.99C10.0048 130.022 9.98933 130.056 9.96141 130.088C9.87944 130.182 9.74707 130.206 9.56739 130.153C9.36902 130.097 9.21229 130.022 9.07399 129.956C8.95319 129.899 8.84903 129.849 8.76163 129.836C8.59907 129.813 8.44749 129.914 8.26609 130.047L7.81152 130.388Z" fill="#A77437"/>
<path d="M9.10905 126.289L8.39312 126.396L8.33726 126.361C8.07895 126.2 7.82962 126.123 7.59597 126.13C7.55882 126.132 7.52174 126.135 7.48397 126.138C7.33427 126.15 7.14818 126.166 6.92728 126.077C6.80411 126.027 6.51797 125.884 6.54416 125.653C6.55055 125.59 6.57727 125.542 6.60928 125.506C6.60076 125.501 6.59223 125.496 6.58299 125.49C6.47099 125.423 6.42203 125.368 6.37488 125.315C6.33861 125.274 6.30125 125.232 6.21403 125.167C6.17578 125.138 6.14229 125.116 6.11414 125.098C6.02898 125.041 5.92717 124.967 5.92383 124.83C5.92535 124.683 6.04366 124.602 6.12196 124.548C6.26162 124.452 6.36319 124.407 6.43056 124.377C6.45519 124.367 6.48289 124.354 6.49136 124.348C6.55904 124.298 6.47992 123.917 6.45096 123.773C6.38479 123.451 6.32752 123.171 6.52805 123.048C6.67146 122.96 6.86744 123.014 7.12619 123.215C7.20672 123.277 7.26865 123.345 7.31746 123.405C7.34611 123.353 7.39127 123.305 7.46418 123.284C7.63682 123.233 7.81697 123.377 8.00031 123.709C8.04612 123.792 8.10725 123.903 8.14055 124.061C8.15616 124.135 8.16178 124.203 8.16565 124.26C8.19902 124.26 8.2354 124.267 8.2733 124.286C8.38485 124.341 8.44151 124.463 8.43592 124.65C8.43277 124.856 8.39981 125.027 8.37097 125.177C8.34594 125.309 8.32476 125.422 8.33392 125.51C8.35317 125.673 8.4887 125.794 8.66392 125.936L9.10905 126.289Z" fill="#A77437"/>
<path d="M9.20508 124.139L9.28303 123.419L9.33084 123.374C9.55203 123.165 9.69041 122.944 9.74231 122.716C9.75057 122.679 9.75697 122.643 9.76351 122.605C9.7894 122.458 9.82153 122.274 9.9638 122.082C10.0434 121.976 10.254 121.735 10.4713 121.819C10.5299 121.841 10.5695 121.879 10.5969 121.92C10.6038 121.913 10.6109 121.906 10.6185 121.898C10.7123 121.807 10.7779 121.774 10.8412 121.741C10.8898 121.717 10.9399 121.691 11.0248 121.623C11.0621 121.594 11.0919 121.567 11.117 121.544C11.1932 121.476 11.2907 121.397 11.4243 121.428C11.5658 121.467 11.6144 121.602 11.6466 121.691C11.7041 121.851 11.7218 121.96 11.7335 122.033C11.7377 122.06 11.7426 122.09 11.7463 122.099C11.7773 122.177 12.1663 122.198 12.3126 122.206C12.6416 122.224 12.9262 122.239 12.9947 122.465C13.0438 122.626 12.9414 122.801 12.6816 123.001C12.6007 123.063 12.5198 123.106 12.4493 123.138C12.4927 123.179 12.5272 123.234 12.5293 123.31C12.5341 123.49 12.3498 123.628 11.9815 123.721C11.89 123.744 11.7669 123.775 11.6058 123.767C11.5299 123.764 11.4635 123.752 11.4068 123.741C11.3984 123.773 11.3829 123.807 11.355 123.839C11.273 123.933 11.1406 123.956 10.9609 123.904C10.7626 123.848 10.6058 123.773 10.4675 123.707C10.3467 123.65 10.2426 123.6 10.1552 123.587C9.99263 123.564 9.84105 123.664 9.65964 123.798L9.20508 124.139Z" fill="#A77437"/>
<path d="M6.88451 137.928L6.75794 137.803L6.582 137.785C6.58284 137.768 6.58168 137.73 6.5804 137.669C6.57363 137.338 6.55262 136.33 6.69293 134.782C6.7909 133.702 6.95461 132.605 7.17952 131.521C7.40481 130.436 7.63862 129.629 7.82642 128.98C7.96815 128.49 8.1112 128.026 8.25084 127.574C8.6235 126.366 8.97537 125.225 9.19327 123.923C9.24207 123.632 9.34334 123.028 9.13599 122.314C9.01569 121.9 8.80971 121.51 8.52357 121.156L8.80052 120.932C9.11627 121.323 9.34405 121.755 9.47765 122.215C9.70754 123.006 9.5972 123.665 9.54419 123.982C9.3224 125.307 8.96702 126.459 8.59069 127.679C8.45177 128.129 8.30918 128.591 8.16807 129.079C7.98197 129.722 7.75026 130.522 7.52791 131.593C7.30553 132.664 7.14391 133.747 7.04703 134.814C6.90858 136.343 6.92938 137.336 6.93619 137.662C6.93971 137.836 6.94047 137.872 6.88451 137.928Z" fill="#A77437"/>
<path d="M7.76307 121.565C7.74883 121.562 7.73449 121.559 7.72014 121.554C7.42806 121.472 7.19376 121.234 7.02357 120.847C6.94392 120.665 6.92512 120.473 6.88762 120.091C6.88173 120.032 6.85574 119.733 6.8877 119.338C6.90849 119.079 6.93626 118.976 7.00658 118.894C7.08466 118.803 7.18986 118.751 7.30102 118.725C7.30403 118.691 7.31522 118.658 7.33742 118.626C7.42887 118.494 7.58195 118.548 7.66501 118.577C7.70685 118.592 7.759 118.611 7.81766 118.621C7.90984 118.637 7.96488 118.62 8.0482 118.596C8.12793 118.573 8.22706 118.544 8.36407 118.547C8.63444 118.55 8.83458 118.672 8.90058 118.712C9.24815 118.921 9.36816 119.254 9.50704 119.64C9.53463 119.717 9.62621 119.997 9.64754 120.357C9.66293 120.616 9.62891 120.723 9.58989 120.799C9.51019 120.955 9.38816 121.027 9.08528 121.18C8.76886 121.339 8.6101 121.419 8.47993 121.46C8.17703 121.555 7.98683 121.615 7.76307 121.565Z" fill="#A77437"/>
<path d="M85.0348 0H28.0948C24.2108 0 21.0625 3.14835 21.0625 7.03226V130.656C21.0625 134.54 24.2108 137.688 28.0948 137.688H85.0348C88.9187 137.688 92.0671 134.54 92.0671 130.656V7.03226C92.0671 3.14835 88.9187 0 85.0348 0ZM82.6529 127.38C82.6529 130.261 80.3164 132.595 77.4359 132.595H36.3118C33.4313 132.595 31.0968 130.261 31.0968 127.38V17.7177C31.0968 14.8372 33.4313 12.5027 36.3118 12.5027H77.4359C80.3164 12.5027 82.6529 14.8372 82.6529 17.7177V127.38Z" fill="#2E3094"/>
<path d="M80.1824 67.1465C81.2054 67.1465 82.0347 66.3172 82.0347 65.2941C82.0347 64.2711 81.2054 63.4418 80.1824 63.4418C79.1594 63.4418 78.3301 64.2711 78.3301 65.2941C78.3301 66.3172 79.1594 67.1465 80.1824 67.1465Z" fill="#E0FFFD"/>
<path d="M80.2263 74.3703C81.2493 74.3703 82.0787 73.541 82.0787 72.518C82.0787 71.495 81.2493 70.6656 80.2263 70.6656C79.2033 70.6656 78.374 71.495 78.374 72.518C78.374 73.541 79.2033 74.3703 80.2263 74.3703Z" fill="#E0FFFD"/>
<path d="M49.7361 19.3722H39.9326C38.4656 19.3722 37.2705 20.5652 37.2705 22.0322V86.1714C37.2705 87.6405 38.4656 88.8335 39.9326 88.8335H49.7361C50.2265 88.8335 50.686 88.6996 51.0816 88.4688C51.5637 88.1865 51.947 87.7559 52.1736 87.2408C52.3178 86.9132 52.3982 86.5526 52.3982 86.1714V22.0322C52.3982 20.5652 51.2052 19.3722 49.7361 19.3722ZM51.7801 86.1714C51.7801 86.7236 51.5596 87.2264 51.199 87.5952L51.197 87.5972C51.1599 87.6364 51.1228 87.6735 51.0816 87.7085C50.721 88.0237 50.2512 88.2154 49.7361 88.2154H39.9326C38.8055 88.2154 37.8886 87.2985 37.8886 86.1714V22.0322C37.8886 20.9052 38.8055 19.9883 39.9326 19.9883H49.7361C50.8632 19.9883 51.7801 20.9052 51.7801 22.0322L51.7801 86.1714Z" fill="#250E80" fill-opacity="0.24"/>
<path d="M73.2001 19.3722H63.3945C61.9275 19.3722 60.7324 20.5652 60.7324 22.0322V86.1714C60.7324 87.6405 61.9275 88.8335 63.3945 88.8335H73.2001C74.6671 88.8335 75.8601 87.6405 75.8601 86.1714V22.0322C75.8601 20.5652 74.6671 19.3722 73.2001 19.3722ZM75.244 86.1714C75.244 87.2985 74.3272 88.2154 73.2001 88.2154H63.3945C62.2674 88.2154 61.3506 87.2985 61.3506 86.1714V22.0322C61.3506 20.9052 62.2674 19.9883 63.3945 19.9883H73.2001C74.3272 19.9883 75.244 20.9052 75.244 22.0322V86.1714Z" fill="#250E80" fill-opacity="0.24"/>
<path d="M45.5796 98.0642L42.8289 98.0519V98.4042H50.8172C50.9058 98.4042 50.9944 98.4104 51.0809 98.4207V98.091L45.5796 98.0642ZM52.0617 98.0951C51.765 97.9365 51.4332 97.8335 51.0809 97.8005C50.9944 97.7902 50.9058 97.7861 50.8172 97.7861H41.0116C40.6077 97.7861 40.2266 97.8767 39.8845 98.0374C38.98 98.464 38.3516 99.385 38.3516 100.448V121.675C38.3516 123.142 39.5445 124.337 41.0116 124.337H50.8172C50.9058 124.337 50.9944 124.333 51.0809 124.322C52.4243 124.191 53.4772 123.053 53.4772 121.675V100.448C53.4772 99.4303 52.9023 98.5443 52.0617 98.0951ZM52.8611 121.675C52.8611 122.713 52.0843 123.572 51.0809 123.702C50.9944 123.712 50.9058 123.719 50.8172 123.719H41.0116C39.8845 123.719 38.9676 122.802 38.9676 121.675V100.448C38.9676 99.3211 39.8845 98.4042 41.0116 98.4042H50.8172C50.9058 98.4042 50.9944 98.4104 51.0809 98.4207C52.0843 98.5505 52.8611 99.4097 52.8611 100.448V121.675ZM50.8172 97.7861H45.5796V98.4042H50.8172C50.9058 98.4042 50.9944 98.4104 51.0809 98.4207V97.8005C50.9944 97.7902 50.9058 97.7861 50.8172 97.7861Z" fill="#250E80" fill-opacity="0.24"/>
<path d="M64.6486 98.1549V98.4042H68.8128V98.1755L64.6486 98.1549ZM75.7131 98.2064C75.3814 97.9942 74.9982 97.852 74.5882 97.8046C74.4872 97.7922 74.3842 97.7861 74.2791 97.7861H64.4735C63.9852 97.7861 63.5298 97.9179 63.1363 98.1487C62.3451 98.6102 61.8135 99.4694 61.8135 100.448V121.675C61.8135 123.142 63.0065 124.337 64.4735 124.337H74.2791C75.7461 124.337 76.9412 123.142 76.9412 121.675V100.448C76.9412 99.5086 76.4508 98.6803 75.7131 98.2064ZM76.323 121.675C76.323 122.802 75.4061 123.719 74.2791 123.719H64.4735C63.3464 123.719 62.4316 122.802 62.4316 121.675V100.448C62.4316 99.3211 63.3464 98.4042 64.4735 98.4042H74.2791C75.4061 98.4042 76.323 99.3211 76.323 100.448V121.675Z" fill="#250E80" fill-opacity="0.24"/>
<path d="M68.1714 87.1007C68.7196 88.437 69.8535 89.2373 70.7039 88.8883C71.5543 88.5392 71.799 87.1732 71.2504 85.8364C71.0386 85.2995 70.7013 84.821 70.2666 84.4412L67.8722 78.8085L65.2529 79.9884L67.8915 85.416C67.8489 85.9919 67.9449 86.5695 68.1714 87.1007Z" fill="#FFB6B6"/>
<path d="M62.5118 51.6326L63.8846 51.0835C65.5004 53.597 66.3892 56.5085 66.4528 59.4959L66.6301 67.8316L70.474 82.1087L66.081 83.756L60.5898 65.9097L62.5118 51.6326Z" fill="#2F2E41"/>
<path d="M65.3436 91.4675C65.1709 91.4675 64.9957 91.4416 64.8236 91.3878L60.1516 89.9282C59.611 89.7592 59.1998 89.3538 59.0235 88.8155C58.8471 88.2773 58.9387 87.707 59.2745 87.2509L72.3198 69.5397C72.6378 69.1078 73.1278 68.8515 73.6639 68.8364C74.2034 68.8202 74.7037 69.0496 75.0455 69.4629L77.7043 72.6765C78.196 73.2707 78.233 74.1287 77.7945 74.7631L66.7624 90.7202C66.4321 91.1981 65.9001 91.4675 65.3436 91.4675Z" fill="#988D22"/>
<path d="M75.7969 75.5579C75.7416 75.5579 75.6864 75.5358 75.6459 75.4919L72.8343 72.4613C72.7569 72.3779 72.7618 72.2476 72.8452 72.1702C72.9285 72.0928 73.0591 72.0974 73.1364 72.181L75.9479 75.2118C76.0254 75.2951 76.0205 75.4255 75.9371 75.503C75.8974 75.5398 75.8471 75.5579 75.7969 75.5579Z" fill="white"/>
<path d="M74.5606 77.4123C74.5053 77.4123 74.4501 77.3902 74.4096 77.3463L71.598 74.3157C71.5205 74.2323 71.5255 74.1019 71.6089 74.0246C71.6923 73.9472 71.8227 73.9518 71.9 74.0354L74.7116 77.0662C74.7891 77.1495 74.7841 77.2799 74.7007 77.3574C74.6611 77.3942 74.6108 77.4123 74.5606 77.4123Z" fill="white"/>
<path d="M73.1182 79.4727C73.0629 79.4727 73.0077 79.4506 72.9672 79.4067L70.1556 76.376C70.0782 76.2927 70.0831 76.1623 70.1665 76.0849C70.2499 76.0076 70.3803 76.0122 70.4576 76.0959L73.2692 79.1266C73.3467 79.2099 73.3417 79.3403 73.2583 79.4178C73.2187 79.4546 73.1684 79.4727 73.1182 79.4727Z" fill="white"/>
<path d="M71.6758 81.3271C71.6205 81.3271 71.5654 81.305 71.5248 81.2611L68.7132 78.2304C68.6358 78.1471 68.6407 78.0167 68.7241 77.9393C68.8074 77.862 68.9379 77.8666 69.0153 77.9503L71.8268 80.981C71.9043 81.0643 71.8994 81.1947 71.816 81.2722C71.7763 81.309 71.726 81.3271 71.6758 81.3271Z" fill="white"/>
<path d="M70.2334 83.1815C70.1781 83.1815 70.123 83.1594 70.0824 83.1155L67.2709 80.0849C67.1934 80.0016 67.1983 79.8712 67.2817 79.7937C67.365 79.7162 67.4955 79.7211 67.5729 79.8048L70.3844 82.8355C70.4619 82.9188 70.457 83.0491 70.3736 83.1266C70.3339 83.1634 70.2836 83.1815 70.2334 83.1815Z" fill="white"/>
<path d="M68.585 84.8299C68.5297 84.8299 68.4745 84.8077 68.434 84.7639L65.6224 81.7332C65.545 81.6499 65.5499 81.5195 65.6333 81.442C65.7166 81.3645 65.8472 81.3694 65.9244 81.4531L68.736 84.4838C68.8135 84.5671 68.8085 84.6975 68.7251 84.7749C68.6855 84.8117 68.6352 84.8299 68.585 84.8299Z" fill="white"/>
<path d="M59.0346 135.998L62.1519 135.058L60.0091 122.586L55.4082 123.974L59.0346 135.998Z" fill="#FFB6B6"/>
<path d="M69.6939 132.707C69.8403 132.841 70.0506 133.353 70.1079 133.543C70.2841 134.127 69.9533 134.744 69.3689 134.92L59.7147 137.831C59.3161 137.952 58.8955 137.726 58.7753 137.327L58.6541 136.925C58.6541 136.925 57.8122 135.861 58.3465 134.076C58.3465 134.076 59.9201 134.873 61.1955 132.496L61.4399 131.359L66.1974 133.034L68.4382 132.648C68.9284 132.564 69.3273 132.37 69.6939 132.707Z" fill="#2F2E41"/>
<path d="M45.7637 129.485L48.2391 131.6L57.5761 123.059L53.9226 119.937L45.7637 129.485Z" fill="#FFB6B6"/>
<path d="M54.2922 136.676C54.2583 136.872 53.941 137.325 53.812 137.476C53.4154 137.94 52.7179 137.995 52.2539 137.599L44.5883 131.047C44.2718 130.777 44.2345 130.301 44.505 129.984L44.7778 129.665C44.7778 129.665 45.2183 128.382 47.0094 127.867C47.0094 127.867 47.1886 129.622 49.8776 129.411L50.9672 129.002L52.1277 133.911L53.6628 135.588C53.9986 135.955 54.377 136.186 54.2922 136.676Z" fill="#2F2E41"/>
<path d="M58.3415 45.586C61.2186 45.586 63.5511 43.2536 63.5511 40.3764C63.5511 37.4992 61.2186 35.1668 58.3415 35.1668C55.4643 35.1668 53.1318 37.4992 53.1318 40.3764C53.1318 43.2536 55.4643 45.586 58.3415 45.586Z" fill="#FFB6B6"/>
<path d="M54.1376 45.455L61.0016 47.6515L61.8252 50.1225L61.5507 59.4575L52.4902 48.7497L54.1376 45.455Z" fill="#988D22"/>
<path d="M66.3552 51.0835L61.275 48.4726V57.581L53.4836 46.7625L51.8036 48.4752L44.665 53.2799L49.3325 67.2825V74.1464L45.4887 85.1288L58.9421 92.5419L68.0026 87.3253L65.257 68.1061L67.1789 53.5545L66.3552 51.0835Z" fill="#2F2E41"/>
<path d="M64.4338 86.5016L69.9249 107.094L53.4514 128.235L49.333 124.116L61.2763 105.583L50.7058 85.4034L64.4338 86.5016Z" fill="#2F2E41"/>
<path d="M47.4111 84.5797L53.1769 107.094L56.3343 129.027L62.5908 128.235L60.59 104.348L57.0207 84.0306L47.4111 84.5797Z" fill="#2F2E41"/>
<path d="M57.1573 44.3568V41.728L58.8047 39.4147L58.2556 38.3554L57.981 37.0064C57.981 37.0064 61.5503 38.4614 62.9231 38.2516C64.2959 38.0419 63.4722 37.9728 63.884 37.7328C64.2959 37.4928 65.1196 36.3903 63.884 35.2942C62.6485 34.1981 63.6062 33.9236 61.0682 34.1981C58.5301 34.4727 55.2354 34.4727 54.6863 35.2964C54.1372 36.12 54.1372 36.6692 54.1372 36.6692C54.1372 36.6692 50.8425 36.9437 53.3135 42.984L54.6863 46.0042L55.2354 44.9059C55.2354 44.9059 54.6863 41.8858 55.51 42.984C56.3337 44.0822 57.1573 44.3568 57.1573 44.3568Z" fill="#2F2E41"/>
<path d="M62.7057 58.0788L59.7403 51.3674C59.6921 51.2584 59.692 51.1335 59.7401 51.0245C59.7881 50.9154 59.8804 50.8311 59.9934 50.7931L65.5192 48.9345C65.6308 48.8968 65.7541 48.9076 65.8575 48.9639C65.961 49.0201 66.037 49.1178 66.0662 49.2319L67.8868 56.3582C67.9419 56.5738 67.8195 56.7972 67.6081 56.8668L63.2273 58.3105C63.1828 58.3252 63.1377 58.3322 63.0933 58.3322C62.9293 58.3322 62.7756 58.2368 62.7057 58.0788Z" fill="#F2F2F2"/>
<path d="M59.4899 50.7287C59.5622 50.6902 59.6593 50.6395 59.7766 50.5802C59.7197 50.5329 59.6775 50.4669 59.6617 50.3879L59.5521 49.8397C59.5236 49.6974 59.5891 49.553 59.7152 49.4813C60.4666 49.0537 63.0823 47.6604 65.1184 47.745C65.2458 47.7503 65.3584 47.8295 65.4096 47.9463L65.6451 48.4832C65.6742 48.5496 65.6799 48.6198 65.6665 48.6852C65.8251 48.6658 65.9841 48.6488 66.1435 48.636C66.2433 48.6279 66.3384 48.6805 66.3864 48.7684L66.5067 48.989C66.5831 49.129 66.5137 49.3039 66.3622 49.3536L59.7364 51.5269C59.5856 51.5764 59.4267 51.4777 59.4043 51.3206L59.3571 50.9901C59.3419 50.8836 59.395 50.7792 59.4899 50.7287Z" fill="#3F3D56"/>
<path d="M63.3921 55.7715C64.4861 54.8284 64.8863 53.4995 64.286 52.8033C63.6857 52.1072 62.3124 52.3075 61.2181 53.2511C60.7758 53.622 60.4288 54.0934 60.2061 54.626L55.6211 58.6804L57.5696 60.7915L61.8827 56.5704C62.4424 56.4284 62.96 56.1545 63.3921 55.7715Z" fill="#FFB6B6"/>
<path d="M52.7953 73.6353L51.7478 88.1856C51.6837 89.0761 51.0035 89.7975 50.119 89.9193C45.8104 90.5123 41.0366 89.9121 35.8979 88.3764C35.0127 88.1118 34.4575 87.2344 34.5831 86.3191L36.5622 71.8966C36.6731 71.0883 37.2913 70.4408 38.0944 70.297C42.2762 69.5478 46.7935 70.2713 51.471 71.6986C52.3097 71.9545 52.8583 72.7607 52.7953 73.6353Z" fill="#988D22"/>
<path d="M46.5713 64.6135C48.7861 64.7076 49.3977 70.0382 49.4473 72.0838L49.9961 72.0705C49.9883 71.7494 49.7693 64.2025 46.5947 64.0647" fill="#3F3D56"/>
<path d="M47.6857 53.5545L44.6655 53.28L42.0169 65.9118C41.5122 68.3187 43.09 70.6686 45.5089 71.1126L47.6857 71.5122L62.7864 60.1439L59.29 54.8241L49.0585 61.2422L47.6857 53.5545Z" fill="#2F2E41"/>
<path d="M49.3404 60.2209C46.2123 60.087 41.0027 70.4138 40.9111 70.7013L41.4344 70.8683C41.4556 70.8017 46.6054 60.6534 49.317 60.7697" fill="#3F3D56"/>
<path d="M0 137.825C0 137.961 0.190648 138.071 0.428057 138.071H108.347C108.585 138.071 108.775 137.961 108.775 137.825C108.775 137.689 108.585 137.58 108.347 137.58H0.428057C0.190648 137.58 0 137.689 0 137.825Z" fill="#CCCCCC"/>
</g>
<defs>
<clipPath id="clip0_187_7679">
<rect width="111" height="138.08" fill="white"/>
</clipPath>
</defs>
</svg>
