<svg width="42" height="42" viewBox="0 0 42 42" fill="none" xmlns="http://www.w3.org/2000/svg">
<rect x="0.55603" y="0.645836" width="41.0488" height="40.5659" rx="2.41463" fill="#42F7AB" fill-opacity="0.23"/>
<g clip-path="url(#clip0_38_414)">
<path d="M22.4172 15.1375C22.7056 14.8068 22.8809 14.3751 22.8809 13.9029C22.8809 12.8658 22.0371 12.0221 21 12.0221C19.9629 12.0221 19.1191 12.8658 19.1191 13.9029C19.1191 14.3751 19.2944 14.8068 19.5828 15.1375C18.8299 15.6106 18.3281 16.448 18.3281 17.401V18.983H23.6719V17.401C23.6719 16.448 23.1701 15.6106 22.4172 15.1375ZM20.1738 13.9029C20.1738 13.4474 20.5444 13.0768 21 13.0768C21.4556 13.0768 21.8262 13.4474 21.8262 13.9029C21.8262 14.3585 21.4556 14.7291 21 14.7291C20.5444 14.7291 20.1738 14.3585 20.1738 13.9029ZM22.6172 17.9283H19.3828V17.401C19.3828 16.5093 20.1083 15.7838 21 15.7838C21.8917 15.7838 22.6172 16.5093 22.6172 17.401V17.9283Z" fill="#9F04D6"/>
<path d="M22.4172 26.1765C22.7056 25.8459 22.8809 25.4142 22.8809 24.942C22.8809 23.9049 22.0371 23.0611 21 23.0611C19.9629 23.0611 19.1191 23.9049 19.1191 24.942C19.1191 25.4142 19.2944 25.8459 19.5828 26.1765C18.8299 26.6496 18.3281 27.4871 18.3281 28.44V30.0221H23.6719V28.44C23.6719 27.4871 23.1701 26.6496 22.4172 26.1765ZM20.1738 24.942C20.1738 24.4864 20.5444 24.1158 21 24.1158C21.4556 24.1158 21.8262 24.4864 21.8262 24.942C21.8262 25.3975 21.4556 25.7682 21 25.7682C20.5444 25.7682 20.1738 25.3975 20.1738 24.942ZM22.6172 28.9674H19.3828V28.44C19.3828 27.5483 20.1083 26.8228 21 26.8228C21.8917 26.8228 22.6172 27.5483 22.6172 28.44V28.9674Z" fill="#9F04D6"/>
<path d="M16.0891 20.657C16.3775 20.3264 16.5527 19.8946 16.5527 19.4225C16.5527 18.3853 15.709 17.5416 14.6719 17.5416C13.6348 17.5416 12.791 18.3853 12.791 19.4225C12.791 19.8946 12.9663 20.3264 13.2547 20.657C12.5018 21.1301 12 21.9676 12 22.9205V24.5025H17.3438V22.9205C17.3438 21.9676 16.8419 21.1301 16.0891 20.657ZM13.8457 19.4225C13.8457 18.9669 14.2163 18.5963 14.6719 18.5963C15.1274 18.5963 15.498 18.9669 15.498 19.4225C15.498 19.878 15.1274 20.2486 14.6719 20.2486C14.2163 20.2486 13.8457 19.878 13.8457 19.4225ZM16.2891 23.4478H13.0547V22.9205C13.0547 22.0288 13.7802 21.3033 14.6719 21.3033C15.5636 21.3033 16.2891 22.0288 16.2891 22.9205V23.4478Z" fill="#9F04D6"/>
<path d="M28.7453 20.657C29.0337 20.3264 29.209 19.8946 29.209 19.4225C29.209 18.3853 28.3652 17.5416 27.3281 17.5416C26.291 17.5416 25.4473 18.3853 25.4473 19.4225C25.4473 19.8946 25.6226 20.3264 25.9109 20.657C25.1581 21.1301 24.6562 21.9676 24.6562 22.9205V24.5025H30V22.9205C30 21.9676 29.4982 21.1301 28.7453 20.657ZM26.502 19.4225C26.502 18.9669 26.8726 18.5963 27.3281 18.5963C27.7837 18.5963 28.1543 18.9669 28.1543 19.4225C28.1543 19.878 27.7837 20.2486 27.3281 20.2486C26.8726 20.2486 26.502 19.878 26.502 19.4225ZM28.9453 23.4478H25.7109V22.9205C25.7109 22.0288 26.4364 21.3033 27.3281 21.3033C28.2198 21.3033 28.9453 22.0288 28.9453 22.9205V23.4478Z" fill="#9F04D6"/>
<path d="M14.1445 16.0123V16.4869H15.1992V16.0123C15.1992 15.14 15.9089 14.4303 16.7812 14.4303H18.0645V13.3756H16.7812C15.3274 13.3756 14.1445 14.5584 14.1445 16.0123Z" fill="#9F04D6"/>
<path d="M26.8008 16.0123V16.4869H27.8555V16.0123C27.8555 14.5584 26.6726 13.3756 25.2188 13.3756H23.9355V14.4303H25.2188C26.0911 14.4303 26.8008 15.14 26.8008 16.0123Z" fill="#9F04D6"/>
<path d="M15.1992 26.0318V25.5572H14.1445V26.0318C14.1445 27.4857 15.3274 28.6685 16.7812 28.6685H17.2734V27.6139H16.7812C15.9089 27.6139 15.1992 26.9042 15.1992 26.0318Z" fill="#9F04D6"/>
<path d="M26.8008 26.0318C26.8008 26.9042 26.0911 27.6139 25.2188 27.6139H24.7266V28.6685H25.2188C26.6726 28.6685 27.8555 27.4857 27.8555 26.0318V25.5572H26.8008V26.0318Z" fill="#9F04D6"/>
</g>
<defs>
<clipPath id="clip0_38_414">
<rect width="18" height="18" fill="white" transform="translate(12 12.0221)"/>
</clipPath>
</defs>
</svg>
