<svg width="103" height="29" viewBox="0 0 103 29" fill="none" xmlns="http://www.w3.org/2000/svg">
<path d="M35.2059 24.8025H28.3716L18.103 14.4999L21.5032 11.0998L18.171 7.63157L21.5032 4.23138H28.3716L21.5032 11.0998L35.2059 24.8025Z" fill="#FAC371"/>
<path d="M21.5032 11.0998L18.103 14.4999L28.3716 24.8025H35.2059L21.5032 11.0998ZM21.5032 11.0998L18.171 7.63157L21.5032 4.23138H28.3716L21.5032 11.0998Z" stroke="#FAC371" stroke-width="0.225961"/>
<path d="M1 4.19746H7.83438L18.1029 14.5L14.7028 17.9002L18.0349 21.3684L14.7028 24.7686H7.83438L14.7028 17.9002L1 4.19746Z" fill="#1000CB"/>
<path d="M14.7028 17.9002L18.1029 14.5L7.83438 4.19746H1L14.7028 17.9002ZM14.7028 17.9002L18.0349 21.3684L14.7028 24.7686H7.83438L14.7028 17.9002Z" stroke="#1000CB" stroke-width="0.225961"/>
<path d="M50.1579 13.728C51.0699 14.384 51.7739 15.216 52.2699 16.224C52.7819 17.216 53.0379 18.288 53.0379 19.44V24H50.1819V19.44C50.1819 18.88 50.0779 18.344 49.8699 17.832C49.6619 17.304 49.3579 16.84 48.9579 16.44C48.0779 15.608 47.0779 15.192 45.9579 15.192C45.3819 15.192 44.8379 15.304 44.3259 15.528C43.8139 15.736 43.3579 16.04 42.9579 16.44C42.5579 16.84 42.2459 17.296 42.0219 17.808C41.8139 18.32 41.7099 18.864 41.7099 19.44V24H38.8539V19.44C38.8539 18.304 39.1099 17.24 39.6219 16.248C40.1339 15.24 40.8459 14.4 41.7579 13.728C40.8459 13.056 40.1339 12.224 39.6219 11.232C39.1099 10.224 38.8539 9.152 38.8539 8.016V3H41.7099V8.016C41.7099 8.576 41.8139 9.12 42.0219 9.648C42.2459 10.16 42.5579 10.616 42.9579 11.016C43.3579 11.416 43.8139 11.72 44.3259 11.928C44.8379 12.136 45.3819 12.24 45.9579 12.24C47.0939 12.24 48.0939 11.832 48.9579 11.016C49.7739 10.152 50.1819 9.152 50.1819 8.016V3H53.0379V8.016C53.0379 9.168 52.7819 10.248 52.2699 11.256C51.7739 12.248 51.0699 13.072 50.1579 13.728ZM70.0416 9.84V24H62.8176C61.5696 23.968 60.4096 23.632 59.3376 22.992C58.2816 22.352 57.4416 21.496 56.8176 20.424C56.1936 19.336 55.8816 18.168 55.8816 16.92C55.8816 15.64 56.1936 14.456 56.8176 13.368C57.4576 12.28 58.3216 11.416 59.4096 10.776C60.4976 10.152 61.6816 9.84 62.9616 9.84C63.7456 9.84 64.4976 9.96 65.2176 10.2C65.9536 10.44 66.6176 10.784 67.2096 11.232V9.84H70.0416ZM67.2096 16.92C67.2096 16.36 67.0976 15.824 66.8736 15.312C66.6656 14.784 66.3616 14.32 65.9616 13.92C65.5616 13.52 65.0976 13.216 64.5696 13.008C64.0576 12.784 63.5216 12.672 62.9616 12.672C61.8416 12.672 60.8416 13.088 59.9616 13.92C59.5616 14.32 59.2576 14.784 59.0496 15.312C58.8416 15.824 58.7376 16.36 58.7376 16.92C58.7376 18.056 59.1456 19.056 59.9616 19.92C60.8256 20.736 61.8256 21.144 62.9616 21.144H67.2096V16.92ZM73.1503 9.84H76.0063V16.896C76.0063 17.472 76.1103 18.016 76.3183 18.528C76.5423 19.04 76.8543 19.496 77.2543 19.896C77.6543 20.296 78.1103 20.608 78.6223 20.832C79.1343 21.04 79.6783 21.144 80.2543 21.144H84.4303V9.84H87.2863V24H80.2543C78.9583 24 77.7663 23.688 76.6783 23.064C75.5903 22.424 74.7343 21.56 74.1103 20.472C73.4703 19.4 73.1503 18.208 73.1503 16.896V9.84ZM101.03 12.672H97.4544C96.3344 12.672 95.3344 13.088 94.4544 13.92C94.0544 14.32 93.7504 14.784 93.5424 15.312C93.3344 15.824 93.2304 16.36 93.2304 16.92V24H90.3744V16.752C90.4064 15.504 90.7424 14.352 91.3824 13.296C92.0224 12.224 92.8784 11.376 93.9504 10.752C95.0384 10.144 96.2064 9.84 97.4544 9.84H101.03V12.672Z" fill="black"/>
</svg>
