<svg width="20" height="20" viewBox="0 0 20 20" fill="none" xmlns="http://www.w3.org/2000/svg">
<path d="M10 3.33325C5.93417 3.33325 2.5 6.76742 2.5 10.8333C2.5 14.8991 5.93417 18.3333 10 18.3333C14.0658 18.3333 17.5 14.8991 17.5 10.8333C17.5 6.76742 14.0658 3.33325 10 3.33325ZM10 16.6666C6.83833 16.6666 4.16667 13.9949 4.16667 10.8333C4.16667 7.67159 6.83833 4.99992 10 4.99992C13.1617 4.99992 15.8333 7.67159 15.8333 10.8333C15.8333 13.9949 13.1617 16.6666 10 16.6666Z" fill="#373737"/>
<path d="M10.8332 10V6.66668H9.16654V11.6667H14.1665V10H10.8332ZM14.4032 3.08918L15.5799 1.90918L18.0882 4.40918L16.9107 5.59001L14.4032 3.08918ZM5.58154 3.08918L3.08987 5.58835L1.9082 4.41168L4.39987 1.91168L5.58154 3.08918Z" fill="#373737"/>
</svg>
