<svg width="20" height="20" viewBox="0 0 20 20" fill="none" xmlns="http://www.w3.org/2000/svg">
<path d="M7 10.8033C8.9 10.8033 10.3333 9.37 10.3333 7.47C10.3333 5.57 8.9 4.13667 7 4.13667C5.1 4.13667 3.66667 5.57 3.66667 7.47C3.66667 9.37 5.1 10.8033 7 10.8033ZM7 5.80333C7.98167 5.80333 8.66667 6.48833 8.66667 7.47C8.66667 8.45167 7.98167 9.13667 7 9.13667C6.01833 9.13667 5.33333 8.45167 5.33333 7.47C5.33333 6.48833 6.01833 5.80333 7 5.80333ZM7.83333 11.6367H6.16667C3.86917 11.6367 2 13.5058 2 15.8033V16.6367H3.66667V15.8033C3.66667 14.425 4.78833 13.3033 6.16667 13.3033H7.83333C9.21167 13.3033 10.3333 14.425 10.3333 15.8033V16.6367H12V15.8033C12 13.5058 10.1308 11.6367 7.83333 11.6367ZM15.6367 3L14.4583 4.17833C15.5592 5.28083 16.1667 6.74583 16.1667 8.30333C16.1667 9.86083 15.5592 11.3258 14.4583 12.4283L15.6367 13.6067C17.0533 12.1892 17.8333 10.3058 17.8333 8.30333C17.8333 6.30083 17.0533 4.4175 15.6367 3Z" fill="#373737"/>
<path d="M12.9459 4.55322L11.7676 5.73322C12.2401 6.20406 12.5001 6.83156 12.5001 7.49989C12.5001 8.16822 12.2401 8.79572 11.7676 9.26656L12.9459 10.4466C13.7326 9.65989 14.1667 8.61406 14.1667 7.49989C14.1667 6.38572 13.7326 5.33989 12.9459 4.55322Z" fill="#373737"/>
</svg>
