<svg width="20" height="20" viewBox="0 0 20 20" fill="none" xmlns="http://www.w3.org/2000/svg">
<path d="M7.05263 11.8422C5.88842 11.8422 4.91358 12.6232 4.59379 13.6843H3V15.158H4.59379C4.91358 16.219 5.88842 17.0001 7.05263 17.0001C8.21684 17.0001 9.19168 16.219 9.51147 15.158H17.7368V13.6843H9.51147C9.19168 12.6232 8.21684 11.8422 7.05263 11.8422ZM7.05263 15.5264C6.44326 15.5264 5.94737 15.0305 5.94737 14.4211C5.94737 13.8118 6.44326 13.3159 7.05263 13.3159C7.662 13.3159 8.1579 13.8118 8.1579 14.4211C8.1579 15.0305 7.662 15.5264 7.05263 15.5264ZM13.6842 7.42114C12.52 7.42114 11.5452 8.2022 11.2254 9.26325H3V10.7369H11.2254C11.5452 11.798 12.52 12.579 13.6842 12.579C14.8484 12.579 15.8233 11.798 16.1431 10.7369H17.7368V9.26325H16.1431C15.8233 8.2022 14.8484 7.42114 13.6842 7.42114ZM13.6842 11.1054C13.0748 11.1054 12.5789 10.6095 12.5789 10.0001C12.5789 9.39072 13.0748 8.89483 13.6842 8.89483C14.2936 8.89483 14.7895 9.39072 14.7895 10.0001C14.7895 10.6095 14.2936 11.1054 13.6842 11.1054Z" fill="black"/>
<path d="M10.9852 4.84211C10.6654 3.78105 9.69053 3 8.52632 3C7.36211 3 6.38726 3.78105 6.06747 4.84211H3V6.31579H6.06747C6.38726 7.37684 7.36211 8.1579 8.52632 8.1579C9.69053 8.1579 10.6654 7.37684 10.9852 6.31579H17.8289V4.84211H10.9852ZM8.52632 6.68421C7.91695 6.68421 7.42105 6.18832 7.42105 5.57895C7.42105 4.96958 7.91695 4.47368 8.52632 4.47368C9.13568 4.47368 9.63158 4.96958 9.63158 5.57895C9.63158 6.18832 9.13568 6.68421 8.52632 6.68421Z" fill="black"/>
</svg>
