<svg width="20" height="20" viewBox="0 0 20 20" fill="none" xmlns="http://www.w3.org/2000/svg">
<path d="M9.91234 5.04053C6.94172 5.04053 4.43262 7.54963 4.43262 10.5202C4.43262 13.4909 6.94172 16 9.91234 16C12.883 16 15.3921 13.4909 15.3921 10.5202C15.3921 7.54963 12.883 5.04053 9.91234 5.04053ZM9.91234 14.7823C7.60233 14.7823 5.65033 12.8303 5.65033 10.5202C5.65033 8.21024 7.60233 6.25824 9.91234 6.25824C12.2223 6.25824 14.1743 8.21024 14.1743 10.5202C14.1743 12.8303 12.2223 14.7823 9.91234 14.7823Z" fill="#373737"/>
<path d="M10.5209 9.9114V7.47597H9.30315V11.1291H12.9563V9.9114H10.5209ZM13.1292 4.86214L13.9889 4L15.8216 5.82657L14.9613 6.68933L13.1292 4.86214ZM6.68385 4.86214L4.86336 6.68811L4 5.8284L5.82049 4.00183L6.68385 4.86214Z" fill="#373737"/>
</svg>
