<svg width="20" height="20" viewBox="0 0 20 20" fill="none" xmlns="http://www.w3.org/2000/svg">
<path d="M16.1667 7.33422H14.5V9.83422H12V11.5009H14.5V14.0009H16.1667V11.5009H18.6667V9.83422H16.1667V7.33422ZM3.66667 7.33422C3.6564 7.77476 3.73561 8.21281 3.89949 8.62187C4.06337 9.03093 4.30853 9.40249 4.62013 9.71409C4.93172 10.0257 5.30329 10.2708 5.71235 10.4347C6.1214 10.5986 6.55945 10.6778 7 10.6676C7.44055 10.6778 7.8786 10.5986 8.28765 10.4347C8.69671 10.2708 9.06828 10.0257 9.37987 9.71409C9.69147 9.40249 9.93663 9.03093 10.1005 8.62187C10.2644 8.21281 10.3436 7.77476 10.3333 7.33422C10.3436 6.89367 10.2644 6.45562 10.1005 6.04656C9.93663 5.63751 9.69147 5.26594 9.37987 4.95434C9.06828 4.64275 8.69671 4.39759 8.28765 4.23371C7.8786 4.06983 7.44055 3.99062 7 4.00088C6.55945 3.99062 6.1214 4.06983 5.71235 4.23371C5.30329 4.39759 4.93172 4.64275 4.62013 4.95434C4.30853 5.26594 4.06337 5.63751 3.89949 6.04656C3.73561 6.45562 3.6564 6.89367 3.66667 7.33422ZM8.66667 7.33422C8.67738 7.55593 8.64161 7.77742 8.56165 7.98449C8.48168 8.19155 8.35929 8.3796 8.20234 8.53655C8.04538 8.69351 7.85733 8.8159 7.65027 8.89586C7.44321 8.97583 7.22171 9.0116 7 9.00088C6.77829 9.0116 6.55679 8.97583 6.34973 8.89586C6.14267 8.8159 5.95462 8.69351 5.79766 8.53655C5.64071 8.3796 5.51832 8.19155 5.43835 7.98449C5.35839 7.77742 5.32262 7.55593 5.33333 7.33422C5.32262 7.11251 5.35839 6.89101 5.43835 6.68395C5.51832 6.47688 5.64071 6.28884 5.79766 6.13188C5.95462 5.97493 6.14267 5.85254 6.34973 5.77257C6.55679 5.69261 6.77829 5.65683 7 5.66755C7.22171 5.65683 7.44321 5.69261 7.65027 5.77257C7.85733 5.85254 8.04538 5.97493 8.20234 6.13188C8.35929 6.28884 8.48168 6.47688 8.56165 6.68395C8.64161 6.89101 8.67738 7.11251 8.66667 7.33422ZM3.66667 15.6676C3.66667 15.0045 3.93006 14.3686 4.3989 13.8998C4.86774 13.4309 5.50363 13.1676 6.16667 13.1676H7.83333C8.49637 13.1676 9.13226 13.4309 9.6011 13.8998C10.0699 14.3686 10.3333 15.0045 10.3333 15.6676V16.5009H12V15.6676C12 15.1204 11.8922 14.5786 11.6828 14.073C11.4734 13.5675 11.1665 13.1082 10.7796 12.7213C10.3927 12.3344 9.93337 12.0274 9.42785 11.8181C8.92232 11.6087 8.38051 11.5009 7.83333 11.5009H6.16667C5.0616 11.5009 4.00179 11.9399 3.22039 12.7213C2.43899 13.5027 2 14.5625 2 15.6676V16.5009H3.66667V15.6676Z" fill="#373737"/>
</svg>
