<svg width="20" height="20" viewBox="0 0 20 20" fill="none" xmlns="http://www.w3.org/2000/svg">
<path d="M13.4 4H6.2C5.5382 4 5 4.5382 5 5.2V15.4C5 15.5591 5.06321 15.7117 5.17574 15.8243C5.28826 15.9368 5.44087 16 5.6 16H14C14.1591 16 14.3117 15.9368 14.4243 15.8243C14.5368 15.7117 14.6 15.5591 14.6 15.4V5.2C14.6 4.5382 14.0618 4 13.4 4ZM13.4 14.8H6.2V5.2H13.4V14.8Z" fill="#373737"/>
<path d="M7.40039 6.40002H9.20039V7.60002H7.40039V6.40002ZM10.4004 6.40002H12.2004V7.60002H10.4004V6.40002ZM7.40039 8.80002H9.20039V10H7.40039V8.80002ZM10.4004 8.81862H12.2004V10H10.4004V8.81862ZM7.40039 11.2H9.20039V12.4H7.40039V11.2ZM10.4004 11.2H12.2004V12.4H10.4004V11.2Z" fill="#373737"/>
</svg>
