<svg width="20" height="20" viewBox="0 0 20 20" fill="none" xmlns="http://www.w3.org/2000/svg">
<path d="M7.40039 9.3999H8.60039V10.5999H7.40039V9.3999ZM7.40039 11.7999H8.60039V12.9999H7.40039V11.7999ZM9.80039 9.3999H11.0004V10.5999H9.80039V9.3999ZM9.80039 11.7999H11.0004V12.9999H9.80039V11.7999ZM12.2004 9.3999H13.4004V10.5999H12.2004V9.3999ZM12.2004 11.7999H13.4004V12.9999H12.2004V11.7999Z" fill="#373737"/>
<path d="M6.2 16H14.6C15.2618 16 15.8 15.4618 15.8 14.8V6.4C15.8 5.7382 15.2618 5.2 14.6 5.2H13.4V4H12.2V5.2H8.6V4H7.4V5.2H6.2C5.5382 5.2 5 5.7382 5 6.4V14.8C5 15.4618 5.5382 16 6.2 16ZM14.6 7.6L14.6006 14.8H6.2V7.6H14.6Z" fill="#373737"/>
</svg>
