<svg width="20" height="20" viewBox="0 0 20 20" fill="none" xmlns="http://www.w3.org/2000/svg">
<path d="M15.3684 6.52632H13.4737V5.26316C13.4737 4.56653 12.9072 4 12.2105 4H8.42105C7.72442 4 7.15789 4.56653 7.15789 5.26316V6.52632H5.26316C4.56653 6.52632 4 7.09284 4 7.78947V14.7368C4 15.4335 4.56653 16 5.26316 16H15.3684C16.0651 16 16.6316 15.4335 16.6316 14.7368V7.78947C16.6316 7.09284 16.0651 6.52632 15.3684 6.52632ZM12.8421 7.78947V14.7368H7.78947V7.78947H12.8421ZM12.2105 5.26316V6.52632H8.42105V5.26316H12.2105ZM5.26316 7.78947H6.52632V14.7368H5.26316V7.78947ZM14.1053 14.7368V7.78947H15.3684L15.3691 14.7368H14.1053Z" fill="#373737"/>
</svg>
