<svg width="20" height="20" viewBox="0 0 20 20" fill="none" xmlns="http://www.w3.org/2000/svg">
<path d="M8.2002 8.19995H11.8002V11.8H8.2002V8.19995Z" fill="#373737"/>
<path d="M14.8 6.4C14.8 5.7382 14.2618 5.2 13.6 5.2H12.4V4H11.2V5.2H8.8V4H7.6V5.2H6.4C5.7382 5.2 5.2 5.7382 5.2 6.4V7.6H4V8.8H5.2V11.2H4V12.4H5.2V13.6C5.2 14.2618 5.7382 14.8 6.4 14.8H7.6V16H8.8V14.8H11.2V16H12.4V14.8H13.6C14.2618 14.8 14.8 14.2618 14.8 13.6V12.4H16V11.2H14.8V8.8H16V7.6H14.8V6.4ZM6.4 13.6V6.4H13.6L13.6012 13.6H6.4Z" fill="#373737"/>
</svg>
