<svg width="20" height="20" viewBox="0 0 20 20" fill="none" xmlns="http://www.w3.org/2000/svg">
<path d="M6.5918 13.4169L9.45092 13.4072L15.6914 7.22639C15.9363 6.98149 16.071 6.65625 16.071 6.31028C16.071 5.96431 15.9363 5.63907 15.6914 5.39417L14.6638 4.36662C14.174 3.87682 13.3194 3.87941 12.8335 4.36468L6.5918 10.5468V13.4169ZM13.7477 5.28273L14.7772 6.30834L13.7425 7.33329L12.715 6.30639L13.7477 5.28273ZM7.88757 11.0871L11.7943 7.21732L12.8219 8.24487L8.91576 12.1134L7.88757 12.1166V11.0871Z" fill="#373737"/>
<path d="M5.29577 16.0001H14.3662C15.0808 16.0001 15.6619 15.4189 15.6619 14.7043V9.08844L14.3662 10.3842V14.7043H7.3418C7.32495 14.7043 7.30746 14.7108 7.29061 14.7108C7.26923 14.7108 7.24785 14.705 7.22582 14.7043H5.29577V5.63391H9.73185L11.0276 4.33813H5.29577C4.58115 4.33813 4 4.91929 4 5.63391V14.7043C4 15.4189 4.58115 16.0001 5.29577 16.0001Z" fill="#373737"/>
</svg>
