<svg width="20" height="20" viewBox="0 0 20 20" fill="none" xmlns="http://www.w3.org/2000/svg">
<path d="M15.6667 9.33333H13.6667V4.66667C13.6667 4.48986 13.5964 4.32029 13.4714 4.19526C13.3464 4.07024 13.1768 4 13 4H3.66667C3.48986 4 3.32029 4.07024 3.19526 4.19526C3.07024 4.32029 3 4.48986 3 4.66667V14C3 15.1027 3.89733 16 5 16H14.3333C15.436 16 16.3333 15.1027 16.3333 14V10C16.3333 9.82319 16.2631 9.65362 16.1381 9.5286C16.013 9.40357 15.8435 9.33333 15.6667 9.33333ZM5 14.6667C4.82319 14.6667 4.65362 14.5964 4.5286 14.4714C4.40357 14.3464 4.33333 14.1768 4.33333 14V5.33333H12.3333V14C12.3333 14.234 12.374 14.4587 12.4473 14.6667H5ZM15 14C15 14.1768 14.9298 14.3464 14.8047 14.4714C14.6797 14.5964 14.5101 14.6667 14.3333 14.6667C14.1565 14.6667 13.987 14.5964 13.8619 14.4714C13.7369 14.3464 13.6667 14.1768 13.6667 14V10.6667H15V14Z" fill="#373737"/>
<path d="M7.33301 6.5H12.333V7.75H7.33301V6.5ZM7.33301 9H12.333V10.25H7.33301V9ZM10.458 11.5H12.333V12.75H10.458V11.5Z" fill="#373737"/>
</svg>
