<svg width="20" height="20" viewBox="0 0 20 20" fill="none" xmlns="http://www.w3.org/2000/svg">
<path d="M16.6316 5.89474C16.6316 4.85011 15.7815 4 14.7368 4H5.89474C4.85011 4 4 4.85011 4 5.89474V7.68274C4 8.34779 4.24126 8.95221 4.63158 9.41705V14.7368C4.63158 15.4335 5.19811 16 5.89474 16H14.7368C15.4335 16 16 15.4335 16 14.7368V9.41642C16.3903 8.95221 16.6316 8.34779 16.6316 7.68211V5.89474ZM15.3684 5.89474V7.68274C15.3684 8.40274 14.8322 9.01663 14.1741 9.05137L14.1053 9.05263C13.4086 9.05263 12.8421 8.4861 12.8421 7.78947V5.26316H14.7368C15.0855 5.26316 15.3684 5.54674 15.3684 5.89474ZM9.05263 5.26316H11.5789V7.78947C11.5789 8.4861 11.0124 9.05263 10.3158 9.05263C9.61916 9.05263 9.05263 8.4861 9.05263 7.78947V5.26316ZM5.26316 5.89474C5.26316 5.54674 5.54611 5.26316 5.89474 5.26316H7.78947V7.78947C7.78947 8.4861 7.22295 9.05263 6.52632 9.05263L6.45747 9.05074C5.79937 9.01663 5.26316 8.40274 5.26316 7.68274V5.89474ZM9.05263 14.7368V12.8421H11.5789V14.7368H9.05263ZM12.8421 14.7368V12.8421C12.8421 12.1455 12.2756 11.5789 11.5789 11.5789H9.05263C8.356 11.5789 7.78947 12.1455 7.78947 12.8421V14.7368H5.89474V10.2331C6.05516 10.2754 6.22126 10.3032 6.39179 10.312C6.77256 10.3327 7.15305 10.2666 7.50457 10.1188C7.85609 9.97099 8.16946 9.7453 8.42105 9.45874C8.884 9.98421 9.56232 10.3158 10.3158 10.3158C11.0693 10.3158 11.7476 9.98421 12.2105 9.45874C12.4621 9.7453 12.7755 9.97099 13.127 10.1188C13.4785 10.2666 13.859 10.3327 14.2398 10.312C14.4109 10.3032 14.5764 10.2754 14.7368 10.2331V14.7368H12.8421Z" fill="#373737"/>
</svg>
