<svg width="20" height="20" viewBox="0 0 20 20" fill="none" xmlns="http://www.w3.org/2000/svg">
<path d="M7.30859 12.9331L8.19234 13.8169L9.62547 12.3837L11.0586 13.8169L11.9423 12.9331L10.5092 11.5L11.9423 10.0669L11.0586 9.18311L9.62547 10.6162L8.19234 9.18311L7.30859 10.0669L8.74172 11.5L7.30859 12.9331Z" fill="#373737"/>
<path d="M14 5.25H12.75V4H11.5V5.25H7.75V4H6.5V5.25H5.25C4.56062 5.25 4 5.81062 4 6.5V15.25C4 15.9394 4.56062 16.5 5.25 16.5H14C14.6894 16.5 15.25 15.9394 15.25 15.25V6.5C15.25 5.81062 14.6894 5.25 14 5.25ZM14.0013 15.25H5.25V7.75H14L14.0013 15.25Z" fill="#373737"/>
</svg>
