<svg width="20" height="20" viewBox="0 0 20 20" fill="none" xmlns="http://www.w3.org/2000/svg">
<path d="M9.68421 4C9.05964 4 8.44909 4.18521 7.92978 4.5322C7.41047 4.8792 7.00571 5.37239 6.7667 5.94942C6.52768 6.52645 6.46515 7.1614 6.58699 7.77397C6.70884 8.38654 7.0096 8.94922 7.45124 9.39086C7.89288 9.8325 8.45556 10.1333 9.06814 10.2551C9.68071 10.377 10.3157 10.3144 10.8927 10.0754C11.4697 9.8364 11.9629 9.43164 12.3099 8.91233C12.6569 8.39301 12.8421 7.78247 12.8421 7.15789C12.8421 6.32037 12.5094 5.51715 11.9172 4.92493C11.325 4.33271 10.5217 4 9.68421 4ZM9.68421 9.05263C9.30947 9.05263 8.94314 8.94151 8.63155 8.73331C8.31996 8.52511 8.07711 8.2292 7.9337 7.88298C7.79029 7.53676 7.75277 7.15579 7.82588 6.78825C7.89899 6.42071 8.07945 6.0831 8.34443 5.81811C8.60941 5.55313 8.94702 5.37267 9.31457 5.29956C9.68211 5.22646 10.0631 5.26398 10.4093 5.40739C10.7555 5.55079 11.0514 5.79365 11.2596 6.10524C11.4678 6.41682 11.5789 6.78315 11.5789 7.15789C11.5789 7.66041 11.3793 8.14234 11.024 8.49768C10.6687 8.85301 10.1867 9.05263 9.68421 9.05263ZM15.3684 16V15.3684C15.3684 14.1959 14.9026 13.0714 14.0735 12.2423C13.2444 11.4132 12.1199 10.9474 10.9474 10.9474H8.42105C7.24852 10.9474 6.124 11.4132 5.2949 12.2423C4.46579 13.0714 4 14.1959 4 15.3684V16H5.26316V15.3684C5.26316 14.5309 5.59586 13.7277 6.18808 13.1355C6.7803 12.5432 7.58353 12.2105 8.42105 12.2105H10.9474C11.7849 12.2105 12.5881 12.5432 13.1803 13.1355C13.7726 13.7277 14.1053 14.5309 14.1053 15.3684V16H15.3684Z" fill="#373737"/>
</svg>
