<svg width="20" height="20" viewBox="0 0 20 20" fill="none" xmlns="http://www.w3.org/2000/svg">
<path d="M14.1999 4H8.19987C7.53807 4 6.99987 4.5382 6.99987 5.2V8.5516L4.17567 11.3758C4.09179 11.4597 4.03466 11.5666 4.01152 11.683C3.98838 11.7994 4.00026 11.92 4.04567 12.0296C4.09107 12.1392 4.16795 12.2329 4.2666 12.2988C4.36524 12.3648 4.48122 12.4 4.59987 12.4V15.4C4.59987 15.5591 4.66309 15.7117 4.77561 15.8243C4.88813 15.9368 5.04074 16 5.19987 16H14.7999C14.959 16 15.1116 15.9368 15.2241 15.8243C15.3367 15.7117 15.3999 15.5591 15.3999 15.4V5.2C15.3999 4.5382 14.8617 4 14.1999 4ZM9.39987 14.8H5.79987V11.4484L7.59987 9.6484L9.39987 11.4484V14.8ZM14.1999 14.8H10.5999V12.4C10.7187 12.4003 10.8348 12.3652 10.9337 12.2993C11.0325 12.2335 11.1095 12.1397 11.155 12.03C11.2004 11.9202 11.2123 11.7995 11.1889 11.683C11.1656 11.5665 11.1083 11.4596 11.0241 11.3758L8.19987 8.5516V5.2H14.1999V14.8Z" fill="#373737"/>
<path d="M9.4 6.40002H10.6V7.60002H9.4V6.40002ZM11.8 6.40002H13V7.60002H11.8V6.40002ZM11.8 8.81862H13V10H11.8V8.81862ZM11.8 11.2H13V12.4H11.8V11.2ZM7 11.8H8.2V13H7V11.8Z" fill="#373737"/>
</svg>
