<svg width="20" height="20" viewBox="0 0 20 20" fill="none" xmlns="http://www.w3.org/2000/svg">
<path d="M10 6C7.018 6 4 6.9276 4 8.7V11.1C4 12.8724 7.018 13.8 10 13.8C12.982 13.8 16 12.8724 16 11.1V8.7C16 6.9276 12.982 6 10 6ZM5.2 11.1V10.3818C5.58001 10.597 5.9824 10.77 6.4 10.8978V12.0264C5.6128 11.718 5.2 11.3508 5.2 11.1ZM12.4 11.1888V12.3714C11.8798 12.4788 11.2798 12.5574 10.6 12.5862V11.3862C11.2038 11.3622 11.8053 11.2962 12.4 11.1888ZM9.4 12.5868C8.79521 12.5636 8.19326 12.4918 7.6 12.372V11.1894C8.1754 11.2938 8.7832 11.3616 9.4 11.3874V12.5868ZM13.6 12.0264V10.8978C14.0177 10.7703 14.4201 10.5973 14.8 10.3818V11.1C14.8 11.3508 14.3878 11.718 13.6 12.0264ZM10 10.2C6.8938 10.2 5.2 9.2094 5.2 8.7C5.2 8.1906 6.8938 7.2 10 7.2C13.1062 7.2 14.8 8.1906 14.8 8.7C14.8 9.2094 13.1062 10.2 10 10.2Z" fill="#373737"/>
</svg>
