<svg width="20" height="20" viewBox="0 0 20 20" fill="none" xmlns="http://www.w3.org/2000/svg">
<path d="M9.91041 5.04053C6.93978 5.04053 4.43066 7.54964 4.43066 10.5203C4.43066 13.4909 6.93978 16 9.91041 16C12.881 16 15.3901 13.4909 15.3901 10.5203C15.3901 7.54964 12.881 5.04053 9.91041 5.04053ZM9.91041 14.7823C7.60039 14.7823 5.64838 12.8303 5.64838 10.5203C5.64838 8.21025 7.60039 6.25825 9.91041 6.25825C12.2204 6.25825 14.1724 8.21025 14.1724 10.5203C14.1724 12.8303 12.2204 14.7823 9.91041 14.7823Z" fill="#373737"/>
<path d="M10.5191 7.47598H9.30134V9.91142H6.8659V11.1291H9.30134V13.5646H10.5191V11.1291H12.9545V9.91142H10.5191V7.47598ZM14.9589 6.68934L13.1262 4.86275L13.9859 4L15.8186 5.82658L14.9589 6.68934ZM5.81988 4.00183L6.68325 4.86154L4.86275 6.68812L4 5.8278L5.81988 4.00183Z" fill="#373737"/>
</svg>
