<svg width="20" height="20" viewBox="0 0 20 20" fill="none" xmlns="http://www.w3.org/2000/svg">
<path d="M9.1886 11.6866L8.9084 13.3222L10.3778 12.55L11.8472 13.3222L11.5664 11.6866L12.7556 10.5274L11.1128 10.2886L10.3778 8.80005L9.6428 10.2886L8 10.5274L9.1886 11.6866Z" fill="#373737"/>
<path d="M14.6 5.2H13.4V4H12.2V5.2H8.6V4H7.4V5.2H6.2C5.5382 5.2 5 5.7382 5 6.4V14.8C5 15.4618 5.5382 16 6.2 16H14.6C15.2618 16 15.8 15.4618 15.8 14.8V6.4C15.8 5.7382 15.2618 5.2 14.6 5.2ZM14.6012 14.8H6.2V7.6H14.6L14.6012 14.8Z" fill="#373737"/>
</svg>
