<svg width="20" height="20" viewBox="0 0 20 20" fill="none" xmlns="http://www.w3.org/2000/svg">
<path d="M16.25 4H2.75C2.55109 4 2.36032 4.07902 2.21967 4.21967C2.07902 4.36032 2 4.55109 2 4.75V15.25C2 15.4489 2.07902 15.6397 2.21967 15.7803C2.36032 15.921 2.55109 16 2.75 16H16.25C16.4489 16 16.6397 15.921 16.7803 15.7803C16.921 15.6397 17 15.4489 17 15.25V4.75C17 4.55109 16.921 4.36032 16.7803 4.21967C16.6397 4.07902 16.4489 4 16.25 4ZM15.5 12.25C14.9033 12.25 14.331 12.4871 13.909 12.909C13.4871 13.331 13.25 13.9033 13.25 14.5H5.75C5.75 13.9033 5.51295 13.331 5.09099 12.909C4.66903 12.4871 4.09674 12.25 3.5 12.25V7.75C4.09674 7.75 4.66903 7.51295 5.09099 7.09099C5.51295 6.66903 5.75 6.09674 5.75 5.5H13.25C13.25 6.09674 13.4871 6.66903 13.909 7.09099C14.331 7.51295 14.9033 7.75 15.5 7.75V12.25Z" fill="#373737"/>
<path d="M9.5 6.99988C7.8455 6.99988 6.5 8.34538 6.5 9.99988C6.5 11.6544 7.8455 12.9999 9.5 12.9999C11.1545 12.9999 12.5 11.6544 12.5 9.99988C12.5 8.34538 11.1545 6.99988 9.5 6.99988ZM9.5 11.4999C8.67275 11.4999 8 10.8271 8 9.99988C8 9.17263 8.67275 8.49988 9.5 8.49988C10.3273 8.49988 11 9.17263 11 9.99988C11 10.8271 10.3273 11.4999 9.5 11.4999Z" fill="#373737"/>
</svg>
