<svg width="20" height="20" viewBox="0 0 20 20" fill="none" xmlns="http://www.w3.org/2000/svg">
<path d="M13.6 4.6C12.6076 4.6 11.8 5.4076 11.8 6.4C11.8 6.7012 11.8816 6.9808 12.0124 7.231L11.3428 8.0122C10.9467 7.74315 10.4788 7.59953 10 7.6C9.5566 7.6 9.145 7.7296 8.788 7.9396L7.9396 7.0912C8.10813 6.78786 8.19768 6.44701 8.2 6.1C8.2 4.942 7.258 4 6.1 4C4.942 4 4 4.942 4 6.1C4 7.258 4.942 8.2 6.1 8.2C6.4606 8.2 6.7948 8.1004 7.0912 7.9396L7.9396 8.788C7.71983 9.15427 7.60254 9.57287 7.6 10C7.6 10.5982 7.828 11.1394 8.191 11.5606L7.1758 12.5758L7.1908 12.5908C6.9455 12.4669 6.67481 12.4016 6.4 12.4C5.4076 12.4 4.6 13.2076 4.6 14.2C4.6 15.1924 5.4076 16 6.4 16C7.3924 16 8.2 15.1924 8.2 14.2C8.2 13.9144 8.1274 13.6486 8.0092 13.4092L8.0242 13.4242L9.1966 12.2518C9.4492 12.3418 9.7168 12.4 10 12.4C11.3236 12.4 12.4 11.3236 12.4 10C12.3974 9.62728 12.3072 9.2604 12.1366 8.929L12.8884 8.0518C13.1068 8.1466 13.3468 8.2 13.6 8.2C14.5924 8.2 15.4 7.3924 15.4 6.4C15.4 5.4076 14.5924 4.6 13.6 4.6ZM6.4 14.8C6.24087 14.8 6.08826 14.7368 5.97574 14.6243C5.86321 14.5117 5.8 14.3591 5.8 14.2C5.8 14.0409 5.86321 13.8883 5.97574 13.7757C6.08826 13.6632 6.24087 13.6 6.4 13.6C6.55913 13.6 6.71174 13.6632 6.82426 13.7757C6.93679 13.8883 7 14.0409 7 14.2C7 14.3591 6.93679 14.5117 6.82426 14.6243C6.71174 14.7368 6.55913 14.8 6.4 14.8ZM5.2 6.1C5.2 5.6038 5.6038 5.2 6.1 5.2C6.5962 5.2 7 5.6038 7 6.1C7 6.5962 6.5962 7 6.1 7C5.6038 7 5.2 6.5962 5.2 6.1ZM10 11.2C9.3382 11.2 8.8 10.6618 8.8 10C8.8 9.3382 9.3382 8.8 10 8.8C10.6618 8.8 11.2 9.3382 11.2 10C11.2 10.6618 10.6618 11.2 10 11.2ZM13.6 7C13.4409 7 13.2883 6.93679 13.1757 6.82426C13.0632 6.71174 13 6.55913 13 6.4C13 6.24087 13.0632 6.08826 13.1757 5.97574C13.2883 5.86321 13.4409 5.8 13.6 5.8C13.7591 5.8 13.9117 5.86321 14.0243 5.97574C14.1368 6.08826 14.2 6.24087 14.2 6.4C14.2 6.55913 14.1368 6.71174 14.0243 6.82426C13.9117 6.93679 13.7591 7 13.6 7Z" fill="#373737"/>
</svg>
