<svg width="20" height="20" viewBox="0 0 20 20" fill="none" xmlns="http://www.w3.org/2000/svg">
<path d="M13.092 13.0917L15.0003 11.1751L16.9087 13.0917L18.092 11.9084L16.1753 10.0001L18.092 8.09174L16.9087 6.9084L15.0003 8.82507L13.092 6.9084L11.9087 8.09174L13.817 10.0001L11.9087 11.9084L13.092 13.0917ZM10.0003 6.66674C10.0106 6.22619 9.93138 5.78814 9.7675 5.37908C9.60362 4.97003 9.35846 4.59846 9.04687 4.28686C8.73527 3.97527 8.3637 3.73011 7.95465 3.56623C7.54559 3.40235 7.10754 3.32314 6.66699 3.3334C6.22645 3.32314 5.7884 3.40235 5.37934 3.56623C4.97028 3.73011 4.59872 3.97527 4.28712 4.28686C3.97552 4.59846 3.73037 4.97003 3.56648 5.37908C3.4026 5.78814 3.3234 6.22619 3.33366 6.66674C3.3234 7.10728 3.4026 7.54533 3.56648 7.95439C3.73037 8.36345 3.97552 8.73501 4.28712 9.04661C4.59872 9.35821 4.97028 9.60336 5.37934 9.76724C5.7884 9.93113 6.22645 10.0103 6.66699 10.0001C7.10754 10.0103 7.54559 9.93113 7.95465 9.76724C8.3637 9.60336 8.73527 9.35821 9.04687 9.04661C9.35846 8.73501 9.60362 8.36345 9.7675 7.95439C9.93138 7.54533 10.0106 7.10728 10.0003 6.66674ZM5.00033 6.66674C4.98961 6.44503 5.02538 6.22353 5.10535 6.01647C5.18531 5.8094 5.3077 5.62136 5.46466 5.4644C5.62161 5.30745 5.80966 5.18506 6.01672 5.10509C6.22378 5.02512 6.44528 4.98935 6.66699 5.00007C6.8887 4.98935 7.1102 5.02512 7.31726 5.10509C7.52432 5.18506 7.71237 5.30745 7.86933 5.4644C8.02628 5.62136 8.14867 5.8094 8.22864 6.01647C8.3086 6.22353 8.34438 6.44503 8.33366 6.66674C8.34438 6.88845 8.3086 7.10994 8.22864 7.31701C8.14867 7.52407 8.02628 7.71212 7.86933 7.86907C7.71237 8.02603 7.52432 8.14842 7.31726 8.22838C7.1102 8.30835 6.8887 8.34412 6.66699 8.3334C6.44528 8.34412 6.22378 8.30835 6.01672 8.22838C5.80966 8.14842 5.62161 8.02603 5.46466 7.86907C5.3077 7.71212 5.18531 7.52407 5.10535 7.31701C5.02538 7.10994 4.98961 6.88845 5.00033 6.66674ZM3.33366 15.0001C3.33366 14.337 3.59705 13.7011 4.06589 13.2323C4.53473 12.7635 5.17062 12.5001 5.83366 12.5001H7.50033C8.16337 12.5001 8.79925 12.7635 9.26809 13.2323C9.73693 13.7011 10.0003 14.337 10.0003 15.0001V15.8334H11.667V15.0001C11.667 14.4529 11.5592 13.9111 11.3498 13.4056C11.1404 12.9 10.8335 12.4407 10.4466 12.0538C10.0597 11.6669 9.60036 11.36 9.09484 11.1506C8.58932 10.9412 8.0475 10.8334 7.50033 10.8334H5.83366C4.72859 10.8334 3.66878 11.2724 2.88738 12.0538C2.10598 12.8352 1.66699 13.895 1.66699 15.0001V15.8334H3.33366V15.0001Z" fill="#373737"/>
</svg>
