<svg width="26" height="26" viewBox="0 0 26 26" fill="none" xmlns="http://www.w3.org/2000/svg">
<circle cx="12.9043" cy="8.22317" r="3.52688" fill="#1000CB" stroke="#1000CB" stroke-width="1.32258"/>
<path d="M19.0767 17.2378C19.0767 16.4792 18.5998 15.8025 17.8854 15.5474C14.6645 14.3971 11.1447 14.3971 7.92385 15.5474C7.20945 15.8025 6.73256 16.4792 6.73256 17.2378V18.3977C6.73256 19.4447 7.65988 20.249 8.69634 20.1009L9.53787 19.9807C11.771 19.6617 14.0382 19.6617 16.2714 19.9807L17.1129 20.1009C18.1493 20.249 19.0767 19.4447 19.0767 18.3977V17.2378Z" fill="#1000CB" stroke="#1000CB" stroke-width="1.32258"/>
<mask id="path-3-inside-1_456_3016" fill="white">
<path d="M20.8315 18.035L18.1738 16.7017C18.1276 16.6784 18.0766 16.6661 18.0248 16.666C17.973 16.6659 17.9219 16.6779 17.8755 16.701L15.1998 18.0344C15.1008 18.0844 15.0325 18.18 15.0185 18.29C15.0142 18.3224 14.6368 21.537 17.8655 23.2927C17.9151 23.3198 17.9709 23.3337 18.0274 23.3332C18.0839 23.3327 18.1394 23.3177 18.1885 23.2897C21.2908 21.5367 21.0265 18.432 21.0138 18.3007C21.0084 18.2446 20.9888 18.1908 20.9569 18.1444C20.925 18.0979 20.8819 18.0603 20.8315 18.035Z"/>
</mask>
<path d="M20.8315 18.035L18.1738 16.7017C18.1276 16.6784 18.0766 16.6661 18.0248 16.666C17.973 16.6659 17.9219 16.6779 17.8755 16.701L15.1998 18.0344C15.1008 18.0844 15.0325 18.18 15.0185 18.29C15.0142 18.3224 14.6368 21.537 17.8655 23.2927C17.9151 23.3198 17.9709 23.3337 18.0274 23.3332C18.0839 23.3327 18.1394 23.3177 18.1885 23.2897C21.2908 21.5367 21.0265 18.432 21.0138 18.3007C21.0084 18.2446 20.9888 18.1908 20.9569 18.1444C20.925 18.0979 20.8819 18.0603 20.8315 18.035Z" fill="#FAC371"/>
<path d="M20.8315 18.035L20.3831 18.9289L20.3832 18.9289L20.8315 18.035ZM18.1738 16.7017L17.723 17.5943L17.7254 17.5955L18.1738 16.7017ZM17.8755 16.701L18.3215 17.5961L18.3224 17.5956L17.8755 16.701ZM15.1998 18.0344L14.7538 17.1393L14.749 17.1418L15.1998 18.0344ZM15.0185 18.29L16.0097 18.4229L16.0105 18.4163L15.0185 18.29ZM17.8655 23.2927L18.3443 22.4148L18.3432 22.4142L17.8655 23.2927ZM18.1885 23.2897L17.6966 22.4191L17.6935 22.4208L18.1885 23.2897ZM21.0138 18.3007L22.0092 18.2047L22.0091 18.2038L21.0138 18.3007ZM21.2799 17.1412L18.6223 15.8079L17.7254 17.5955L20.3831 18.9289L21.2799 17.1412ZM18.6247 15.8091C18.4393 15.7155 18.2347 15.6665 18.027 15.666L18.0225 17.666C17.9185 17.6658 17.8159 17.6412 17.723 17.5943L18.6247 15.8091ZM18.027 15.666C17.8193 15.6656 17.6144 15.7136 17.4287 15.8064L18.3224 17.5956C18.2293 17.6422 18.1266 17.6662 18.0225 17.666L18.027 15.666ZM17.4295 15.806L14.7538 17.1393L15.6459 18.9294L18.3215 17.5961L17.4295 15.806ZM14.749 17.1418C14.3576 17.3395 14.083 17.7199 14.0265 18.1638L16.0105 18.4163C15.982 18.6402 15.8441 18.8293 15.6507 18.927L14.749 17.1418ZM14.0274 18.1572C14.0109 18.28 13.5759 22.0984 17.3878 24.1712L18.3432 22.4142C15.6978 20.9757 16.0174 18.3648 16.0097 18.4229L14.0274 18.1572ZM17.3867 24.1706C17.586 24.2793 17.8097 24.3353 18.0367 24.3331L18.0181 22.3332C18.132 22.3322 18.2443 22.3602 18.3443 22.4148L17.3867 24.1706ZM18.0367 24.3331C18.2637 24.331 18.4863 24.2709 18.6836 24.1586L17.6935 22.4208C17.7925 22.3644 17.9042 22.3343 18.0181 22.3332L18.0367 24.3331ZM18.6805 24.1603C22.3341 22.0958 22.0299 18.4192 22.0092 18.2047L20.0185 18.3967C20.0176 18.3882 20.0805 19.0491 19.8159 19.8854C19.5585 20.6988 18.9912 21.6875 17.6966 22.4191L18.6805 24.1603ZM22.0091 18.2038C21.9873 17.9795 21.909 17.7643 21.7814 17.5785L20.1324 18.7102C20.0686 18.6173 20.0295 18.5098 20.0186 18.3976L22.0091 18.2038ZM21.7814 17.5785C21.6539 17.3927 21.4813 17.2422 21.2798 17.1412L20.3832 18.9289C20.2825 18.8784 20.1962 18.8032 20.1324 18.7102L21.7814 17.5785Z" fill="#1000CB" mask="url(#path-3-inside-1_456_3016)"/>
</svg>
