<svg width="22" height="15" viewBox="0 0 22 15" fill="none" xmlns="http://www.w3.org/2000/svg">
<path d="M14.3 6.42857H22V8.57143H14.3V6.42857ZM15.4 10.7143H22V12.8571H15.4V10.7143ZM13.2 2.14286H22V4.28571H13.2V2.14286ZM2.2 15H13.2V13.9286C13.2 10.9746 10.7327 8.57143 7.7 8.57143H5.5C2.4673 8.57143 0 10.9746 0 13.9286V15H2.2ZM6.6 7.5C8.7945 7.5 10.45 5.8875 10.45 3.75C10.45 1.6125 8.7945 0 6.6 0C4.4055 0 2.75 1.6125 2.75 3.75C2.75 5.8875 4.4055 7.5 6.6 7.5Z" fill="#FAC371"/>
<path d="M2.18954 14.9357H13.1373V13.816C13.1373 10.7292 10.6817 8.21777 7.6634 8.21777H5.47386C2.45557 8.21777 0 10.7292 0 13.816V14.9357H2.18954Z" fill="#1000CB"/>
</svg>
