<svg width="15" height="13" viewBox="0 0 15 13" fill="none" xmlns="http://www.w3.org/2000/svg">
<path d="M1.90436 3.80872H0.634787V0H1.90436V3.80872ZM0.634787 12.6957H1.90436V8.88702H0.634787V12.6957ZM1.26957 5.07829C0.571308 5.07829 0 5.6496 0 6.34787C0 7.05248 0.571308 7.61744 1.26957 7.61744C1.97419 7.61744 2.53915 7.05248 2.53915 6.34787C2.53915 5.6496 1.97419 5.07829 1.26957 5.07829ZM14.6001 2.53915V10.1566C14.6001 10.8612 14.0351 11.4262 13.3305 11.4262H5.71308C5.01482 11.4262 4.44351 10.8612 4.44351 10.1566V7.61744L3.17393 6.34787L4.44351 5.07829V2.53915C4.44351 1.83453 5.01482 1.26957 5.71308 1.26957H13.3305C14.0351 1.26957 14.6001 1.83453 14.6001 2.53915ZM11.9023 5.28777L11.1659 4.39272L8.88702 6.66526L7.8777 5.6623L7.14135 6.39865L8.88702 8.30301L11.9023 5.28777Z" fill="#1000CB"/>
<path d="M1.90436 3.80872H0.634787V0H1.90436V3.80872ZM0.634787 12.6957H1.90436V8.88702H0.634787V12.6957ZM1.26957 5.07829C0.571308 5.07829 0 5.6496 0 6.34787C0 7.05248 0.571308 7.61744 1.26957 7.61744C1.97419 7.61744 2.53915 7.05248 2.53915 6.34787C2.53915 5.6496 1.97419 5.07829 1.26957 5.07829ZM11.9023 5.28777L11.1659 4.39272L8.88702 6.66526L7.8777 5.6623L7.14135 6.39865L8.88702 8.30301L11.9023 5.28777Z" fill="#FAC371"/>
</svg>
