<svg width="13" height="14" viewBox="0 0 13 14" fill="none" xmlns="http://www.w3.org/2000/svg">
<path d="M10.9941 3.69531C11.6003 4.70145 11.8593 5.8788 11.7314 7.04648V7.71672C11.7306 8.42241 11.9155 9.11583 12.2676 9.72742" stroke="#1000CB" stroke-width="1.34047" stroke-linecap="round" stroke-linejoin="round"/>
<path d="M3.68945 6.37625C3.68945 5.66522 3.97191 4.98331 4.47468 4.48054C4.97745 3.97777 5.65934 3.69531 6.37039 3.69531C7.08144 3.69531 7.76334 3.97777 8.26608 4.48054C8.76889 4.98331 9.05132 5.66522 9.05132 6.37625V7.04648C9.05132 8.49667 9.52169 9.90771 10.3918 11.0679" stroke="#FAC371" stroke-width="1.34047" stroke-linecap="round" stroke-linejoin="round"/>
<path d="M6.37012 6.375V7.71547C6.36798 9.63193 6.95276 11.5031 8.04571 13.0773" stroke="#1000CB" stroke-width="1.34047" stroke-linecap="round" stroke-linejoin="round"/>
<path d="M3.68945 9.05664C3.85346 10.4573 4.26179 11.8184 4.89587 13.078" stroke="#FAC371" stroke-width="1.34047" stroke-linecap="round" stroke-linejoin="round"/>
<path d="M1.61135 11.7384C1.15911 10.2171 0.955418 8.63291 1.00814 7.04673V6.3765C1.00556 5.43405 1.25145 4.50758 1.721 3.69043C2.19056 2.87329 2.86719 2.19434 3.68273 1.72201C4.49827 1.24968 5.42391 1.00064 6.36632 1C7.30881 0.999365 8.23473 1.24714 9.05094 1.71836" stroke="#1000CB" stroke-width="1.34047" stroke-linecap="round" stroke-linejoin="round"/>
</svg>
