<svg width="13" height="14" viewBox="0 0 13 14" fill="none" xmlns="http://www.w3.org/2000/svg">
<path d="M11.1276 1.39095H8.22052C7.92842 0.584199 7.1634 0 6.25928 0C5.35516 0 4.59014 0.584199 4.29804 1.39095H1.39095C1.02205 1.39095 0.668254 1.5375 0.4074 1.79835C0.146546 2.0592 0 2.413 0 2.7819V12.5186C0 12.8875 0.146546 13.2413 0.4074 13.5021C0.668254 13.763 1.02205 13.9095 1.39095 13.9095H11.1276C11.4965 13.9095 11.8503 13.763 12.1112 13.5021C12.372 13.2413 12.5186 12.8875 12.5186 12.5186V2.7819C12.5186 2.413 12.372 2.0592 12.1112 1.79835C11.8503 1.5375 11.4965 1.39095 11.1276 1.39095ZM6.25928 1.39095C6.44373 1.39095 6.62063 1.46422 6.75105 1.59465C6.88148 1.72508 6.95475 1.90197 6.95475 2.08643C6.95475 2.27088 6.88148 2.44777 6.75105 2.5782C6.62063 2.70863 6.44373 2.7819 6.25928 2.7819C6.07483 2.7819 5.89793 2.70863 5.7675 2.5782C5.63708 2.44777 5.5638 2.27088 5.5638 2.08643C5.5638 1.90197 5.63708 1.72508 5.7675 1.59465C5.89793 1.46422 6.07483 1.39095 6.25928 1.39095ZM8.3457 12.5186L5.5638 9.73665H7.65023V4.86833H9.04118V9.73665H11.1276L8.3457 12.5186ZM4.86833 10.4321H3.47738V5.5638H1.39095L4.17285 2.7819L6.95475 5.5638H4.86833V10.4321Z" fill="#1000CB"/>
<path d="M6.25928 1.39095C6.44373 1.39095 6.62063 1.46422 6.75105 1.59465C6.88148 1.72508 6.95475 1.90197 6.95475 2.08643C6.95475 2.27088 6.88148 2.44777 6.75105 2.5782C6.62063 2.70863 6.44373 2.7819 6.25928 2.7819C6.07483 2.7819 5.89793 2.70863 5.7675 2.5782C5.63708 2.44777 5.5638 2.27088 5.5638 2.08643C5.5638 1.90197 5.63708 1.72508 5.7675 1.59465C5.89793 1.46422 6.07483 1.39095 6.25928 1.39095ZM8.3457 12.5186L5.5638 9.73665H7.65023V4.86833H9.04118V9.73665H11.1276L8.3457 12.5186ZM4.86833 10.4321H3.47738V5.5638H1.39095L4.17285 2.7819L6.95475 5.5638H4.86833V10.4321Z" fill="#FAC371"/>
</svg>
