<svg width="26" height="26" viewBox="0 0 26 26" fill="none" xmlns="http://www.w3.org/2000/svg">
<path d="M14.7293 7.10645C16.4854 7.10645 18.1695 7.80404 19.4113 9.04577C20.653 10.2875 21.3506 11.9716 21.3506 13.7277C21.3506 15.4838 20.653 17.1679 19.4113 18.4097C18.1695 19.6514 16.4854 20.349 14.7293 20.349C12.9732 20.349 11.2891 19.6514 10.0474 18.4097C8.80564 17.1679 8.10804 15.4838 8.10804 13.7277C8.10804 11.9716 8.80564 10.2875 10.0474 9.04577C11.2891 7.80404 12.9732 7.10645 14.7293 7.10645ZM14.7293 8.76176C13.4123 8.76176 12.1492 9.28496 11.2179 10.2163C10.2866 11.1476 9.76336 12.4107 9.76336 13.7277C9.76336 15.0448 10.2866 16.3079 11.2179 17.2392C12.1492 18.1705 13.4123 18.6937 14.7293 18.6937C16.0464 18.6937 17.3095 18.1705 18.2408 17.2392C19.1721 16.3079 19.6953 15.0448 19.6953 13.7277C19.6953 12.4107 19.1721 11.1476 18.2408 10.2163C17.3095 9.28496 16.0464 8.76176 14.7293 8.76176Z" fill="#1000CB"/>
<path d="M13.9017 10.4171H15.1431V13.5456L17.0716 15.4741L16.1943 16.3514L13.9017 14.0588V10.4171ZM3.96975 18.6937C3.75024 18.6937 3.53972 18.6065 3.38451 18.4513C3.22929 18.296 3.14209 18.0855 3.14209 17.866C3.14209 17.6465 3.22929 17.436 3.38451 17.2808C3.53972 17.1256 3.75024 17.0384 3.96975 17.0384H7.13968C7.39626 17.626 7.72732 18.1805 8.10804 18.6937H3.96975ZM4.79741 14.5554C4.5779 14.5554 4.36738 14.4682 4.21216 14.313C4.05695 14.1577 3.96975 13.9472 3.96975 13.7277C3.96975 13.5082 4.05695 13.2977 4.21216 13.1425C4.36738 12.9873 4.5779 12.9001 4.79741 12.9001H6.49411L6.45273 13.7277L6.49411 14.5554H4.79741ZM5.62507 10.4171C5.40556 10.4171 5.19504 10.3299 5.03982 10.1747C4.88461 10.0194 4.79741 9.80893 4.79741 9.58942C4.79741 9.36991 4.88461 9.1594 5.03982 9.00418C5.19504 8.84896 5.40556 8.76176 5.62507 8.76176H8.10804C7.72732 9.27491 7.39626 9.82944 7.13968 10.4171H5.62507Z" fill="#FAC371"/>
</svg>
