<svg width="16" height="17" viewBox="0 0 16 17" fill="none" xmlns="http://www.w3.org/2000/svg">
<path fill-rule="evenodd" clip-rule="evenodd" d="M5.41231 0.539165C5.41231 0.309349 5.22601 0.123047 4.9962 0.123047C4.76638 0.123047 4.58008 0.309349 4.58008 0.539165V0.890681C4.18219 0.909244 3.82054 0.937889 3.49178 0.98209C2.53912 1.11017 1.80059 1.37569 1.22288 1.9534C0.645166 2.53112 0.379647 3.26964 0.251565 4.2223C0.125966 5.1565 0.125971 6.35629 0.125977 7.8983L0.125977 7.9305V9.28473L0.125977 9.31693C0.125971 10.8589 0.125966 12.0587 0.251565 12.9929C0.379647 13.9456 0.645166 14.6841 1.22288 15.2618C1.80059 15.8395 2.53912 16.1051 3.49178 16.2331C4.42597 16.3587 5.62575 16.3587 7.16773 16.3587H7.16777H7.19998H8.73548H8.76769H8.76773C10.3097 16.3587 11.5095 16.3587 12.4437 16.2331C13.3963 16.1051 14.1349 15.8395 14.7126 15.2618C15.2903 14.6841 15.5558 13.9456 15.6839 12.9929C15.8095 12.0587 15.8095 10.859 15.8095 9.31699V9.31697V9.31696V9.31695V9.28474V7.9305V7.89829V7.89828V7.89827V7.89826C15.8095 6.35628 15.8095 5.15649 15.6839 4.2223C15.5558 3.26964 15.2903 2.53112 14.7126 1.9534C14.1349 1.37569 13.3963 1.11017 12.4437 0.98209C12.1147 0.937864 11.7529 0.909212 11.3547 0.890649V0.539165C11.3547 0.309349 11.1684 0.123047 10.9386 0.123047C10.7088 0.123047 10.5225 0.309349 10.5225 0.539165V0.86558C9.99325 0.856497 9.41017 0.856499 8.76768 0.856501H8.76767L8.73547 0.856501H7.19998L7.16778 0.856501C6.52501 0.856499 5.94171 0.856497 5.41231 0.865591V0.539165Z" fill="#1000CB"/>
<path d="M11.6795 5.67383H4.25391" stroke="#FAC371" stroke-width="0.832236" stroke-linecap="round" stroke-linejoin="round"/>
<ellipse cx="4.99647" cy="9.33995" rx="0.742563" ry="0.7335" fill="#FAC371"/>
<ellipse cx="4.99647" cy="12.2755" rx="0.742563" ry="0.7335" fill="#FAC371"/>
<ellipse cx="7.96717" cy="12.2755" rx="0.742563" ry="0.7335" fill="#FAC371"/>
<ellipse cx="10.9359" cy="12.2755" rx="0.742563" ry="0.7335" fill="#FAC371"/>
<ellipse cx="7.96717" cy="9.33995" rx="0.742563" ry="0.7335" fill="#FAC371"/>
<ellipse cx="10.9359" cy="9.33995" rx="0.742563" ry="0.7335" fill="#FAC371"/>
</svg>
