<svg width="16" height="16" viewBox="0 0 16 16" fill="none" xmlns="http://www.w3.org/2000/svg">
<path fill-rule="evenodd" clip-rule="evenodd" d="M8.8878 0.0589586L8.82761 0.0491667C8.55631 0.00475022 8.25414 -0.0447085 7.94006 0.0735359C7.68253 0.170499 7.43249 0.383653 7.29599 0.622631C7.19929 0.791981 7.16227 0.96238 7.14608 1.12533C7.13168 1.27032 7.13175 1.43998 7.13175 1.61734V1.63811V5.34662V5.36832C7.13175 5.74927 7.13175 6.06724 7.15293 6.327C7.17511 6.59794 7.22296 6.85226 7.34549 7.09281C7.53355 7.46181 7.83358 7.76184 8.20258 7.9499C8.44313 8.07243 8.69745 8.12028 8.96839 8.14246C9.22813 8.16364 9.54613 8.16364 9.92704 8.16364H9.94879H13.6573H13.6781C13.8554 8.16371 14.0251 8.16371 14.1701 8.14931C14.333 8.13312 14.5034 8.0961 14.6728 7.9994C14.9118 7.8629 15.1249 7.61293 15.2219 7.35533C15.3401 7.04125 15.2907 6.73915 15.2463 6.46778L15.2365 6.40759C14.7149 3.15104 12.1444 0.580518 8.8878 0.0589586ZM6.06199 0.823739C6.06199 0.653447 5.9809 0.493332 5.84363 0.39256C5.70635 0.291789 5.52929 0.262406 5.36683 0.313434C2.25688 1.29021 0 4.19534 0 7.62897C0 11.8632 3.43247 15.2956 7.66663 15.2956C11.1003 15.2956 14.0054 13.0388 14.9822 9.92882C15.0332 9.76636 15.0038 9.58928 14.9031 9.45199C14.8023 9.31471 14.6422 9.23362 14.4719 9.23362H10.662C9.75445 9.23362 9.10596 9.23319 8.59768 9.19168C8.0956 9.15068 7.77753 9.07223 7.52221 8.94214C7.01899 8.68576 6.60992 8.27661 6.35346 7.77339C6.22341 7.51808 6.14496 7.2 6.10393 6.69792C6.0624 6.18964 6.06199 5.54117 6.06199 4.63366V0.823739Z" fill="#FAC371"/>
<path fill-rule="evenodd" clip-rule="evenodd" d="M6.06199 0.823374C6.06199 0.653082 5.9809 0.492967 5.84363 0.392196C5.70635 0.291424 5.52929 0.262041 5.36683 0.313069C2.25688 1.28985 0 4.19498 0 7.62861C0 11.8628 3.43247 15.2952 7.66663 15.2952C11.1003 15.2952 14.0054 13.0384 14.9822 9.92846C15.0332 9.76599 15.0038 9.58891 14.9031 9.45163C14.8023 9.31434 14.6422 9.23325 14.4719 9.23325H10.662C9.75445 9.23325 9.10596 9.23283 8.59768 9.19132C8.0956 9.15031 7.77753 9.07186 7.52221 8.94178C7.01899 8.68539 6.60992 8.27624 6.35346 7.77303C6.22341 7.51771 6.14496 7.19964 6.10393 6.69756C6.0624 6.18927 6.06199 5.5408 6.06199 4.6333V0.823374Z" fill="#1000CB"/>
</svg>
