<svg width="20" height="16" viewBox="0 0 20 16" fill="none" xmlns="http://www.w3.org/2000/svg">
<path d="M5.45399 7.95969C7.04928 7.95969 8.34253 6.50161 8.34253 4.703C8.34253 2.90437 7.04928 1.44629 5.45399 1.44629C3.85868 1.44629 2.56543 2.90437 2.56543 4.703C2.56543 6.50161 3.85868 7.95969 5.45399 7.95969Z" fill="#FAC371"/>
<path d="M8.74588 9.76889C7.61613 9.12207 6.36925 8.86426 5.45614 8.86426C3.66765 8.86426 0 10.1009 0 12.5733V14.473H6.01781V13.7461C6.01781 12.8867 6.33875 12.0251 6.90042 11.3068C7.34855 10.7332 7.97599 10.2009 8.74588 9.76889Z" fill="#1000CB"/>
<path d="M12.9968 9.4082C10.9078 9.4082 6.73828 10.8629 6.73828 13.7505V15.9216H19.2553V13.7505C19.2553 10.8629 15.0858 9.4082 12.9968 9.4082Z" fill="#1000CB"/>
<path d="M12.9963 7.9608C14.9461 7.9608 16.5267 6.17871 16.5267 3.9804C16.5267 1.78207 14.9461 0 12.9963 0C11.0464 0 9.46582 1.78207 9.46582 3.9804C9.46582 6.17871 11.0464 7.9608 12.9963 7.9608Z" fill="#FAC371"/>
</svg>
