<svg width="14" height="18" viewBox="0 0 14 18" fill="none" xmlns="http://www.w3.org/2000/svg">
<path d="M1 16.4286V2.71429C1 2.25963 1.18061 1.82359 1.5021 1.5021C1.82359 1.18061 2.25963 1 2.71429 1H11.2857C11.7404 1 12.1764 1.18061 12.4979 1.5021C12.8194 1.82359 13 2.25963 13 2.71429V16.4286L10.4286 14.7143L8.71429 16.4286L7 14.7143L5.28571 16.4286L3.57143 14.7143L1 16.4286Z" fill="#1000CB" stroke="#1000CB" stroke-width="1.28571" stroke-linecap="round" stroke-linejoin="round"/>
<path d="M7.44689 13.2438L5 8.97147V8.40182H5.28482C5.74227 8.40182 6.12635 8.35867 6.43706 8.27235C6.75641 8.18604 7.00671 8.04363 7.18796 7.84512C7.36921 7.64661 7.4771 7.37473 7.51163 7.02949H5V6.20091H7.49868C7.43826 5.88156 7.31743 5.62263 7.13618 5.42412C6.95493 5.21697 6.70894 5.06593 6.39823 4.97099C6.09614 4.87605 5.72501 4.82858 5.28482 4.82858H5V4H10.3599V4.82858H7.91297C8.11148 4.99257 8.27547 5.18677 8.40494 5.41117C8.5344 5.63558 8.6164 5.89882 8.65092 6.20091H10.3599V7.02949H8.67681C8.6164 7.65955 8.37473 8.15152 7.95181 8.50539C7.53752 8.85063 6.98513 9.07072 6.29465 9.16567L8.76744 13.2438H7.44689Z" fill="#FAC371"/>
</svg>
