<svg width="25" height="25" viewBox="0 0 25 25" fill="none" xmlns="http://www.w3.org/2000/svg">
<path d="M16.5681 4C16.3157 3.99997 16.0699 3.99994 15.8618 4.01695C15.6332 4.03563 15.3634 4.07969 15.092 4.21799C14.7157 4.40974 14.4097 4.7157 14.218 5.09202C14.0797 5.36345 14.0356 5.63318 14.017 5.86178C13.9999 6.06993 14 6.31572 14 6.56811V9.4319C14 9.68429 13.9999 9.93008 14.017 10.1382C14.0356 10.3668 14.0797 10.6366 14.218 10.908C14.4097 11.2843 14.7157 11.5903 15.092 11.782C15.3634 11.9203 15.6332 11.9644 15.8618 11.9831C16.0699 12.0001 16.3157 12 16.5681 12H19.4319C19.6843 12 19.9301 12.0001 20.1382 11.9831C20.3668 11.9644 20.6366 11.9203 20.908 11.782C21.2843 11.5903 21.5903 11.2843 21.782 10.908C21.9203 10.6366 21.9644 10.3668 21.9831 10.1382C22.0001 9.93008 22 9.68429 22 9.4319V6.56811C22 6.31572 22.0001 6.06993 21.9831 5.86178C21.9644 5.63318 21.9203 5.36345 21.782 5.09202C21.5903 4.7157 21.2843 4.40974 20.908 4.21799C20.6366 4.07969 20.3668 4.03563 20.1382 4.01695C19.9301 3.99994 19.6843 3.99997 19.4319 4L16.5681 4Z" fill="#FAC371"/>
<path d="M6.56811 14C6.31572 14 6.06993 13.9999 5.86178 14.017C5.63318 14.0356 5.36345 14.0797 5.09202 14.218C4.7157 14.4097 4.40974 14.7157 4.21799 15.092C4.07969 15.3634 4.03563 15.6332 4.01695 15.8618C3.99994 16.0699 3.99997 16.3157 4 16.5681L4 19.4319C3.99997 19.6843 3.99994 19.9301 4.01695 20.1382C4.03563 20.3668 4.07969 20.6366 4.21799 20.908C4.40974 21.2843 4.7157 21.5903 5.09202 21.782C5.36345 21.9203 5.63318 21.9644 5.86178 21.9831C6.06993 22.0001 6.31572 22 6.56811 22H9.4319C9.68429 22 9.93008 22.0001 10.1382 21.9831C10.3668 21.9644 10.6366 21.9203 10.908 21.782C11.2843 21.5903 11.5903 21.2843 11.782 20.908C11.9203 20.6366 11.9644 20.3668 11.9831 20.1382C12.0001 19.9301 12 19.6843 12 19.4319V16.5681C12 16.3157 12.0001 16.0699 11.9831 15.8618C11.9644 15.6332 11.9203 15.3634 11.782 15.092C11.5903 14.7157 11.2843 14.4097 10.908 14.218C10.6366 14.0797 10.3668 14.0356 10.1382 14.017C9.93008 13.9999 9.68429 14 9.4319 14H6.56811Z" fill="#FAC371"/>
<path d="M16.5681 14C16.3157 14 16.0699 13.9999 15.8618 14.017C15.6332 14.0356 15.3634 14.0797 15.092 14.218C14.7157 14.4097 14.4097 14.7157 14.218 15.092C14.0797 15.3634 14.0356 15.6332 14.017 15.8618C13.9999 16.0699 14 16.3157 14 16.5681V19.4319C14 19.6843 13.9999 19.9301 14.017 20.1382C14.0356 20.3668 14.0797 20.6366 14.218 20.908C14.4097 21.2843 14.7157 21.5903 15.092 21.782C15.3634 21.9203 15.6332 21.9644 15.8618 21.9831C16.0699 22.0001 16.3157 22 16.5681 22H19.4319C19.6843 22 19.9301 22.0001 20.1382 21.9831C20.3668 21.9644 20.6366 21.9203 20.908 21.782C21.2843 21.5903 21.5903 21.2843 21.782 20.908C21.9203 20.6366 21.9644 20.3668 21.9831 20.1382C22.0001 19.9301 22 19.6843 22 19.4319V16.5681C22 16.3157 22.0001 16.0699 21.9831 15.8618C21.9644 15.6332 21.9203 15.3634 21.782 15.092C21.5903 14.7157 21.2843 14.4097 20.908 14.218C20.6366 14.0797 20.3668 14.0356 20.1382 14.017C19.9301 13.9999 19.6843 14 19.4319 14H16.5681Z" fill="#FAC371"/>
<path d="M6.56811 4C6.31573 3.99997 6.06993 3.99994 5.86178 4.01695C5.63318 4.03563 5.36345 4.07969 5.09202 4.21799C4.7157 4.40974 4.40974 4.7157 4.21799 5.09202C4.07969 5.36345 4.03563 5.63318 4.01695 5.86178C3.99994 6.06993 3.99997 6.31572 4 6.56809L4 9.4319C3.99997 9.68428 3.99994 9.93008 4.01695 10.1382C4.03563 10.3668 4.07969 10.6366 4.21799 10.908C4.40974 11.2843 4.7157 11.5903 5.09202 11.782C5.36345 11.9203 5.63318 11.9644 5.86178 11.9831C6.06992 12.0001 6.3157 12 6.56807 12H9.4319C9.68427 12 9.93009 12.0001 10.1382 11.9831C10.3668 11.9644 10.6366 11.9203 10.908 11.782C11.2843 11.5903 11.5903 11.2843 11.782 10.908C11.9203 10.6366 11.9644 10.3668 11.9831 10.1382C12.0001 9.93009 12 9.68431 12 9.43194V6.56811C12 6.31574 12.0001 6.06992 11.9831 5.86178C11.9644 5.63318 11.9203 5.36345 11.782 5.09202C11.5903 4.7157 11.2843 4.40974 10.908 4.21799C10.6366 4.07969 10.3668 4.03563 10.1382 4.01695C9.93008 3.99994 9.68429 3.99997 9.43192 4L6.56811 4Z" fill="#1000CB"/>
</svg>
