<svg width="18" height="16" viewBox="0 0 18 16" fill="none" xmlns="http://www.w3.org/2000/svg">
<path d="M7.30371 2.57598C7.30371 2.99395 7.46974 3.39481 7.76531 3.69036C8.06089 3.98592 8.46174 4.15195 8.87969 4.15195C9.29764 4.15195 9.69849 3.98592 9.99406 3.69036C10.2896 3.39481 10.4557 2.99395 10.4557 2.57598C10.4557 2.158 10.2896 1.75715 9.99406 1.4616C9.69849 1.16604 9.29764 1 8.87969 1C8.46174 1 8.06089 1.16604 7.76531 1.4616C7.46974 1.75715 7.30371 2.158 7.30371 2.57598Z" fill="#FAC371" stroke="#1000CB" stroke-width="1.18198" stroke-linecap="round" stroke-linejoin="round"/>
<path d="M4.15234 8.0916C4.15234 8.50955 4.31838 8.9104 4.61394 9.20597C4.90949 9.50155 5.31035 9.66758 5.72832 9.66758C6.14629 9.66758 6.54715 9.50155 6.8427 9.20597C7.13826 8.9104 7.3043 8.50955 7.3043 8.0916C7.3043 7.67365 7.13826 7.2728 6.8427 6.97723C6.54715 6.68165 6.14629 6.51562 5.72832 6.51562C5.31035 6.51562 4.90949 6.68165 4.61394 6.97723C4.31838 7.2728 4.15234 7.67365 4.15234 8.0916Z" stroke="#1000CB" stroke-width="1.18198" stroke-linecap="round" stroke-linejoin="round"/>
<path d="M7.30469 13.6082C7.30469 14.0262 7.47072 14.427 7.76629 14.7226C8.06187 15.0182 8.46272 15.1842 8.88066 15.1842C9.29861 15.1842 9.69946 15.0182 9.99504 14.7226C10.2906 14.427 10.4566 14.0262 10.4566 13.6082C10.4566 13.1903 10.2906 12.7894 9.99504 12.4938C9.69946 12.1983 9.29861 12.0322 8.88066 12.0322C8.46272 12.0322 8.06187 12.1983 7.76629 12.4938C7.47072 12.7894 7.30469 13.1903 7.30469 13.6082Z" stroke="#1000CB" stroke-width="1.18198" stroke-linecap="round" stroke-linejoin="round"/>
<path d="M13.6074 13.6082C13.6074 14.0262 13.7735 14.427 14.069 14.7226C14.3646 15.0182 14.7654 15.1842 15.1834 15.1842C15.6013 15.1842 16.0022 15.0182 16.2978 14.7226C16.5933 14.427 16.7594 14.0262 16.7594 13.6082C16.7594 13.1903 16.5933 12.7894 16.2978 12.4938C16.0022 12.1983 15.6013 12.0322 15.1834 12.0322C14.7654 12.0322 14.3646 12.1983 14.069 12.4938C13.7735 12.7894 13.6074 13.1903 13.6074 13.6082Z" stroke="#1000CB" stroke-width="1.18198" stroke-linecap="round" stroke-linejoin="round"/>
<path d="M1 13.6082C1 14.0262 1.16604 14.427 1.4616 14.7226C1.75715 15.0182 2.158 15.1842 2.57598 15.1842C2.99395 15.1842 3.39481 15.0182 3.69036 14.7226C3.98592 14.427 4.15195 14.0262 4.15195 13.6082C4.15195 13.1903 3.98592 12.7894 3.69036 12.4938C3.39481 12.1983 2.99395 12.0322 2.57598 12.0322C2.158 12.0322 1.75715 12.1983 1.4616 12.4938C1.16604 12.7894 1 13.1903 1 13.6082Z" stroke="#1000CB" stroke-width="1.18198" stroke-linecap="round" stroke-linejoin="round"/>
<path d="M10.4551 8.0916C10.4551 8.50955 10.6211 8.9104 10.9167 9.20597C11.2123 9.50155 11.6131 9.66758 12.0311 9.66758C12.449 9.66758 12.8499 9.50155 13.1454 9.20597C13.441 8.9104 13.607 8.50955 13.607 8.0916C13.607 7.67365 13.441 7.2728 13.1454 6.97723C12.8499 6.68165 12.449 6.51562 12.0311 6.51562C11.6131 6.51562 11.2123 6.68165 10.9167 6.97723C10.6211 7.2728 10.4551 7.67365 10.4551 8.0916Z" stroke="#1000CB" stroke-width="1.18198" stroke-linecap="round" stroke-linejoin="round"/>
<path d="M3.36426 12.0319L4.94023 9.66797" stroke="#1000CB" stroke-width="1.18198" stroke-linecap="round" stroke-linejoin="round"/>
<path d="M6.51562 6.51631L8.0916 4.15234" stroke="#1000CB" stroke-width="1.18198" stroke-linecap="round" stroke-linejoin="round"/>
<path d="M9.66797 4.15234L11.2439 6.51631" stroke="#1000CB" stroke-width="1.18198" stroke-linecap="round" stroke-linejoin="round"/>
<path d="M12.8193 9.66797L14.3953 12.0319" stroke="#1000CB" stroke-width="1.18198" stroke-linecap="round" stroke-linejoin="round"/>
<path d="M11.2439 9.66797L9.66797 12.0319" stroke="#1000CB" stroke-width="1.18198" stroke-linecap="round" stroke-linejoin="round"/>
<path d="M6.51562 9.66797L8.0916 12.0319" stroke="#1000CB" stroke-width="1.18198" stroke-linecap="round" stroke-linejoin="round"/>
</svg>
