<svg width="16" height="16" viewBox="0 0 16 16" fill="none" xmlns="http://www.w3.org/2000/svg">
<path d="M15.8716 3.40101C15.8716 2.79967 15.6327 2.22295 15.2075 1.79774C14.7823 1.37251 14.2055 1.13363 13.6042 1.13363H13.0374V0.582738C13.0374 0.277709 12.8028 0.0158945 12.4978 0.000653302C12.4212 -0.0030269 12.3446 0.00886859 12.2727 0.0356523C12.2008 0.0624359 12.135 0.10355 12.0795 0.156486C12.0239 0.209421 11.9797 0.273081 11.9495 0.3436C11.9193 0.414137 11.9037 0.490064 11.9037 0.566791V1.13363H3.96789V0.582738C3.96789 0.277709 3.73336 0.0158945 3.42833 0.000653302C3.35169 -0.0030269 3.2751 0.00886859 3.20319 0.0356523C3.13129 0.0624359 3.06557 0.10355 3.01001 0.156486C2.95446 0.209421 2.91024 0.273081 2.88002 0.3436C2.84979 0.414137 2.83422 0.490064 2.8342 0.566791V1.13363H2.26736C1.66601 1.13363 1.0893 1.37251 0.66409 1.79774C0.238878 2.22295 0 2.79967 0 3.40101V3.82615C0 3.86373 0.0149253 3.89977 0.0415046 3.92635C0.0680838 3.95293 0.104124 3.96785 0.141706 3.96785H15.7299C15.7675 3.96785 15.8035 3.95293 15.8301 3.92635C15.8567 3.89977 15.8716 3.86373 15.8716 3.82615V3.40101Z" fill="#FAC371"/>
<path d="M0 13.6042C0 14.2055 0.238878 14.7823 0.66409 15.2075C1.0893 15.6327 1.66601 15.8716 2.26736 15.8716H13.6042C14.2055 15.8716 14.7823 15.6327 15.2075 15.2075C15.6327 14.7823 15.8716 14.2055 15.8716 13.6042V5.20784C15.8716 5.17966 15.8604 5.15262 15.8404 5.1327C15.8205 5.11277 15.7935 5.10156 15.7653 5.10156H0.10628C0.0780835 5.10156 0.0510581 5.11277 0.031133 5.1327C0.0111893 5.15262 0 5.17966 0 5.20784V13.6042ZM12.1871 6.23525C12.3553 6.23525 12.5197 6.28512 12.6595 6.37855C12.7993 6.47197 12.9083 6.60477 12.9726 6.76012C13.037 6.91549 13.0538 7.08645 13.021 7.25139C12.9882 7.41633 12.9072 7.56783 12.7883 7.68673C12.6694 7.80565 12.5179 7.88664 12.353 7.91944C12.1881 7.95225 12.0171 7.93541 11.8617 7.87106C11.7064 7.80669 11.5736 7.69772 11.4801 7.55789C11.3867 7.41806 11.3368 7.25368 11.3368 7.08551C11.3368 6.86001 11.4264 6.64373 11.5859 6.4843C11.7453 6.32484 11.9616 6.23525 12.1871 6.23525ZM12.1871 9.06947C12.3553 9.06947 12.5197 9.11934 12.6595 9.21275C12.7993 9.30619 12.9083 9.43897 12.9726 9.59434C13.037 9.74971 13.0538 9.92067 13.021 10.0856C12.9882 10.2505 12.9072 10.402 12.7883 10.521C12.6694 10.6399 12.5179 10.7208 12.353 10.7537C12.1881 10.7865 12.0171 10.7696 11.8617 10.7053C11.7064 10.6409 11.5736 10.5319 11.4801 10.3921C11.3867 10.2523 11.3368 10.0879 11.3368 9.91972C11.3368 9.69423 11.4264 9.47795 11.5859 9.31849C11.7453 9.15904 11.9616 9.06947 12.1871 9.06947ZM9.35289 6.23525C9.52107 6.23525 9.68545 6.28512 9.82528 6.37855C9.96511 6.47197 10.0741 6.60477 10.1384 6.76012C10.2028 6.91549 10.2196 7.08645 10.1868 7.25139C10.154 7.41633 10.073 7.56783 9.95412 7.68673C9.8352 7.80565 9.6837 7.88664 9.51878 7.91944C9.35384 7.95225 9.18288 7.93541 9.02751 7.87106C8.87214 7.80669 8.73936 7.69772 8.64592 7.55789C8.5525 7.41806 8.50264 7.25368 8.50264 7.08551C8.50264 6.86001 8.5922 6.64373 8.75166 6.4843C8.91112 6.32484 9.1274 6.23525 9.35289 6.23525ZM9.35289 9.06947C9.52107 9.06947 9.68545 9.11934 9.82528 9.21275C9.96511 9.30619 10.0741 9.43897 10.1384 9.59434C10.2028 9.74971 10.2196 9.92067 10.1868 10.0856C10.154 10.2505 10.073 10.402 9.95412 10.521C9.8352 10.6399 9.6837 10.7208 9.51878 10.7537C9.35384 10.7865 9.18288 10.7696 9.02751 10.7053C8.87214 10.6409 8.73936 10.5319 8.64592 10.3921C8.5525 10.2523 8.50264 10.0879 8.50264 9.91972C8.50264 9.69423 8.5922 9.47795 8.75166 9.31849C8.91112 9.15904 9.1274 9.06947 9.35289 9.06947ZM9.35289 11.9037C9.52107 11.9037 9.68545 11.9535 9.82528 12.047C9.96511 12.1404 10.0741 12.2732 10.1384 12.4286C10.2028 12.5839 10.2196 12.7549 10.1868 12.9198C10.154 13.0848 10.073 13.2363 9.95412 13.3552C9.8352 13.4741 9.6837 13.5551 9.51878 13.5879C9.35384 13.6207 9.18288 13.6038 9.02751 13.5395C8.87214 13.4751 8.73936 13.3661 8.64592 13.2263C8.5525 13.0865 8.50264 12.9221 8.50264 12.7539C8.50264 12.5284 8.5922 12.3122 8.75166 12.1527C8.91112 11.9933 9.1274 11.9037 9.35289 11.9037ZM6.51869 9.06947C6.68685 9.06947 6.85125 9.11934 6.99106 9.21275C7.13089 9.30619 7.23986 9.43897 7.30423 9.59434C7.36858 9.74971 7.38542 9.92067 7.35261 10.0856C7.3198 10.2505 7.23882 10.402 7.1199 10.521C7.001 10.6399 6.8495 10.7208 6.68456 10.7537C6.51962 10.7865 6.34866 10.7696 6.19331 10.7053C6.03794 10.6409 5.90514 10.5319 5.81172 10.3921C5.71829 10.2523 5.66842 10.0879 5.66842 9.91972C5.66842 9.69423 5.75801 9.47795 5.91746 9.31849C6.07692 9.15904 6.29318 9.06947 6.51869 9.06947ZM6.51869 11.9037C6.68685 11.9037 6.85125 11.9535 6.99106 12.047C7.13089 12.1404 7.23986 12.2732 7.30423 12.4286C7.36858 12.5839 7.38542 12.7549 7.35261 12.9198C7.3198 13.0848 7.23882 13.2363 7.1199 13.3552C7.001 13.4741 6.8495 13.5551 6.68456 13.5879C6.51962 13.6207 6.34866 13.6038 6.19331 13.5395C6.03794 13.4751 5.90514 13.3661 5.81172 13.2263C5.71829 13.0865 5.66842 12.9221 5.66842 12.7539C5.66842 12.5284 5.75801 12.3122 5.91746 12.1527C6.07692 11.9933 6.29318 11.9037 6.51869 11.9037ZM3.68447 9.06947C3.85263 9.06947 4.01703 9.11934 4.15686 9.21275C4.29667 9.30619 4.40566 9.43897 4.47001 9.59434C4.53436 9.74971 4.5512 9.92067 4.51839 10.0856C4.48559 10.2505 4.4046 10.402 4.2857 10.521C4.16678 10.6399 4.01528 10.7208 3.85034 10.7537C3.68542 10.7865 3.51446 10.7696 3.35909 10.7053C3.20372 10.6409 3.07092 10.5319 2.9775 10.3921C2.88407 10.2523 2.8342 10.0879 2.8342 9.91972C2.8342 9.69423 2.92379 9.47795 3.08324 9.31849C3.2427 9.15904 3.45896 9.06947 3.68447 9.06947ZM3.68447 11.9037C3.85263 11.9037 4.01703 11.9535 4.15686 12.047C4.29667 12.1404 4.40566 12.2732 4.47001 12.4286C4.53436 12.5839 4.5512 12.7549 4.51839 12.9198C4.48559 13.0848 4.4046 13.2363 4.2857 13.3552C4.16678 13.4741 4.01528 13.5551 3.85034 13.5879C3.68542 13.6207 3.51446 13.6038 3.35909 13.5395C3.20372 13.4751 3.07092 13.3661 2.9775 13.2263C2.88407 13.0865 2.8342 12.9221 2.8342 12.7539C2.8342 12.5284 2.92379 12.3122 3.08324 12.1527C3.2427 11.9933 3.45896 11.9037 3.68447 11.9037Z" fill="#1000CB"/>
</svg>
