<svg width="14" height="16" viewBox="0 0 14 16" fill="none" xmlns="http://www.w3.org/2000/svg">
<path d="M5.68846 13.9834H2.4426C2.06 13.9834 1.69307 13.8314 1.42253 13.5609C1.15199 13.2904 1 12.9234 1 12.5408V2.4426C1 2.06 1.15199 1.69307 1.42253 1.42253C1.69307 1.15199 2.06 1 2.4426 1H7.49172L9.29497 2.80326L11.0982 4.60651V8.21302L8.39335 11.0982L5.68846 13.9834Z" fill="#1000CB"/>
<path d="M7.49172 12.5408H12.5408M12.5408 12.5408L10.3769 14.7047M12.5408 12.5408L10.4425 10.4425M5.68846 13.9834H2.4426C2.06 13.9834 1.69307 13.8314 1.42253 13.5609C1.15199 13.2904 1 12.9234 1 12.5408V2.4426C1 2.06 1.15199 1.69307 1.42253 1.42253C1.69307 1.15199 2.06 1 2.4426 1H7.49172L9.29497 2.80326L11.0982 4.60651V8.21302L8.39335 11.0982L5.68846 13.9834Z" stroke="#1000CB" stroke-width="1.04917" stroke-linecap="round" stroke-linejoin="round"/>
<path d="M7.2959 1.52441V4.35716C7.2959 4.57977 7.38433 4.79326 7.54173 4.95066C7.69914 5.10807 7.91263 5.1965 8.13523 5.1965H10.4434" fill="#FAC371"/>
<path d="M7.2959 1.52441V4.35716C7.2959 4.57977 7.38433 4.79326 7.54173 4.95066C7.69914 5.10807 7.91263 5.1965 8.13523 5.1965H10.4434" stroke="#1000CB" stroke-width="1.67867" stroke-linecap="round" stroke-linejoin="round"/>
<path d="M2.1748 7.0498H9.1748" stroke="#FAC371" stroke-linecap="round"/>
<path d="M2.1748 9.0498H7.17481" stroke="#FAC371" stroke-linecap="round"/>
<path d="M2.1748 11.0498H5.6748" stroke="#FAC371" stroke-linecap="round"/>
</svg>
