<svg width="15" height="16" viewBox="0 0 15 16" fill="none" xmlns="http://www.w3.org/2000/svg">
<path d="M12.5425 1.56782H9.2658C8.93656 0.658483 8.07426 0 7.05518 0C6.03609 0 5.1738 0.658483 4.84455 1.56782H1.56782C0.705518 1.56782 0 2.27333 0 3.13563V14.1104C0 14.9805 0.705518 15.6782 1.56782 15.6782H12.5425C13.4127 15.6782 14.1104 14.9805 14.1104 14.1104V3.13563C14.1104 2.27333 13.4127 1.56782 12.5425 1.56782ZM7.05518 1.56782C7.48633 1.56782 7.83908 1.92058 7.83908 2.35173C7.83908 2.78287 7.48633 3.13563 7.05518 3.13563C6.62403 3.13563 6.27127 2.78287 6.27127 2.35173C6.27127 1.92058 6.62403 1.56782 7.05518 1.56782ZM9.83021 11.0688L8.71706 12.1819L7.05518 10.5122L5.39329 12.1819L4.28798 11.0688L5.94987 9.4069L4.28798 7.74502L5.39329 6.6397L7.05518 8.30159L8.71706 6.6397L9.83021 7.74502L8.16049 9.4069L9.83021 11.0688Z" fill="#1000CB"/>
</svg>
