<svg width="14" height="16" viewBox="0 0 14 16" fill="none" xmlns="http://www.w3.org/2000/svg">
<path d="M8.62773 1.12732H4.31375C4.0152 1.12732 3.77637 0.878534 3.77637 0.567548C3.77637 0.256563 4.0152 0 4.31375 0H8.62773C8.92628 0 9.16511 0.248788 9.16511 0.559774C9.16511 0.870759 8.92628 1.12732 8.62773 1.12732Z" fill="#FAC371"/>
<path d="M8.71011 13.9714V11.6856C8.71011 10.6982 9.27735 10.1074 10.2252 10.1074H12.4195C12.5613 10.1074 12.6882 10.1229 12.8151 10.154C12.8972 9.71863 12.942 9.2677 12.942 8.809C12.942 5.09269 10.0386 2.06836 6.47101 2.06836C2.90336 2.06836 0 5.09269 0 8.809C0 12.5253 2.90336 15.5496 6.47101 15.5496C7.37411 15.5496 8.23243 15.3552 9.01612 15.0054C8.82206 14.741 8.71011 14.399 8.71011 13.9714Z" fill="#1000CB"/>
<path d="M12.4194 10.1055H10.2251C9.2772 10.1055 8.70996 10.6963 8.70996 11.6837V13.9695C8.70996 14.9568 9.2772 15.5477 10.2251 15.5477H12.4194C13.3673 15.5477 13.9345 14.9568 13.9345 13.9695V11.6837C13.9345 10.6963 13.3673 10.1055 12.4194 10.1055ZM12.2104 13.573L11.3297 14.1016C11.1506 14.2105 10.9714 14.2649 10.8072 14.2649C10.6804 14.2649 10.5684 14.2338 10.4639 14.1716C10.2251 14.0239 10.0907 13.7362 10.0907 13.3553V12.2979C10.0907 11.917 10.2251 11.6293 10.4639 11.4816C10.7028 11.3339 11.0088 11.365 11.3297 11.5516L12.2104 12.0802C12.5239 12.2746 12.703 12.5389 12.703 12.8266C12.703 13.1143 12.5313 13.3786 12.2104 13.573Z" fill="#FAC371"/>
<path d="M6.47091 9.13554C6.1649 9.13554 5.91113 8.87121 5.91113 8.55245V4.66513C5.91113 4.34637 6.1649 4.08203 6.47091 4.08203C6.77692 4.08203 7.03068 4.34637 7.03068 4.66513V8.55245C7.03068 8.87121 6.77692 9.13554 6.47091 9.13554Z" fill="#FAC371"/>
</svg>
