<svg width="16" height="17" viewBox="0 0 16 17" fill="none" xmlns="http://www.w3.org/2000/svg">
<path d="M7.92895 3.39812C7.6953 3.39812 7.47122 3.30862 7.306 3.1493C7.14078 2.98998 7.04796 2.7739 7.04796 2.54859C7.04796 2.32328 7.14078 2.1072 7.306 1.94788C7.47122 1.78857 7.6953 1.69906 7.92895 1.69906C8.16261 1.69906 8.38669 1.78857 8.55191 1.94788C8.71713 2.1072 8.80995 2.32328 8.80995 2.54859C8.80995 2.7739 8.71713 2.98998 8.55191 3.1493C8.38669 3.30862 8.16261 3.39812 7.92895 3.39812ZM14.0959 1.69906H10.4134C10.0433 0.713606 9.07425 0 7.92895 0C6.78366 0 5.81457 0.713606 5.44455 1.69906H1.76199C1.29468 1.69906 0.846512 1.87807 0.516075 2.19671C0.185638 2.51534 0 2.9475 0 3.39812V15.2916C0 15.7422 0.185638 16.1743 0.516075 16.493C0.846512 16.8116 1.29468 16.9906 1.76199 16.9906H14.0959C14.5632 16.9906 15.0114 16.8116 15.3418 16.493C15.6723 16.1743 15.8579 15.7422 15.8579 15.2916V3.39812C15.8579 2.9475 15.6723 2.51534 15.3418 2.19671C15.0114 1.87807 14.5632 1.69906 14.0959 1.69906Z" fill="#1000CB"/>
<path d="M8.209 7.84953V7.52453H7.884H7.32915H7.00415V7.84953V10.069V10.2506L7.15886 10.3458L8.12854 10.9423C7.88554 11.331 7.74396 11.7892 7.74396 12.2884C7.74396 12.56 7.7867 12.8225 7.86633 13.0683C7.81087 13.0715 7.75514 13.0731 7.69905 13.0731C5.84407 13.0731 4.325 11.554 4.325 9.69905C4.325 7.84407 5.84407 6.325 7.69905 6.325C9.55404 6.325 11.0731 7.84407 11.0731 9.69905C11.0731 9.75514 11.0715 9.81087 11.0683 9.86633C10.8225 9.7867 10.56 9.74396 10.2884 9.74396C9.83015 9.74396 9.39947 9.86579 9.02673 10.0797L8.209 9.58902V7.84953ZM9.91848 12.2435H10.2435V11.9185V11.1338H10.3333V11.9185V12.2435H10.6583H11.443V12.3333H10.6583H10.3333V12.6583V13.443H10.2435V12.6583V12.3333H9.91848H9.13377V12.2435H9.91848Z" stroke="#FAC371" stroke-width="0.65"/>
</svg>
