<svg width="26" height="26" viewBox="0 0 26 26" fill="none" xmlns="http://www.w3.org/2000/svg">
<path d="M13.0882 5.6826L11.2538 9.95276H9.41938C9.11491 9.95276 8.81805 9.9756 8.52881 10.0365L9.28998 8.20968L9.32042 8.14118L9.3661 8.01939C9.38893 7.96611 9.40415 7.92044 9.42699 7.88238C10.3099 5.83483 11.2995 5.19545 13.0882 5.6826Z" fill="#FAC371"/>
<path d="M18.2566 10.1577L18.2414 10.1501C17.7847 10.0207 17.3203 9.95217 16.8484 9.95217H12.0835L13.7961 5.97125L13.819 5.91797C13.9255 5.95603 14.0397 6.00931 14.1539 6.04737L15.8361 6.75526C16.7723 7.14345 17.4269 7.54687 17.8303 8.03402C17.8988 8.12536 17.9597 8.20909 18.0206 8.30804C18.0891 8.4146 18.1424 8.52117 18.1729 8.63534C18.2033 8.70385 18.2261 8.76474 18.2414 8.83325C18.3555 9.22144 18.3631 9.66292 18.2566 10.1577Z" fill="#FAC371"/>
<path d="M17.9223 11.246C17.5798 11.147 17.2221 11.0938 16.8491 11.0938H9.42007C8.90248 11.0938 8.41533 11.1927 7.95863 11.3906C6.63419 11.9615 5.70557 13.2783 5.70557 14.8083V16.2925C5.70557 16.4752 5.72079 16.6503 5.74362 16.833C5.91108 19.2535 7.20507 20.5475 9.62559 20.7073C9.80066 20.7302 9.97573 20.7454 10.166 20.7454H16.1031C18.9195 20.7454 20.4037 19.4057 20.5484 16.7416C20.556 16.597 20.5636 16.4448 20.5636 16.2925V14.8083C20.5636 13.1261 19.4447 11.7103 17.9223 11.246ZM15.0375 16.323H13.7055V17.7007C13.7055 18.0128 13.4467 18.2716 13.1346 18.2716C12.8225 18.2716 12.5637 18.0128 12.5637 17.7007V16.323H11.2317C10.9196 16.323 10.6608 16.0718 10.6608 15.7521C10.6608 15.44 10.9196 15.1812 11.2317 15.1812H12.5637V13.8949C12.5637 13.5828 12.8225 13.324 13.1346 13.324C13.4467 13.324 13.7055 13.5828 13.7055 13.8949V15.1812H15.0375C15.3496 15.1812 15.6084 15.44 15.6084 15.7521C15.6084 16.0718 15.3496 16.323 15.0375 16.323Z" fill="#1000CB"/>
</svg>
