<svg width="18" height="14" viewBox="0 0 18 14" fill="none" xmlns="http://www.w3.org/2000/svg">
<path d="M0 0H17.8579V10.7147H17.1882C17.1882 9.11646 15.8846 7.81283 14.2863 7.81283C13.1166 7.81283 12.1255 8.51822 11.6612 9.51827C11.438 9.42898 11.1969 9.3754 10.938 9.3754C10.0629 9.3754 9.33076 9.93793 9.05396 10.7147H0V0ZM7.47354 2.77691C7.41996 2.91084 7.38425 3.0537 7.37532 3.19657C7.36639 3.33943 7.36639 3.49122 7.38425 3.64301L7.4021 3.71445C7.41103 3.76802 7.41996 3.83945 7.44675 3.91981C7.46461 4.0091 7.50032 4.09839 7.53604 4.19661C7.56283 4.29483 7.6164 4.39305 7.66997 4.49126C7.73248 4.59841 7.80391 4.6877 7.87534 4.76806C7.94677 4.84842 8.03606 4.91985 8.15214 4.97343C8.25928 5.027 8.37536 5.05379 8.50929 5.05379C8.6343 5.05379 8.75038 5.027 8.85752 4.97343C8.96467 4.91985 9.05396 4.84842 9.12539 4.77699C9.20575 4.69663 9.26826 4.59841 9.32183 4.49126C9.38433 4.38412 9.42898 4.2859 9.46469 4.19661C9.50041 4.10732 9.5272 4.01803 9.54505 3.91981C9.57184 3.82159 9.58077 3.75909 9.5897 3.72337C9.59863 3.68766 9.59863 3.66087 9.59863 3.64301C9.64327 3.38407 9.62541 3.14299 9.56291 2.91084C9.50041 2.67869 9.3754 2.48225 9.19682 2.32153C9.00932 2.16081 8.77716 2.08045 8.49144 2.08045C8.32179 2.08045 8.16999 2.10723 8.02713 2.16974C7.8932 2.23224 7.77712 2.3126 7.68783 2.41975C7.60747 2.51797 7.53604 2.64297 7.47354 2.77691ZM11.4737 8.16999V7.15209C11.4737 6.85744 11.3844 6.56278 11.2148 6.27706C11.0451 5.99133 10.813 5.75025 10.5272 5.57167C10.2415 5.38416 9.93793 5.29487 9.61649 5.29487L8.50929 6.0449L7.36639 5.31273C7.03602 5.31273 6.7235 5.40202 6.43778 5.5806C6.16098 5.75918 5.93776 5.99133 5.77703 6.26813C5.61631 6.55385 5.53595 6.84851 5.53595 7.15209V8.16999L5.69667 8.21464C5.80382 8.25035 5.95561 8.28607 6.15205 8.33964C6.35742 8.38429 6.57171 8.42893 6.81279 8.47358C7.04495 8.51822 7.32174 8.55394 7.62533 8.58965C7.92891 8.61644 8.22357 8.6343 8.50929 8.6343C8.77716 8.6343 9.07182 8.61644 9.38433 8.58965C9.68792 8.55394 9.95579 8.51822 10.179 8.47358C10.4022 8.43786 10.6255 8.38429 10.8576 8.33071L11.3041 8.22357C11.3755 8.20571 11.4291 8.18785 11.4737 8.16999ZM14.2863 8.25928C15.6435 8.25928 16.7418 9.35754 16.7418 10.7147C16.7418 12.0719 15.6435 13.1702 14.2863 13.1702C13.6345 13.1702 13.0541 12.9023 12.6166 12.4827C12.822 12.1702 12.947 11.7862 12.947 11.3844C12.947 10.6969 12.5988 10.0808 12.063 9.72363C12.447 8.86645 13.2863 8.25928 14.2863 8.25928ZM9.3754 11.3844C9.3754 10.5272 10.0808 9.82185 10.938 9.82185C11.7952 9.82185 12.5005 10.5272 12.5005 11.3844C12.5005 12.2416 11.7952 12.947 10.938 12.947C10.0808 12.947 9.3754 12.2416 9.3754 11.3844Z" fill="#FAC371"/>
<path d="M0 0H17.8579V10.7147H17.1882C17.1882 9.11646 15.8846 7.81283 14.2863 7.81283C13.1166 7.81283 12.1255 8.51822 11.6612 9.51826C11.438 9.42898 11.1969 9.3754 10.938 9.3754C10.0629 9.3754 9.33076 9.93793 9.05396 10.7147H0V0ZM7.47354 2.77691C7.41996 2.91084 7.38425 3.0537 7.37532 3.19657C7.36639 3.33943 7.36639 3.49122 7.38425 3.64301L7.4021 3.71445C7.41103 3.76802 7.41996 3.83945 7.44675 3.91981C7.46461 4.0091 7.50032 4.09839 7.53604 4.19661C7.56283 4.29483 7.6164 4.39305 7.66997 4.49126C7.73248 4.59841 7.80391 4.6877 7.87534 4.76806C7.94677 4.84842 8.03606 4.91985 8.15214 4.97343C8.25928 5.027 8.37536 5.05379 8.50929 5.05379C8.6343 5.05379 8.75038 5.027 8.85752 4.97343C8.96467 4.91985 9.05396 4.84842 9.12539 4.77699C9.20575 4.69663 9.26826 4.59841 9.32183 4.49126C9.38433 4.38412 9.42898 4.2859 9.46469 4.19661C9.50041 4.10732 9.52719 4.01803 9.54505 3.91981C9.57184 3.82159 9.58077 3.75909 9.5897 3.72337C9.59863 3.68766 9.59863 3.66087 9.59863 3.64301C9.64327 3.38407 9.62541 3.14299 9.56291 2.91084C9.50041 2.67869 9.3754 2.48225 9.19682 2.32153C9.00932 2.16081 8.77716 2.08045 8.49144 2.08045C8.32179 2.08045 8.16999 2.10723 8.02713 2.16974C7.8932 2.23224 7.77712 2.3126 7.68783 2.41975C7.60747 2.51797 7.53604 2.64297 7.47354 2.77691ZM11.4737 8.16999V7.15209C11.4737 6.85744 11.3844 6.56278 11.2148 6.27706C11.0451 5.99133 10.813 5.75025 10.5272 5.57167C10.2415 5.38416 9.93793 5.29487 9.61649 5.29487L8.50929 6.0449L7.36639 5.31273C7.03602 5.31273 6.7235 5.40202 6.43778 5.5806C6.16098 5.75918 5.93776 5.99133 5.77703 6.26813C5.61631 6.55385 5.53595 6.84851 5.53595 7.15209V8.16999L5.69667 8.21464C5.80382 8.25035 5.95561 8.28607 6.15205 8.33964C6.35742 8.38429 6.57171 8.42893 6.81279 8.47358C7.04495 8.51822 7.32174 8.55394 7.62533 8.58965C7.92891 8.61644 8.22357 8.6343 8.50929 8.6343C8.77716 8.6343 9.07182 8.61644 9.38433 8.58965C9.68792 8.55394 9.95579 8.51822 10.179 8.47358C10.4022 8.43786 10.6255 8.38429 10.8576 8.33071L11.3041 8.22357C11.3755 8.20571 11.4291 8.18785 11.4737 8.16999Z" fill="#1000CB"/>
</svg>
