<svg width="17" height="17" viewBox="0 0 17 17" fill="none" xmlns="http://www.w3.org/2000/svg">
<path d="M4.83903 5.53027H2.7653C2.00493 5.53027 1.38281 4.90815 1.38281 4.14779V2.7653C1.38281 2.00493 2.00493 1.38281 2.7653 1.38281H4.83903C5.5994 1.38281 6.22152 2.00493 6.22152 2.7653V4.14779C6.22152 4.90815 5.5994 5.53027 4.83903 5.53027Z" fill="#FAC371"/>
<path d="M14.3785 4.83919H11.89C11.4338 4.83919 11.0605 4.46592 11.0605 4.0097V2.90371C11.0605 2.44749 11.4338 2.07422 11.89 2.07422H14.3785C14.8347 2.07422 15.208 2.44749 15.208 2.90371V4.0097C15.208 4.46592 14.8347 4.83919 14.3785 4.83919Z" fill="#1000CB"/>
<path d="M14.3775 10.0228H11.8891C11.4328 10.0228 11.0596 9.64952 11.0596 9.19329V8.0873C11.0596 7.63108 11.4328 7.25781 11.8891 7.25781H14.3775C14.8338 7.25781 15.207 7.63108 15.207 8.0873V9.19329C15.207 9.64952 14.8338 10.0228 14.3775 10.0228Z" fill="#1000CB"/>
<path opacity="0.96" d="M11.0603 9.15869C11.3437 9.15869 11.5787 8.92367 11.5787 8.64026C11.5787 8.35685 11.3437 8.12183 11.0603 8.12183H9.15934V3.97437H11.0603C11.3437 3.97437 11.5787 3.73934 11.5787 3.45593C11.5787 3.17252 11.3437 2.9375 11.0603 2.9375H6.22156C5.93815 2.9375 5.70312 3.17252 5.70312 3.45593C5.70312 3.73934 5.93815 3.97437 6.22156 3.97437H8.12248V12.4421C8.12248 13.4928 8.97271 14.343 10.0234 14.343H11.0603C11.3437 14.343 11.5787 14.108 11.5787 13.8246C11.5787 13.5412 11.3437 13.3062 11.0603 13.3062H10.0234C9.54644 13.3062 9.15934 12.9191 9.15934 12.4421V9.15869H11.0603Z" fill="#1000CB"/>
<path d="M14.3775 15.2083H11.8891C11.4328 15.2083 11.0596 14.8351 11.0596 14.3788V13.2729C11.0596 12.8166 11.4328 12.4434 11.8891 12.4434H14.3775C14.8338 12.4434 15.207 12.8166 15.207 13.2729V14.3788C15.207 14.8351 14.8338 15.2083 14.3775 15.2083Z" fill="#1000CB"/>
</svg>
