<svg width="14" height="14" viewBox="0 0 14 14" fill="none" xmlns="http://www.w3.org/2000/svg">
<path d="M10.4164 7.8236C10.1738 8.06034 10.0353 8.40101 10.0699 8.76478C10.1219 9.38839 10.6935 9.84454 11.3171 9.84454H12.4142V10.5317C12.4142 11.7269 11.4384 12.7027 10.2431 12.7027H4.40549C4.58449 12.5526 4.74039 12.3678 4.86164 12.16C5.07529 11.8135 5.19654 11.4036 5.19654 10.9705C5.19654 9.69442 4.16297 8.66085 2.88689 8.66085C2.34412 8.66085 1.84177 8.8514 1.44336 9.16898V6.64569C1.44336 5.45044 2.41918 4.47461 3.61443 4.47461H10.2431C11.4384 4.47461 12.4142 5.45044 12.4142 6.64569V7.47716H11.2478C10.9245 7.47716 10.63 7.60418 10.4164 7.8236Z" stroke="#1000CB" stroke-width="0.8" stroke-linecap="round" stroke-linejoin="round"/>
<path d="M1.44336 7.1652V4.52645C1.44336 3.83933 1.86487 3.22725 2.5058 2.98474L7.09046 1.2525C7.80645 0.981114 8.57441 1.51235 8.57441 2.28031V4.47447" stroke="#1000CB" stroke-width="0.8" stroke-linecap="round" stroke-linejoin="round"/>
<path d="M13.0261 8.0655V9.255C13.0261 9.57258 12.772 9.83239 12.4487 9.84394H11.3169C10.6933 9.84394 10.1217 9.38779 10.0697 8.76418C10.0351 8.40041 10.1737 8.05974 10.4162 7.823C10.6298 7.60358 10.9243 7.47656 11.2476 7.47656H12.4487C12.772 7.48811 13.0261 7.74792 13.0261 8.0655Z" stroke="#1000CB" stroke-width="0.7" stroke-linecap="round" stroke-linejoin="round"/>
<path d="M4.04199 6.92871H8.08388" stroke="#FAC371" stroke-width="0.7" stroke-linecap="round" stroke-linejoin="round"/>
<path d="M5.19645 10.9708C5.19645 11.4038 5.07519 11.8138 4.86155 12.1603C4.74029 12.3681 4.5844 12.5529 4.4054 12.703C4.00121 13.0668 3.46999 13.2804 2.8868 13.2804C2.04378 13.2804 1.31046 12.8301 0.912049 12.1603C0.698406 11.8138 0.577148 11.4038 0.577148 10.9708C0.577148 10.2432 0.912048 9.59077 1.44327 9.16926C1.84168 8.85168 2.34403 8.66113 2.8868 8.66113C4.16288 8.66113 5.19645 9.6947 5.19645 10.9708Z" fill="#1000CB" stroke="#1000CB" stroke-width="0.7" stroke-miterlimit="10" stroke-linecap="round" stroke-linejoin="round"/>
<path d="M1.98633 10.9702L2.55796 11.5418L3.78785 10.4043" stroke="#FAC371" stroke-width="0.7" stroke-linecap="round" stroke-linejoin="round"/>
</svg>
