<svg width="26" height="21" viewBox="0 0 26 21" fill="none" xmlns="http://www.w3.org/2000/svg">
<path d="M19.5618 3.41699H19.5618C17.6021 3.41683 15.6327 3.91294 13.6021 4.42687L13.5756 4.43359C11.5732 4.9404 9.51042 5.46249 7.43782 5.46249C6.38837 5.46249 5.33216 5.32921 4.27178 4.99282L19.5618 3.41699ZM19.5618 3.41699C20.789 3.41699 22.0066 3.61245 23.2202 4.12149C23.431 4.20993 23.5828 4.44011 23.583 4.70426V15.1135C23.583 15.4718 23.2948 15.7403 22.9418 15.7403C22.873 15.7403 22.8013 15.7298 22.7282 15.7066C21.6678 15.3702 20.6116 15.237 19.5622 15.237C17.4894 15.237 15.4264 15.7591 13.4238 16.266L13.3977 16.2726C11.367 16.7866 9.39751 17.2828 7.43782 17.2828C6.21063 17.2828 4.99314 17.0873 3.77955 16.578L3.77919 16.5778M19.5618 3.41699L3.77919 16.5778M3.77919 16.5778C3.56872 16.4897 3.41699 16.2595 3.41699 15.9958V5.58591C3.41699 5.22767 3.7052 4.95915 4.05819 4.95915C4.12695 4.95915 4.19861 4.96963 4.27169 4.99279L3.77919 16.5778Z" fill="#1000CB" stroke="#1000CB" stroke-width="0.833982"/>
<ellipse cx="8.85351" cy="10.5967" rx="2.08496" ry="2.91894" fill="#FAC371"/>
<path d="M12.6064 9.3457H21.7802" stroke="#FAC371" stroke-width="0.655272" stroke-linecap="round"/>
<path d="M12.6064 10.6562H19.1592" stroke="#FAC371" stroke-width="0.655272" stroke-linecap="round"/>
<path d="M12.6064 11.9668H17.1933" stroke="#FAC371" stroke-width="0.655272" stroke-linecap="round"/>
</svg>
