<svg width="26" height="26" viewBox="0 0 26 26" fill="none" xmlns="http://www.w3.org/2000/svg">
<path d="M12.9204 14.5908C13.7569 14.5908 14.4351 13.9127 14.4351 13.0762C14.4351 12.2397 13.7569 11.5615 12.9204 11.5615C12.0839 11.5615 11.4058 12.2397 11.4058 13.0762C11.4058 13.9127 12.0839 14.5908 12.9204 14.5908Z" fill="#FAC371"/>
<path d="M19.686 14.4635L19.6712 14.4515L18.6753 13.6705C18.6122 13.6206 18.5619 13.5565 18.5284 13.4833C18.495 13.4102 18.4793 13.3302 18.4828 13.2499V12.8851C18.4796 12.8053 18.4955 12.7258 18.529 12.6533C18.5625 12.5808 18.6127 12.5173 18.6756 12.4679L19.6712 11.6866L19.686 11.6746C19.8395 11.5467 19.9426 11.3684 19.9767 11.1715C20.0108 10.9746 19.9737 10.772 19.8722 10.5999L18.5244 8.26795C18.5229 8.26575 18.5215 8.26343 18.5203 8.26101C18.4182 8.09129 18.2599 7.9627 18.0728 7.89757C17.8858 7.83243 17.6818 7.83486 17.4964 7.90444L17.4853 7.90854L16.3146 8.37966C16.2408 8.40953 16.1608 8.42142 16.0814 8.41434C16.002 8.40727 15.9255 8.38143 15.858 8.33895C15.7545 8.27374 15.6494 8.2121 15.5425 8.15404C15.4732 8.11646 15.4137 8.06313 15.3688 7.99835C15.3239 7.93356 15.2949 7.85913 15.2841 7.78106L15.1077 6.53179L15.1039 6.50907C15.0655 6.31557 14.9616 6.14119 14.8098 6.01523C14.658 5.88927 14.4675 5.81941 14.2702 5.81738H11.5716C11.3716 5.81802 11.1782 5.88924 11.0255 6.01848C10.8728 6.14773 10.7706 6.32671 10.737 6.5239L10.7341 6.54157L10.5584 7.79336C10.5476 7.87121 10.5188 7.94547 10.4742 8.01022C10.4297 8.07497 10.3707 8.12843 10.3018 8.16634C10.1939 8.22441 10.0885 8.28594 9.98627 8.34999C9.91895 8.39221 9.84258 8.41785 9.76342 8.42482C9.68427 8.43179 9.60459 8.41988 9.53093 8.39007L8.35929 7.91674L8.34825 7.91233C8.16253 7.84267 7.95828 7.84033 7.77102 7.90571C7.58376 7.97109 7.42534 8.10005 7.32334 8.27016L7.31924 8.2771L5.96962 10.6106C5.8679 10.7829 5.83077 10.9857 5.86488 11.1828C5.89899 11.38 6.00211 11.5586 6.1558 11.6866L6.17063 11.6986L7.16651 12.4796C7.22957 12.5295 7.27991 12.5936 7.31337 12.6668C7.34683 12.7399 7.36247 12.8199 7.35899 12.9002V13.265C7.36215 13.3448 7.34633 13.4243 7.31281 13.4968C7.27929 13.5693 7.22904 13.6329 7.16619 13.6822L6.17063 14.4635L6.1558 14.4755C6.00226 14.6034 5.89922 14.7817 5.86512 14.9786C5.83101 15.1755 5.86805 15.3781 5.96962 15.5502L7.31734 17.8822C7.31889 17.8844 7.32027 17.8867 7.32144 17.8891C7.42356 18.0588 7.5819 18.1874 7.76895 18.2525C7.956 18.3177 8.15996 18.3152 8.34541 18.2457L8.35645 18.2416L9.5262 17.7705C9.60009 17.7406 9.68002 17.7287 9.75941 17.7358C9.83879 17.7428 9.91536 17.7687 9.9828 17.8112C10.0863 17.8766 10.1915 17.9382 10.2984 17.9961C10.3676 18.0336 10.4271 18.087 10.472 18.1518C10.5169 18.2166 10.5459 18.291 10.5568 18.3691L10.7322 19.6183L10.736 19.641C10.7745 19.8349 10.8786 20.0095 11.0308 20.1355C11.183 20.2615 11.374 20.3311 11.5716 20.3327H14.2702C14.4702 20.3321 14.6636 20.2609 14.8163 20.1316C14.969 20.0024 15.0712 19.8234 15.1048 19.6262L15.1077 19.6085L15.2834 18.3567C15.2944 18.2788 15.3234 18.2044 15.3682 18.1396C15.4131 18.0749 15.4724 18.0215 15.5415 17.9838C15.6495 17.9257 15.7549 17.8642 15.8571 17.8001C15.9244 17.7579 16.0008 17.7323 16.0799 17.7253C16.1591 17.7183 16.2388 17.7302 16.3124 17.76L17.4841 18.2318L17.4951 18.2362C17.6808 18.306 17.8851 18.3084 18.0724 18.243C18.2597 18.1776 18.4181 18.0486 18.52 17.8784C18.5213 17.876 18.5226 17.8737 18.5241 17.8714L19.8719 15.5398C19.9738 15.3676 20.011 15.1647 19.977 14.9675C19.9429 14.7702 19.8398 14.5916 19.686 14.4635ZM15.4425 13.1937C15.4195 13.6824 15.255 14.1538 14.9691 14.5507C14.6831 14.9476 14.288 15.2529 13.8318 15.4295C13.3755 15.606 12.8778 15.6461 12.3992 15.545C11.9206 15.444 11.4816 15.206 11.1357 14.86C10.7898 14.5141 10.5519 14.0751 10.4509 13.5965C10.3498 13.1178 10.39 12.6201 10.5666 12.1639C10.7432 11.7077 11.0485 11.3126 11.4455 11.0267C11.8424 10.7408 12.3139 10.5764 12.8026 10.5535C13.1534 10.538 13.5036 10.5958 13.8309 10.723C14.1582 10.8502 14.4554 11.0441 14.7037 11.2925C14.952 11.5408 15.1459 11.8381 15.2731 12.1654C15.4003 12.4927 15.4579 12.8429 15.4425 13.1937Z" fill="#1000CB"/>
</svg>
