<svg width="13" height="16" viewBox="0 0 13 16" fill="none" xmlns="http://www.w3.org/2000/svg">
<path d="M11.2593 2.50206H9.38271V1.25103C9.38271 0.561086 8.82163 0 8.13168 0H4.3786C3.68866 0 3.12757 0.561086 3.12757 1.25103V2.50206H1.25103C0.561086 2.50206 0 3.06314 0 3.75308V5.62963H12.5103V3.75308C12.5103 3.06314 11.9492 2.50206 11.2593 2.50206ZM4.3786 1.25103H8.13168V2.50206H4.3786V1.25103ZM7.50617 7.50617H5.00411V6.25514H0V10.6337C0 11.3237 0.561086 11.8848 1.25103 11.8848H11.2593C11.9492 11.8848 12.5103 11.3237 12.5103 10.6337V6.25514H7.50617V7.50617Z" fill="#1000CB"/>
<path d="M10.603 10.2168C9.28081 10.2168 8.20516 11.2925 8.20516 12.6146C8.20516 13.9368 9.28081 15.0124 10.603 15.0124C11.9251 15.0124 13.0008 13.9368 13.0008 12.6146C13.0008 11.2925 11.9251 10.2168 10.603 10.2168ZM11.9817 12.8544H10.3632V11.1759H10.8427V12.3748H11.9817V12.8544Z" fill="#FAC371"/>
</svg>
