<svg width="15" height="17" viewBox="0 0 15 17" fill="none" xmlns="http://www.w3.org/2000/svg">
<path d="M9.625 11.4375V11.7228L9.87064 11.868L11.5776 12.8766L11.5403 12.9373L9.5 11.7165V8.75H9.625V11.4375ZM6.43321 14.6436L6.28727 14.5H6.0825H1.5C0.949513 14.5 0.5 14.0547 0.5 13.5V3C0.5 2.45114 0.951142 2 1.5 2H4.635H4.98573L5.10513 1.67022C5.35275 0.986335 5.99781 0.5 6.75 0.5C7.50219 0.5 8.14725 0.986335 8.39487 1.67022L8.51427 2H8.865H12C12.5547 2 13 2.44951 13 3V7.5825V7.78727L13.1436 7.93321C13.9851 8.78823 14.5 9.95361 14.5 11.25C14.5 13.8764 12.3764 16 9.75 16C8.45361 16 7.28823 15.4851 6.43321 14.6436ZM5.5 2.25C5.5 2.93864 6.06136 3.5 6.75 3.5C7.43864 3.5 8 2.93864 8 2.25C8 1.56136 7.43864 1 6.75 1C6.06136 1 5.5 1.56136 5.5 2.25ZM14 11.25C14 8.90386 12.0961 7 9.75 7C7.40386 7 5.5 8.90386 5.5 11.25C5.5 13.5961 7.40386 15.5 9.75 15.5C12.0961 15.5 14 13.5961 14 11.25Z" fill="#FAC371" stroke="#1000CB"/>
</svg>
