<svg width="26" height="26" viewBox="0 0 26 26" fill="none" xmlns="http://www.w3.org/2000/svg">
<path d="M15.1563 14.6875L12.625 13.8438V10.3157M19.375 13C19.375 9.27208 16.3529 6.25 12.625 6.25C8.89708 6.25 5.875 9.27208 5.875 13C5.875 16.7279 8.89708 19.75 12.625 19.75C13.0576 19.75 13.4807 19.7093 13.8906 19.6315M15.5781 17.6406L16.8438 18.9062L20.2188 15.5312" stroke="#FAC371" stroke-width="1.5" stroke-linecap="round" stroke-linejoin="round"/>
<path d="M15.1563 14.6875L12.625 13.8438V10.3157M19.375 13C19.375 9.27208 16.3529 6.25 12.625 6.25C8.89708 6.25 5.875 9.27208 5.875 13C5.875 16.7279 8.89708 19.75 12.625 19.75C13.0576 19.75 13.4807 19.7093 13.8906 19.6315" stroke="#1000CB" stroke-width="1.5" stroke-linecap="round" stroke-linejoin="round"/>
</svg>
